<?xml version="1.0" encoding="UTF-8" standalone="no"?>
<!DOCTYPE svg PUBLIC "-//W3C//DTD SVG 1.1//EN" "http://www.w3.org/Graphics/SVG/1.1/DTD/svg11.dtd">
<!-- Created with Vectornator (http://vectornator.io/) -->
<svg height="100%" stroke-miterlimit="10" style="fill-rule:nonzero;clip-rule:evenodd;stroke-linecap:round;stroke-linejoin:round;" version="1.1" viewBox="0 0 875 600" width="100%" xml:space="preserve" xmlns="http://www.w3.org/2000/svg" xmlns:vectornator="http://vectornator.io" xmlns:xlink="http://www.w3.org/1999/xlink">
<defs/>
<clipPath id="ArtboardFrame">
<rect height="600" width="875" x="0" y="0"/>
</clipPath>
<g clip-path="url(#ArtboardFrame)" id="Sketch" vectornator:layerName="Sketch" visibility="hidden">
<path d="M519.179 252.071C508.325 276.39 506.185 315.388 521.8 338.42C543.956 371.1 597.176 370.347 609.59 328.724C618.891 297.541 604.83 264.875 584.694 241.72C561.457 214.996 532.428 222.389 519.179 252.071Z" fill="none" opacity="1" stroke="#007aff" stroke-linecap="round" stroke-linejoin="round" stroke-width="10" vectornator:layerName="Curve 1"/>
<path d="M601.991 250.892C593.202 250.892 584.993 248.091 576.309 247.223C557.97 245.389 535.982 248.728 518.917 255.609C504.105 261.581 465.872 279.45 506.6 285.484C537.433 290.052 579.544 285.632 608.542 273.691C626.523 266.287 597.398 248.795 591.77 248.795" fill="none" opacity="1" stroke="#007aff" stroke-linecap="round" stroke-linejoin="round" stroke-width="10" vectornator:layerName="Curve 2"/>
<path d="M510.391 290.392C506.136 296.775 507.962 307.734 506.261 315.176C500.105 342.105 492.795 364.791 489.738 392.742C484.128 444.034 473.04 495.289 465.871 546.496C462.552 570.205 441.601 615.725 444.759 637.83C445.766 644.88 464.012 647.198 468.625 648.845C490.911 656.805 502.471 652.939 521.406 642.42C527.682 638.933 536.866 637.818 541.142 631.405C555.36 610.078 543.955 538.494 543.437 512.073C542.69 473.99 547.587 436.263 548.944 398.249C549.328 387.518 546.982 376.185 548.485 365.663" fill="none" opacity="1" stroke="#007aff" stroke-linecap="round" stroke-linejoin="round" stroke-width="10" vectornator:layerName="Curve 3"/>
<path d="M598.054 434.967C598.054 429.056 600.46 422.561 598.972 416.608C592.148 389.313 541.491 413.335 531.963 429.459C512.259 462.804 521.873 503.423 525.537 539.152C531.004 592.45 522.174 659.666 595.759 652.976C618.007 650.953 623.643 609.59 626.51 592.392C634.216 546.154 624.701 503.188 612.282 458.833C607.037 440.103 593.966 426.091 591.169 406.511" fill="none" opacity="1" stroke="#007aff" stroke-linecap="round" stroke-linejoin="round" stroke-width="10" vectornator:layerName="Curve 4"/>
<path d="M526.881 609.123C523.375 605.617 526.957 627.133 526.36 634.093C524.829 651.963 521.777 671.74 515.956 688.716C505.448 719.366 492.283 742.824 475.379 769.87C470.498 777.681 454.086 784.689 455.611 795.361C457.044 805.395 481.826 815.295 489.425 818.25C505.145 824.364 522.331 824.644 538.325 829.695C564.687 838.02 588.872 847.423 616.878 848.423C651.548 849.661 650.172 826.288 650.172 798.482C650.172 758.566 641.498 718.7 633.005 679.873C630.908 670.287 629.871 628.888 621.56 626.81" fill="none" opacity="1" stroke="#007aff" stroke-linecap="round" stroke-linejoin="round" stroke-width="10" vectornator:layerName="Curve 5"/>
<path d="M494.107 820.331C494.107 823.681 487.459 828.059 486.304 832.296C482.711 845.469 479.425 860.62 473.298 872.873C467.774 883.922 457.781 892.917 453.53 904.606C445.185 927.555 491.704 936.071 504.511 937.9C508.084 938.411 523.037 948.189 524.8 944.663C526.574 941.115 524.8 931.642 524.8 928.016C524.8 890.676 487.204 917.956 492.026 902.525C497.941 883.599 502.235 864.24 508.153 845.302C509.135 842.16 512.785 831.751 508.673 829.695" fill="none" opacity="1" stroke="#007aff" stroke-linecap="round" stroke-linejoin="round" stroke-width="10" vectornator:layerName="Curve 6"/>
<path d="M589.827 844.781C583.675 847.857 589.506 861.82 589.827 866.63C591.209 887.356 590.36 907.86 592.428 928.536C592.661 930.868 591.866 947.551 593.989 948.825C597.394 950.868 613.459 944.727 617.398 944.143C625.503 942.942 677.198 940.527 681.385 936.34C683.698 934.026 680.609 925.719 679.825 923.854C673.693 909.292 658.032 896.373 641.849 903.566C638.176 905.198 627.394 918.325 622.601 914.49C614.188 907.76 614.77 862.933 608.035 849.463" fill="none" opacity="1" stroke="#007aff" stroke-linecap="round" stroke-linejoin="round" stroke-width="10" vectornator:layerName="Curve 7"/>
<path d="M574.22 427.567C559.286 405.166 537.99 459.767 532.603 470.225C510.101 513.905 501.39 583.094 501.39 631.492C501.39 650.439 502.573 675.153 522.719 684.554C541.88 693.496 568.024 633.113 571.619 621.608C587.318 571.371 606.517 518.57 601.792 465.023C599.432 438.273 577.537 397.356 554.972 437.971" fill="none" opacity="1" stroke="#007aff" stroke-linecap="round" stroke-linejoin="round" stroke-width="10" vectornator:layerName="Curve 8"/>
<path d="M518.817 688.976C490.282 679.738 522.456 752.531 542.487 739.177C557.278 729.317 546.962 691.693 533.123 685.075C523.56 680.501 523.93 690.632 518.817 688.976Z" fill="none" opacity="1" stroke="#007aff" stroke-linecap="round" stroke-linejoin="round" stroke-width="10" vectornator:layerName="Curve 9"/>
<path d="M633.005 555.02C643.129 575.268 669.401 587.58 679.825 609.123C684.862 619.534 679.843 646.122 662.137 637.735C649.17 631.593 633.525 608.06 633.525 594.037" fill="none" opacity="1" stroke="#007aff" stroke-linecap="round" stroke-linejoin="round" stroke-width="10" vectornator:layerName="Curve 10"/>
<path d="M684.506 653.862C684.506 660.634 683.279 667.397 684.506 674.15C690.688 708.15 716.567 675.682 692.83 653.341C687.52 648.344 677.39 649.929 670.461 647.619" fill="none" opacity="1" stroke="#007aff" stroke-linecap="round" stroke-linejoin="round" stroke-width="10" vectornator:layerName="Curve 11"/>
<path d="M1349.93 726.911C1328.93 735.311 1311.17 755.624 1314.44 780.148C1316.25 793.714 1330.72 811.137 1345.88 807.527C1368.44 802.156 1393.3 772.857 1396.58 750.741C1402.88 708.183 1369.37 708.091 1345.37 733.503C1339.87 739.322 1331.39 746.441 1328.13 753.783" fill="none" opacity="1" stroke="#007aff" stroke-linecap="round" stroke-linejoin="round" stroke-width="10" vectornator:layerName="Curve 12"/>
<path d="M1297.2 799.922C1269.68 804.509 1233.41 797.889 1204.42 799.415C1165.46 801.466 1126.98 803.659 1096.93 830.85C1086.54 840.254 1071.36 852.212 1079.69 868.876C1086.15 881.783 1103.98 881.444 1116.2 883.073C1145.67 887.002 1175.63 890.222 1205.43 888.143C1234.94 886.084 1277.41 875.995 1299.23 854.173C1311.18 842.221 1313 818.233 1298.72 808.034C1292.25 803.413 1284.49 800.916 1277.43 797.387" fill="none" opacity="1" stroke="#007aff" stroke-linecap="round" stroke-linejoin="round" stroke-width="10" vectornator:layerName="Curve 13"/>
<path d="M1135.46 849.103C1135.04 849.383 1131.99 851.424 1131.41 851.131C1126.27 848.561 1133.5 839.243 1131.41 833.892C1126.23 820.656 1121.05 807.762 1116.2 794.345C1106.77 768.293 1079.47 676.514 1041.67 685.336C1017.27 691.029 1012.37 726.507 1009.72 746.178C1006.07 773.315 1001.04 800.23 997.049 827.301C995.156 840.13 997.776 860.829 991.978 872.426" fill="none" opacity="1" stroke="#007aff" stroke-linecap="round" stroke-linejoin="round" stroke-width="10" vectornator:layerName="Curve 31"/>
<path d="M1132.42 850.117C1123.42 859.12 1129.13 895.884 1106.56 875.975C1093.32 864.288 1079.24 826.395 1070.57 809.048C1066.13 800.182 1065.56 788.981 1060.93 780.655C1058.95 777.095 1054.83 775.036 1057.38 780.148" fill="none" opacity="1" stroke="#007aff" stroke-linecap="round" stroke-linejoin="round" stroke-width="10" vectornator:layerName="Curve 15"/>
<path d="M1056.88 783.19C1051.03 812.404 1048.75 840.525 1038.62 868.876C1038.6 868.936 1024.52 922.148 1021.89 906.396" fill="none" opacity="1" stroke="#007aff" stroke-linecap="round" stroke-linejoin="round" stroke-width="10" vectornator:layerName="Curve 16"/>
<path d="M1019.86 908.931C1015.81 912.98 996.492 909.245 990.457 910.452C981.977 912.148 956.423 921.247 948.375 918.564C939.755 915.691 946.247 877.951 952.938 872.933C966.395 862.84 989.95 860.967 989.95 883.58" fill="none" opacity="1" stroke="#007aff" stroke-linecap="round" stroke-linejoin="round" stroke-width="10" vectornator:layerName="Curve 32"/>
<path d="M1050.29 835.92C1061.76 847.396 1075.18 852.652 1091.35 852.652" fill="none" opacity="1" stroke="#007aff" stroke-linecap="round" stroke-linejoin="round" stroke-width="10" vectornator:layerName="Curve 18"/>
<path d="M1003.13 770.008C1003.13 770.634 993.066 764.576 990.457 763.417C988.648 762.612 986.805 761.875 984.937 761.193" fill="none" opacity="1" stroke="#007aff" stroke-linecap="round" stroke-linejoin="round" stroke-width="10" vectornator:layerName="Curve 37"/>
<path d="M854.576 887.129C824.971 857.524 796.851 914.076 808.945 926.17C823.664 940.888 861.73 926.768 878.913 922.62C880.481 922.242 897.02 916.39 897.673 917.043C898.697 918.068 892.376 917.437 891.589 917.043" fill="none" opacity="1" stroke="#007aff" stroke-linecap="round" stroke-linejoin="round" stroke-width="10" vectornator:layerName="Curve 34"/>
<path d="M892.096 926.677C892.096 927.468 898.212 913.919 900.208 910.452C906.215 900.018 914.74 892.429 921.503 882.566C938.962 857.104 967.401 813.104 1001.61 813.104" fill="none" opacity="1" stroke="#007aff" stroke-linecap="round" stroke-linejoin="round" stroke-width="10" vectornator:layerName="Curve 35"/>
<path d="M1293.15 810.062C1326.7 798.876 1380.86 862.283 1363.62 896.762C1354.86 914.286 1340.7 919.655 1326.61 930.226C1322.85 933.048 1320.1 939.001 1314.95 939.859C1303.94 941.693 1287.84 940.992 1277.94 945.943" fill="none" opacity="1" stroke="#007aff" stroke-linecap="round" stroke-linejoin="round" stroke-width="10" vectornator:layerName="Curve 22"/>
<path d="M1294.67 808.541C1278.3 797.631 1257.07 820.759 1260.19 837.948C1262.79 852.224 1284.22 864.45 1290.61 878.51C1291.53 880.522 1294.07 893.929 1291.63 892.706" fill="none" opacity="1" stroke="#007aff" stroke-linecap="round" stroke-linejoin="round" stroke-width="10" vectornator:layerName="Curve 23"/>
<path d="M1290.11 900.819C1277.3 913.625 1268.79 930.751 1255.63 943.915" fill="none" opacity="1" stroke="#007aff" stroke-linecap="round" stroke-linejoin="round" stroke-width="10" vectornator:layerName="Curve 24"/>
<path d="M1256.13 948.478C1260.22 954.61 1275.86 945.969 1280.47 943.408" fill="none" opacity="1" stroke="#007aff" stroke-linecap="round" stroke-linejoin="round" stroke-width="10" vectornator:layerName="Curve 25"/>
<path d="M1233.83 942.901C1227.35 948.202 1198.83 948.051 1195.8 966.224C1194.97 971.213 1212.36 971.801 1215.07 971.801C1226.83 971.801 1248.89 967.389 1257.66 958.619C1279.74 936.53 1250.45 929.297 1233.83 942.901Z" fill="none" opacity="1" stroke="#007aff" stroke-linecap="round" stroke-linejoin="round" stroke-width="10" vectornator:layerName="Curve 26"/>
<path d="M1279.96 797.387C1278.54 800.238 1273.21 790.978 1271.35 789.782C1265.66 786.126 1257.76 783.234 1251.06 782.176C1236.38 779.858 1220.33 782.333 1205.94 779.134C1204.34 778.778 1202.9 779.177 1202.9 777.613" fill="none" opacity="1" stroke="#007aff" stroke-linecap="round" stroke-linejoin="round" stroke-width="10" vectornator:layerName="Curve 27"/>
<path d="M1199.86 779.641C1195.02 777.225 1198.91 769.089 1189.72 766.966C1167.06 761.737 1141.37 786.254 1151.18 809.555C1157.58 824.761 1186.08 842.542 1200.87 848.089C1204.62 849.494 1219.14 853.622 1221.66 848.089C1226.74 836.897 1210.94 806.38 1205.94 796.373C1200.94 786.371 1191.19 779.548 1186.17 769.501" fill="none" opacity="1" stroke="#007aff" stroke-linecap="round" stroke-linejoin="round" stroke-width="10" vectornator:layerName="Curve 28"/>
<path d="M1219.38 854.933C1223.57 868.621 1249 871.61 1242.95 854.68C1239.83 845.938 1213.71 836.439 1219.38 854.933Z" fill="none" opacity="1" stroke="#007aff" stroke-linecap="round" stroke-linejoin="round" stroke-width="10" vectornator:layerName="Curve 29"/>
<path d="M872.963 895.218C868.369 886.031 895.725 853.889 901.18 845.1C911.757 828.059 920.238 808.496 934.03 793.719C940.095 787.221 948.364 784.059 955.088 778.557C959.615 774.854 962.679 768.869 968.986 768.028C981.029 766.423 994.667 774.906 1006.47 776.873" fill="none" opacity="1" stroke="#007aff" stroke-linecap="round" stroke-linejoin="round" stroke-width="10" vectornator:layerName="Curve 36"/>
<path d="M854.432 887.637C851.119 894.262 868.935 889.088 873.805 888.479" fill="none" opacity="1" stroke="#007aff" stroke-linecap="round" stroke-linejoin="round" stroke-width="10" vectornator:layerName="Curve 38"/>
<path d="M1366.69 703.928C1359.23 702.913 1362.01 690.285 1367.65 688.25C1373.79 686.032 1382.85 686.375 1388.57 689.434C1391.61 691.063 1393.62 694.096 1393.93 697.515C1393.98 698.111 1392.42 701.168 1391.7 700.179C1389.56 697.243 1404.18 693.87 1405.9 694.273C1413.2 695.986 1418 702.766 1421.7 708.823C1424.52 713.445 1420.71 719.177 1416.92 721.94C1415.52 722.961 1411.62 724.971 1411.89 723.258C1412.15 721.559 1421.01 723.083 1421.53 723.27C1431.78 726.967 1438.4 737.049 1431.93 747.221C1429.84 750.504 1426.53 752.744 1423.23 754.595C1421.57 755.529 1416.38 757.134 1418.26 757.431C1429.06 759.131 1435.88 773.435 1429.18 783.874C1424.24 791.566 1410.43 796.578 1402.25 790.187C1402.1 790.072 1401.48 788.561 1401.65 788.283C1404.93 782.768 1423.03 797.718 1398.42 804.961C1379.99 810.384 1371.52 787.092 1375.16 772.654C1375.93 769.609 1384.94 768 1384.45 771.102C1384.17 772.855 1379.46 772.073 1378.58 771.987C1371.83 771.327 1367.2 765.397 1367.1 758.721C1366.99 750.797 1372.19 743.918 1378.79 740.057C1379.32 739.744 1382.34 738.914 1382.7 740.071C1382.94 740.806 1376.06 740.829 1375.95 740.817C1368.24 739.959 1358.39 735.976 1355.03 728.174C1353.73 725.156 1349.08 713.591 1351.99 711.111C1354.9 708.63 1358.3 705.624 1362.06 704.557C1362.9 704.321 1367.8 704.08 1366.69 703.928Z" fill="none" opacity="1" stroke="#007aff" stroke-linecap="round" stroke-linejoin="round" stroke-width="10" vectornator:layerName="Curve 39"/>
</g>
<g id="Priest" vectornator:layerName="Priest">
<path d="M419.089 304.017C373.431 247.927 344.256 196.076 353.925 188.206C363.595 180.335 408.446 219.424 454.104 275.514C499.762 331.604 528.937 383.454 519.267 391.325C509.598 399.196 464.747 360.107 419.089 304.017Z" fill="#757a7e" fill-rule="nonzero" opacity="1" stroke="#150b14" stroke-linecap="butt" stroke-linejoin="round" stroke-width="10" vectornator:layerName="Oval 3"/>
<path d="M189.769 449.885L66.597 465.122C66.597 465.122 67.6716 541.006 80.4765 542.5C110.942 546.054 103.758 500.875 103.758 500.875L193.566 473.898L189.769 449.885Z" fill="#9f7257" fill-rule="nonzero" opacity="1" stroke="#150b14" stroke-linecap="butt" stroke-linejoin="round" stroke-width="10" vectornator:layerName="Curve 7"/>
<path d="M168.002 457.97L44.0029 452.689C44.0029 452.689 32.5506 527.711 44.9339 531.296C74.396 539.825 74.7602 494.079 74.7602 494.079L167.787 482.281L168.002 457.97Z" fill="#9f7257" fill-rule="nonzero" opacity="1" stroke="#150b14" stroke-linecap="butt" stroke-linejoin="round" stroke-width="10" vectornator:layerName="Curve 6"/>
<path d="M268.305 270.744C296.247 203.4 342.609 158.645 371.859 170.781C401.108 182.917 402.169 247.348 374.227 314.692C346.285 382.036 299.922 426.791 270.673 414.655C241.423 402.519 240.363 338.088 268.305 270.744Z" fill="#757a7e" fill-rule="nonzero" opacity="1" stroke="#150b14" stroke-linecap="butt" stroke-linejoin="round" stroke-width="10" vectornator:layerName="Oval 1"/>
<path d="M248.023 387.98C248.023 387.98 200.973 423.43 147.028 426.126C113.283 427.812 103.59 474.557 111.817 490.163C134.072 532.378 223.625 568.571 290.895 542.699C358.165 516.828 321.266 399.36 321.266 399.36L248.023 387.98Z" fill="#a5a4a2" fill-rule="nonzero" opacity="1" stroke="#150b14" stroke-linecap="butt" stroke-linejoin="round" stroke-width="10" vectornator:layerName="Curve 5"/>
<path d="M354.345 85.9928C354.345 85.9928 297.575 166.097 365.552 193.488C433.53 220.879 434.628 119.929 434.628 119.929L354.345 85.9928Z" fill="#9f7257" fill-rule="nonzero" opacity="1" stroke="#150b14" stroke-linecap="round" stroke-linejoin="round" stroke-width="10" vectornator:layerName="Curve 1"/>
<path d="M510.959 367.818C497.6 366.537 487.248 360.528 487.836 354.397C488.424 348.266 499.729 344.334 513.087 345.615C526.446 346.895 536.798 352.904 536.21 359.035C535.623 365.166 524.317 369.098 510.959 367.818Z" fill="#9f7257" fill-rule="nonzero" opacity="1" stroke="#150b14" stroke-linecap="butt" stroke-linejoin="round" stroke-width="10" vectornator:layerName="Oval 5"/>
<path d="M803.166 317.352C785.036 297.291 735.058 327.284 722.127 349.081C709.195 370.878 730.508 408.05 763.778 397.521C801.832 385.478 813.46 328.742 803.166 317.352Z" fill="#c9b09a" fill-rule="nonzero" opacity="1" stroke="#150b14" stroke-linecap="butt" stroke-linejoin="round" stroke-width="10" vectornator:layerName="Curve 8"/>
<path d="M751.801 327.543C757.34 327.151 762.385 330.432 767.841 330.96C769.552 331.125 774.634 329.973 772.966 330.39C767.451 331.769 763.75 329.617 758.35 328.492C756.405 328.087 750.452 327.638 751.801 327.543Z" fill="none" opacity="1" stroke="#3f2065" stroke-linecap="round" stroke-linejoin="round" stroke-width="10" vectornator:layerName="Curve 14"/>
<path d="M566.611 374.716C571.836 361.852 601.487 361.747 632.84 374.481C664.193 387.214 685.374 407.965 680.149 420.828C674.925 433.692 645.273 433.797 613.921 421.063C582.568 408.33 561.387 387.579 566.611 374.716Z" fill="#c9b09a" fill-rule="nonzero" opacity="1" stroke="#150b14" stroke-linecap="butt" stroke-linejoin="round" stroke-width="10" vectornator:layerName="Oval 7"/>
<path d="M777.303 301.088C777.303 301.088 750.907 308.687 750.374 314.953C749.84 321.218 775.17 326.151 775.17 326.151C775.17 326.151 758.373 343.282 761.839 349.881C765.305 356.48 789.035 352.547 789.035 352.547C789.035 352.547 771.371 373.878 775.17 378.944C778.97 384.01 804.233 372.811 804.233 372.811C804.233 372.811 814.032 398.541 817.831 396.008C821.63 393.475 819.431 362.679 819.431 362.679C819.431 362.679 842.294 363.879 841.561 357.88C840.828 351.881 816.498 338.683 816.498 338.683C816.498 338.683 839.028 324.751 836.228 317.619C833.429 310.487 805.299 310.153 805.299 310.153C805.299 310.153 812.232 287.023 808.499 284.29C804.766 281.557 790.368 299.221 790.368 299.221C790.368 299.221 773.904 281.157 770.638 281.624C767.371 282.091 777.303 301.088 777.303 301.088Z" fill="#6f3a1a" fill-rule="nonzero" opacity="1" stroke="#150b14" stroke-linecap="butt" stroke-linejoin="round" stroke-width="10" vectornator:layerName="Curve 9"/>
<path d="M485.56 453.056C481.767 427.041 532.995 398.033 599.982 388.266C666.968 378.499 724.347 391.67 728.14 417.686C731.934 443.701 680.705 472.709 613.719 482.476C546.732 492.243 489.353 479.072 485.56 453.056Z" fill="#c9b09a" fill-rule="nonzero" opacity="1" stroke="#150b14" stroke-linecap="butt" stroke-linejoin="round" stroke-width="10" vectornator:layerName="Oval 6"/>
<path d="M593.489 446.087C590.83 447.249 593.312 449.984 595.672 450.927C598.081 451.891 601.463 449.775 604.214 450.168C612.347 451.33 617.691 452.826 624.905 456.432C625.55 456.755 626.043 456.92 626.803 456.812C628.625 456.552 631.13 439.302 630.599 436.121C629.317 428.427 623.448 448.439 621.108 449.219C616.778 450.663 611.75 446.204 608.2 445.612C604.578 445.009 595.5 445.208 593.489 446.087Z" fill="none" opacity="1" stroke="#ff3333" stroke-linecap="round" stroke-linejoin="round" stroke-width="10" vectornator:layerName="Curve 18"/>
<path d="M447.85 456.683C405.222 440.697 375.371 415.189 381.175 399.711C386.98 384.233 426.243 384.644 468.871 400.631C511.498 416.617 541.35 442.124 535.545 457.603C529.74 473.081 490.478 472.669 447.85 456.683Z" fill="#c9b09a" fill-rule="nonzero" opacity="1" stroke="#150b14" stroke-linecap="butt" stroke-linejoin="round" stroke-width="10" vectornator:layerName="Oval 13"/>
<path d="M565.767 408.216C559.706 390.053 561.793 372.993 570.429 370.111C579.065 367.229 590.98 379.616 597.042 397.779C603.103 415.942 601.016 433.002 592.38 435.884C583.744 438.766 571.829 426.379 565.767 408.216Z" fill="#c9b09a" fill-rule="nonzero" opacity="1" stroke="#150b14" stroke-linecap="butt" stroke-linejoin="round" stroke-width="10" vectornator:layerName="Oval 8"/>
<path d="M584.159 430.866C584.159 423.009 594.318 416.64 606.85 416.64C619.382 416.64 629.541 423.009 629.541 430.866C629.541 438.723 619.382 445.092 606.85 445.092C594.318 445.092 584.159 438.723 584.159 430.866Z" fill="#c9b09a" fill-rule="nonzero" opacity="1" stroke="#150b14" stroke-linecap="butt" stroke-linejoin="round" stroke-width="10" vectornator:layerName="Oval 9"/>
<path d="M697.273 469.604C682.384 437.772 681.291 406.834 694.83 400.501C708.37 394.168 731.416 414.839 746.304 446.67C761.193 478.502 762.287 509.441 748.747 515.773C735.207 522.106 712.162 501.436 697.273 469.604Z" fill="#c9b09a" fill-rule="nonzero" opacity="1" stroke="#150b14" stroke-linecap="butt" stroke-linejoin="round" stroke-width="10" vectornator:layerName="Oval 10"/>
<path d="M656.58 543.404C651.504 531.983 670.156 512.604 698.242 500.12C726.327 487.636 753.211 486.775 758.287 498.196C763.364 509.617 744.711 528.996 716.626 541.48C688.54 553.963 661.657 554.825 656.58 543.404Z" fill="#c9b09a" fill-rule="nonzero" opacity="1" stroke="#150b14" stroke-linecap="butt" stroke-linejoin="round" stroke-width="10" vectornator:layerName="Oval 11"/>
<path d="M491.257 440.032C491.257 413.688 507.16 392.333 526.778 392.333C546.395 392.333 562.298 413.688 562.298 440.032C562.298 466.375 546.395 487.731 526.778 487.731C507.16 487.731 491.257 466.375 491.257 440.032Z" fill="#ffffff" fill-rule="nonzero" opacity="1" stroke="#150b14" stroke-linecap="butt" stroke-linejoin="round" stroke-width="10" vectornator:layerName="Oval 15"/>
<path d="M623.282 558.763C621.148 551.8 630.37 542.799 643.878 538.659C657.387 534.52 670.068 536.809 672.201 543.772C674.335 550.735 665.114 559.735 651.605 563.875C638.097 568.015 625.416 565.726 623.282 558.763Z" fill="#c9b09a" fill-rule="nonzero" opacity="1" stroke="#150b14" stroke-linecap="butt" stroke-linejoin="round" stroke-width="10" vectornator:layerName="Oval 12"/>
<path d="M480.832 410.792C463.698 367.534 461.205 327.952 475.264 322.384C489.322 316.816 514.608 347.369 531.742 390.628C548.876 433.886 551.369 473.468 537.31 479.036C523.252 484.604 497.966 454.051 480.832 410.792Z" fill="#c9b09a" fill-rule="nonzero" opacity="1" stroke="#150b14" stroke-linecap="butt" stroke-linejoin="round" stroke-width="10" vectornator:layerName="Oval 14"/>
<path d="M409.301 389.329C377.94 373.223 280.685 506.631 280.685 506.631C280.685 506.631 258.016 477.824 239.139 509.368C235.126 516.074 296.755 533.443 296.755 533.443C296.755 533.443 443.797 407.044 409.301 389.329Z" fill="#c9b09a" fill-rule="nonzero" opacity="1" stroke="#150b14" stroke-linecap="butt" stroke-linejoin="round" stroke-width="10" vectornator:layerName="Curve 12"/>
<path d="M478.6 321.75C443.404 323.809 427.407 488.127 427.407 488.127C427.407 488.127 393.246 474.83 393.011 511.59C392.962 519.405 454.87 503.058 454.87 503.058C454.87 503.058 517.312 319.484 478.6 321.75Z" fill="#c9b09a" fill-rule="nonzero" opacity="1" stroke="#150b14" stroke-linecap="butt" stroke-linejoin="round" stroke-width="10" vectornator:layerName="Curve 11"/>
<path d="M743.354 368.355C749.837 366.914 744.626 371.037 747.34 374.429C749.033 376.545 753.083 375.44 755.123 377.276C758.634 380.436 761.437 388.117 764.044 392.462" fill="none" opacity="1" stroke="#ff3333" stroke-linecap="round" stroke-linejoin="round" stroke-width="10" vectornator:layerName="Curve 13"/>
<path d="M713.931 449.409C717.614 448.483 720.788 431.755 714.691 431.755C696.844 431.755 715.661 466.125 723.802 462.507C730.409 459.57 722.324 453.325 719.626 452.066C717.411 451.032 710.557 452.329 712.413 450.738C713.295 449.982 713.407 449.541 713.931 449.409Z" fill="#3f2065" fill-rule="nonzero" opacity="1" stroke="#3f2065" stroke-linecap="round" stroke-linejoin="round" stroke-width="10" vectornator:layerName="Curve 15"/>
<path d="M645.69 399.581C645.652 403.087 657.578 400.763 660.402 405.94C666.682 417.453 658.297 429.7 659.452 440.677C660.104 446.871 670.908 450.436 664.388 452.066C647.974 456.17 640.32 439.148 646.355 425.871C647.993 422.267 651.729 420.201 652.429 416C653.081 412.089 649.461 407.924 647.114 404.99C646.289 403.96 645.694 399.229 645.69 399.581Z" fill="#3f2065" fill-rule="nonzero" opacity="1" stroke="#3f2065" stroke-linecap="round" stroke-linejoin="round" stroke-width="10" vectornator:layerName="Curve 16"/>
<path d="M503.694 414.826C502.918 417.317 505.864 407.23 503.994 405.36C500.536 401.901 495.279 408.088 495.279 411.37C495.279 419.939 536.621 448.768 527.436 457.953C519.841 465.548 509.791 431.655 507.601 426.397C506.557 423.892 504.65 421.208 503.994 418.583C503.63 417.125 504.828 412.825 503.994 414.075C503.482 414.844 504.008 413.818 503.694 414.826Z" fill="#3f2065" fill-rule="nonzero" opacity="1" stroke="#3f2065" stroke-linecap="round" stroke-linejoin="round" stroke-width="10" vectornator:layerName="Curve 19"/>
<path d="M460.116 379.664C454.496 376.017 437.266 457.486 455.007 419.785C456.529 416.552 457.443 413.648 458.313 410.168C459.325 406.123 459.873 402.585 460.116 398.447C460.483 392.222 465.202 382.964 460.116 379.664Z" fill="#3f2065" fill-rule="nonzero" opacity="1" stroke="#3f2065" stroke-linecap="round" stroke-linejoin="round" stroke-width="10" vectornator:layerName="Curve 20"/>
<path d="M342.331 322.028C318.992 248.414 314.338 184.216 331.934 178.637C349.531 173.058 382.715 228.211 406.053 301.825C429.392 375.439 434.047 439.637 416.45 445.216C398.854 450.795 365.669 395.641 342.331 322.028Z" fill="#757a7e" fill-rule="nonzero" opacity="1" stroke="#150b14" stroke-linecap="butt" stroke-linejoin="round" stroke-width="10" vectornator:layerName="Oval 2"/>
<path d="M323.674 474.332C322.803 473.9 321.647 473.575 321.27 472.679C321.048 472.152 329.543 464.148 329.986 463.663C335.339 457.8 348.772 432.708 358.236 432.708C358.428 432.708 354.232 439.924 354.028 440.221C351.799 443.479 349.346 446.58 347.116 449.839C342.634 456.39 328.911 476.927 323.674 474.332Z" fill="#3f2065" fill-rule="nonzero" opacity="1" stroke="#3f2065" stroke-linecap="round" stroke-linejoin="round" stroke-width="10" vectornator:layerName="Curve 21"/>
<path d="M428.386 449.883C413.884 449.73 402.209 441.916 402.309 432.431C402.409 422.946 414.247 415.381 428.749 415.534C443.25 415.687 454.926 423.5 454.825 432.985C454.725 442.471 442.888 450.036 428.386 449.883Z" fill="#9f7257" fill-rule="nonzero" opacity="1" stroke="#150b14" stroke-linecap="butt" stroke-linejoin="round" stroke-width="10" vectornator:layerName="Oval 4"/>
<path d="M339.128 140.998C347.895 135.279 361.673 98.9819 361.673 98.9819C361.673 98.9819 380.823 121.306 393.882 120.99C406.942 120.674 421.713 109.923 421.713 109.923C421.713 109.923 445.192 132.115 454.2 130.311C463.207 128.506 457.743 102.706 457.743 102.706C457.743 102.706 478.23 92.5432 474.879 84.894C471.528 77.2447 444.339 72.109 444.339 72.109C444.339 72.109 451.524 47.7575 441.508 47.2562C431.492 46.7549 401.422 71.0084 404.276 70.1037C407.129 69.1989 403.873 43.7733 393.011 42.2867C382.15 40.8002 356.421 64.5616 360.831 64.1574C365.241 63.7533 356.897 34.3485 346.043 36.371C335.189 38.3935 331.364 74.0848 331.364 74.0848C331.364 74.0848 309.927 64.3401 308.373 74.4664C306.819 84.5927 321.266 103.598 321.266 103.598C321.266 103.598 307.123 121.269 312.925 126.596C318.727 131.923 330.738 128.252 330.738 128.252C330.738 128.252 330.36 146.717 339.128 140.998Z" fill="#402217" fill-rule="nonzero" opacity="1" stroke="#150b14" stroke-linecap="butt" stroke-linejoin="round" stroke-width="10" vectornator:layerName="Curve 22"/>
</g>
</svg>
