<?xml version="1.0" encoding="UTF-8" standalone="no"?>
<!DOCTYPE svg PUBLIC "-//W3C//DTD SVG 1.1//EN" "http://www.w3.org/Graphics/SVG/1.1/DTD/svg11.dtd">
<!-- Created with Vectornator (http://vectornator.io/) -->
<svg height="100%" stroke-miterlimit="10" style="fill-rule:nonzero;clip-rule:evenodd;stroke-linecap:round;stroke-linejoin:round;" version="1.1" viewBox="0 0 1050 775" width="100%" xml:space="preserve" xmlns="http://www.w3.org/2000/svg" xmlns:vectornator="http://vectornator.io" xmlns:xlink="http://www.w3.org/1999/xlink">
<defs/>
<clipPath id="ArtboardFrame">
<rect height="775" width="1050" x="0" y="0"/>
</clipPath>
<g clip-path="url(#ArtboardFrame)" id="Sketch" vectornator:layerName="Sketch" visibility="hidden">
<path d="M519.179 252.071C508.325 276.39 506.185 315.388 521.8 338.42C543.956 371.1 597.176 370.347 609.59 328.724C618.891 297.541 604.83 264.875 584.694 241.72C561.457 214.996 532.428 222.389 519.179 252.071Z" fill="none" opacity="1" stroke="#007aff" stroke-linecap="round" stroke-linejoin="round" stroke-width="10" vectornator:layerName="Curve 1"/>
<path d="M601.991 250.892C593.202 250.892 584.993 248.091 576.309 247.223C557.97 245.389 535.982 248.728 518.917 255.609C504.105 261.581 465.872 279.45 506.6 285.484C537.433 290.052 579.544 285.632 608.542 273.691C626.523 266.287 597.398 248.795 591.77 248.795" fill="none" opacity="1" stroke="#007aff" stroke-linecap="round" stroke-linejoin="round" stroke-width="10" vectornator:layerName="Curve 2"/>
<path d="M510.391 290.392C506.136 296.775 507.962 307.734 506.261 315.176C500.105 342.105 492.795 364.791 489.738 392.742C484.128 444.034 473.04 495.289 465.871 546.496C462.552 570.205 441.601 615.725 444.759 637.83C445.766 644.88 464.012 647.198 468.625 648.845C490.911 656.805 502.471 652.939 521.406 642.42C527.682 638.933 536.866 637.818 541.142 631.405C555.36 610.078 543.955 538.494 543.437 512.073C542.69 473.99 547.587 436.263 548.944 398.249C549.328 387.518 546.982 376.185 548.485 365.663" fill="none" opacity="1" stroke="#007aff" stroke-linecap="round" stroke-linejoin="round" stroke-width="10" vectornator:layerName="Curve 3"/>
<path d="M598.054 434.967C598.054 429.056 600.46 422.561 598.972 416.608C592.148 389.313 541.491 413.335 531.963 429.459C512.259 462.804 521.873 503.423 525.537 539.152C531.004 592.45 522.174 659.666 595.759 652.976C618.007 650.953 623.643 609.59 626.51 592.392C634.216 546.154 624.701 503.188 612.282 458.833C607.037 440.103 593.966 426.091 591.169 406.511" fill="none" opacity="1" stroke="#007aff" stroke-linecap="round" stroke-linejoin="round" stroke-width="10" vectornator:layerName="Curve 4"/>
<path d="M526.881 609.123C523.375 605.617 526.957 627.133 526.36 634.093C524.829 651.963 521.777 671.74 515.956 688.716C505.448 719.366 492.283 742.824 475.379 769.87C470.498 777.681 454.086 784.689 455.611 795.361C457.044 805.395 481.826 815.295 489.425 818.25C505.145 824.364 522.331 824.644 538.325 829.695C564.687 838.02 588.872 847.423 616.878 848.423C651.548 849.661 650.172 826.288 650.172 798.482C650.172 758.566 641.498 718.7 633.005 679.873C630.908 670.287 629.871 628.888 621.56 626.81" fill="none" opacity="1" stroke="#007aff" stroke-linecap="round" stroke-linejoin="round" stroke-width="10" vectornator:layerName="Curve 5"/>
<path d="M494.107 820.331C494.107 823.681 487.459 828.059 486.304 832.296C482.711 845.469 479.425 860.62 473.298 872.873C467.774 883.922 457.781 892.917 453.53 904.606C445.185 927.555 491.704 936.071 504.511 937.9C508.084 938.411 523.037 948.189 524.8 944.663C526.574 941.115 524.8 931.642 524.8 928.016C524.8 890.676 487.204 917.956 492.026 902.525C497.941 883.599 502.235 864.24 508.153 845.302C509.135 842.16 512.785 831.751 508.673 829.695" fill="none" opacity="1" stroke="#007aff" stroke-linecap="round" stroke-linejoin="round" stroke-width="10" vectornator:layerName="Curve 6"/>
<path d="M589.827 844.781C583.675 847.857 589.506 861.82 589.827 866.63C591.209 887.356 590.36 907.86 592.428 928.536C592.661 930.868 591.866 947.551 593.989 948.825C597.394 950.868 613.459 944.727 617.398 944.143C625.503 942.942 677.198 940.527 681.385 936.34C683.698 934.026 680.609 925.719 679.825 923.854C673.693 909.292 658.032 896.373 641.849 903.566C638.176 905.198 627.394 918.325 622.601 914.49C614.188 907.76 614.77 862.933 608.035 849.463" fill="none" opacity="1" stroke="#007aff" stroke-linecap="round" stroke-linejoin="round" stroke-width="10" vectornator:layerName="Curve 7"/>
<path d="M574.22 427.567C559.286 405.166 537.99 459.767 532.603 470.225C510.101 513.905 501.39 583.094 501.39 631.492C501.39 650.439 502.573 675.153 522.719 684.554C541.88 693.496 568.024 633.113 571.619 621.608C587.318 571.371 606.517 518.57 601.792 465.023C599.432 438.273 577.537 397.356 554.972 437.971" fill="none" opacity="1" stroke="#007aff" stroke-linecap="round" stroke-linejoin="round" stroke-width="10" vectornator:layerName="Curve 8"/>
<path d="M518.817 688.976C490.282 679.738 522.456 752.531 542.487 739.177C557.278 729.317 546.962 691.693 533.123 685.075C523.56 680.501 523.93 690.632 518.817 688.976Z" fill="none" opacity="1" stroke="#007aff" stroke-linecap="round" stroke-linejoin="round" stroke-width="10" vectornator:layerName="Curve 9"/>
<path d="M633.005 555.02C643.129 575.268 669.401 587.58 679.825 609.123C684.862 619.534 679.843 646.122 662.137 637.735C649.17 631.593 633.525 608.06 633.525 594.037" fill="none" opacity="1" stroke="#007aff" stroke-linecap="round" stroke-linejoin="round" stroke-width="10" vectornator:layerName="Curve 10"/>
<path d="M684.506 653.862C684.506 660.634 683.279 667.397 684.506 674.15C690.688 708.15 716.567 675.682 692.83 653.341C687.52 648.344 677.39 649.929 670.461 647.619" fill="none" opacity="1" stroke="#007aff" stroke-linecap="round" stroke-linejoin="round" stroke-width="10" vectornator:layerName="Curve 11"/>
<path d="M1349.93 726.911C1328.93 735.311 1311.17 755.624 1314.44 780.148C1316.25 793.714 1330.72 811.137 1345.88 807.527C1368.44 802.156 1393.3 772.857 1396.58 750.741C1402.88 708.183 1369.37 708.091 1345.37 733.503C1339.87 739.322 1331.39 746.441 1328.13 753.783" fill="none" opacity="1" stroke="#007aff" stroke-linecap="round" stroke-linejoin="round" stroke-width="10" vectornator:layerName="Curve 12"/>
<path d="M1297.2 799.922C1269.68 804.509 1233.41 797.889 1204.42 799.415C1165.46 801.466 1126.98 803.659 1096.93 830.85C1086.54 840.254 1071.36 852.212 1079.69 868.876C1086.15 881.783 1103.98 881.444 1116.2 883.073C1145.67 887.002 1175.63 890.222 1205.43 888.143C1234.94 886.084 1277.41 875.995 1299.23 854.173C1311.18 842.221 1313 818.233 1298.72 808.034C1292.25 803.413 1284.49 800.916 1277.43 797.387" fill="none" opacity="1" stroke="#007aff" stroke-linecap="round" stroke-linejoin="round" stroke-width="10" vectornator:layerName="Curve 13"/>
<path d="M1135.46 849.103C1135.04 849.383 1131.99 851.424 1131.41 851.131C1126.27 848.561 1133.5 839.243 1131.41 833.892C1126.23 820.656 1121.05 807.762 1116.2 794.345C1106.77 768.293 1079.47 676.514 1041.67 685.336C1017.27 691.029 1012.37 726.507 1009.72 746.178C1006.07 773.315 1001.04 800.23 997.049 827.301C995.156 840.13 997.776 860.829 991.978 872.426" fill="none" opacity="1" stroke="#007aff" stroke-linecap="round" stroke-linejoin="round" stroke-width="10" vectornator:layerName="Curve 31"/>
<path d="M1132.42 850.117C1123.42 859.12 1129.13 895.884 1106.56 875.975C1093.32 864.288 1079.24 826.395 1070.57 809.048C1066.13 800.182 1065.56 788.981 1060.93 780.655C1058.95 777.095 1054.83 775.036 1057.38 780.148" fill="none" opacity="1" stroke="#007aff" stroke-linecap="round" stroke-linejoin="round" stroke-width="10" vectornator:layerName="Curve 15"/>
<path d="M1056.88 783.19C1051.03 812.404 1048.75 840.525 1038.62 868.876C1038.6 868.936 1024.52 922.148 1021.89 906.396" fill="none" opacity="1" stroke="#007aff" stroke-linecap="round" stroke-linejoin="round" stroke-width="10" vectornator:layerName="Curve 16"/>
<path d="M1019.86 908.931C1015.81 912.98 996.492 909.245 990.457 910.452C981.977 912.148 956.423 921.247 948.375 918.564C939.755 915.691 946.247 877.951 952.938 872.933C966.395 862.84 989.95 860.967 989.95 883.58" fill="none" opacity="1" stroke="#007aff" stroke-linecap="round" stroke-linejoin="round" stroke-width="10" vectornator:layerName="Curve 32"/>
<path d="M1050.29 835.92C1061.76 847.396 1075.18 852.652 1091.35 852.652" fill="none" opacity="1" stroke="#007aff" stroke-linecap="round" stroke-linejoin="round" stroke-width="10" vectornator:layerName="Curve 18"/>
<path d="M1003.13 770.008C1003.13 770.634 993.066 764.576 990.457 763.417C988.648 762.612 986.805 761.875 984.937 761.193" fill="none" opacity="1" stroke="#007aff" stroke-linecap="round" stroke-linejoin="round" stroke-width="10" vectornator:layerName="Curve 37"/>
<path d="M854.576 887.129C824.971 857.524 796.851 914.076 808.945 926.17C823.664 940.888 861.73 926.768 878.913 922.62C880.481 922.242 897.02 916.39 897.673 917.043C898.697 918.068 892.376 917.437 891.589 917.043" fill="none" opacity="1" stroke="#007aff" stroke-linecap="round" stroke-linejoin="round" stroke-width="10" vectornator:layerName="Curve 34"/>
<path d="M892.096 926.677C892.096 927.468 898.212 913.919 900.208 910.452C906.215 900.018 914.74 892.429 921.503 882.566C938.962 857.104 967.401 813.104 1001.61 813.104" fill="none" opacity="1" stroke="#007aff" stroke-linecap="round" stroke-linejoin="round" stroke-width="10" vectornator:layerName="Curve 35"/>
<path d="M1293.15 810.062C1326.7 798.876 1380.86 862.283 1363.62 896.762C1354.86 914.286 1340.7 919.655 1326.61 930.226C1322.85 933.048 1320.1 939.001 1314.95 939.859C1303.94 941.693 1287.84 940.992 1277.94 945.943" fill="none" opacity="1" stroke="#007aff" stroke-linecap="round" stroke-linejoin="round" stroke-width="10" vectornator:layerName="Curve 22"/>
<path d="M1294.67 808.541C1278.3 797.631 1257.07 820.759 1260.19 837.948C1262.79 852.224 1284.22 864.45 1290.61 878.51C1291.53 880.522 1294.07 893.929 1291.63 892.706" fill="none" opacity="1" stroke="#007aff" stroke-linecap="round" stroke-linejoin="round" stroke-width="10" vectornator:layerName="Curve 23"/>
<path d="M1290.11 900.819C1277.3 913.625 1268.79 930.751 1255.63 943.915" fill="none" opacity="1" stroke="#007aff" stroke-linecap="round" stroke-linejoin="round" stroke-width="10" vectornator:layerName="Curve 24"/>
<path d="M1256.13 948.478C1260.22 954.61 1275.86 945.969 1280.47 943.408" fill="none" opacity="1" stroke="#007aff" stroke-linecap="round" stroke-linejoin="round" stroke-width="10" vectornator:layerName="Curve 25"/>
<path d="M1233.83 942.901C1227.35 948.202 1198.83 948.051 1195.8 966.224C1194.97 971.213 1212.36 971.801 1215.07 971.801C1226.83 971.801 1248.89 967.389 1257.66 958.619C1279.74 936.53 1250.45 929.297 1233.83 942.901Z" fill="none" opacity="1" stroke="#007aff" stroke-linecap="round" stroke-linejoin="round" stroke-width="10" vectornator:layerName="Curve 26"/>
<path d="M1279.96 797.387C1278.54 800.238 1273.21 790.978 1271.35 789.782C1265.66 786.126 1257.76 783.234 1251.06 782.176C1236.38 779.858 1220.33 782.333 1205.94 779.134C1204.34 778.778 1202.9 779.177 1202.9 777.613" fill="none" opacity="1" stroke="#007aff" stroke-linecap="round" stroke-linejoin="round" stroke-width="10" vectornator:layerName="Curve 27"/>
<path d="M1199.86 779.641C1195.02 777.225 1198.91 769.089 1189.72 766.966C1167.06 761.737 1141.37 786.254 1151.18 809.555C1157.58 824.761 1186.08 842.542 1200.87 848.089C1204.62 849.494 1219.14 853.622 1221.66 848.089C1226.74 836.897 1210.94 806.38 1205.94 796.373C1200.94 786.371 1191.19 779.548 1186.17 769.501" fill="none" opacity="1" stroke="#007aff" stroke-linecap="round" stroke-linejoin="round" stroke-width="10" vectornator:layerName="Curve 28"/>
<path d="M1219.38 854.933C1223.57 868.621 1249 871.61 1242.95 854.68C1239.83 845.938 1213.71 836.439 1219.38 854.933Z" fill="none" opacity="1" stroke="#007aff" stroke-linecap="round" stroke-linejoin="round" stroke-width="10" vectornator:layerName="Curve 29"/>
<path d="M872.963 895.218C868.369 886.031 895.725 853.889 901.18 845.1C911.757 828.059 920.238 808.496 934.03 793.719C940.095 787.221 948.364 784.059 955.088 778.557C959.615 774.854 962.679 768.869 968.986 768.028C981.029 766.423 994.667 774.906 1006.47 776.873" fill="none" opacity="1" stroke="#007aff" stroke-linecap="round" stroke-linejoin="round" stroke-width="10" vectornator:layerName="Curve 36"/>
<path d="M854.432 887.637C851.119 894.262 868.935 889.088 873.805 888.479" fill="none" opacity="1" stroke="#007aff" stroke-linecap="round" stroke-linejoin="round" stroke-width="10" vectornator:layerName="Curve 38"/>
<path d="M1366.69 703.928C1359.23 702.913 1362.01 690.285 1367.65 688.25C1373.79 686.032 1382.85 686.375 1388.57 689.434C1391.61 691.063 1393.62 694.096 1393.93 697.515C1393.98 698.111 1392.42 701.168 1391.7 700.179C1389.56 697.243 1404.18 693.87 1405.9 694.273C1413.2 695.986 1418 702.766 1421.7 708.823C1424.52 713.445 1420.71 719.177 1416.92 721.94C1415.52 722.961 1411.62 724.971 1411.89 723.258C1412.15 721.559 1421.01 723.083 1421.53 723.27C1431.78 726.967 1438.4 737.049 1431.93 747.221C1429.84 750.504 1426.53 752.744 1423.23 754.595C1421.57 755.529 1416.38 757.134 1418.26 757.431C1429.06 759.131 1435.88 773.435 1429.18 783.874C1424.24 791.566 1410.43 796.578 1402.25 790.187C1402.1 790.072 1401.48 788.561 1401.65 788.283C1404.93 782.768 1423.03 797.718 1398.42 804.961C1379.99 810.384 1371.52 787.092 1375.16 772.654C1375.93 769.609 1384.94 768 1384.45 771.102C1384.17 772.855 1379.46 772.073 1378.58 771.987C1371.83 771.327 1367.2 765.397 1367.1 758.721C1366.99 750.797 1372.19 743.918 1378.79 740.057C1379.32 739.744 1382.34 738.914 1382.7 740.071C1382.94 740.806 1376.06 740.829 1375.95 740.817C1368.24 739.959 1358.39 735.976 1355.03 728.174C1353.73 725.156 1349.08 713.591 1351.99 711.111C1354.9 708.63 1358.3 705.624 1362.06 704.557C1362.9 704.321 1367.8 704.08 1366.69 703.928Z" fill="none" opacity="1" stroke="#007aff" stroke-linecap="round" stroke-linejoin="round" stroke-width="10" vectornator:layerName="Curve 39"/>
</g>
<g id="Priest" vectornator:layerName="Priest">
<path d="M93.3883 63.4568C93.3883 63.4568 17.3871 322.45 25.4359 410.644C69.3957 424.346 70.0616 432.619 125.584 416.231C153.344 332.668 136.8 89.4581 136.8 89.4581L93.3883 63.4568Z" fill="#829735" fill-rule="nonzero" opacity="1" stroke="#150b14" stroke-linecap="butt" stroke-linejoin="round" stroke-width="10" vectornator:layerName="Curve 4"/>
<path d="M88.5263 63.4568L189.217 47.6757C189.217 47.6757 171.119 18.2184 132.955 21.0324C94.7918 23.8465 88.5263 63.4568 88.5263 63.4568Z" fill="#829735" fill-rule="nonzero" opacity="1" stroke="#150b14" stroke-linecap="butt" stroke-linejoin="round" stroke-width="10" vectornator:layerName="Curve 3"/>
<path d="M93.9905 56.6935C93.9905 56.6935 82.9232 154.249 155.68 145.436C228.437 136.623 180.684 47.6757 180.684 47.6757L93.9905 56.6935Z" fill="#c9b09a" fill-rule="nonzero" opacity="1" stroke="#150b14" stroke-linecap="round" stroke-linejoin="round" stroke-width="10" vectornator:layerName="Curve 1"/>
<path d="M183.154 324.98C154.347 258.641 140.265 200.837 151.701 195.871C163.137 190.905 195.76 240.658 224.568 306.997C253.375 373.336 267.457 431.14 256.021 436.106C244.585 441.072 211.962 391.319 183.154 324.98Z" fill="#436557" fill-rule="nonzero" opacity="1" stroke="#150b14" stroke-linecap="butt" stroke-linejoin="round" stroke-width="10" vectornator:layerName="Oval 3"/>
<path d="M77.7117 67.7607C79.4929 83.0004 206.75 62.5903 201.588 47.6757C196.068 31.7258 75.8671 51.9796 77.7117 67.7607Z" fill="#b76f57" fill-rule="nonzero" opacity="1" stroke="#150b14" stroke-linecap="butt" stroke-linejoin="round" stroke-width="10" vectornator:layerName="Curve 2"/>
<path d="M79.9529 587.575L31.1597 701.693C31.1597 701.693 97.2834 738.938 105.016 728.622C123.414 704.081 80.7528 687.561 80.7528 687.561L102.616 596.374L79.9529 587.575Z" fill="#c9b09a" fill-rule="nonzero" opacity="1" stroke="#150b14" stroke-linecap="butt" stroke-linejoin="round" stroke-width="10" vectornator:layerName="Curve 7"/>
<path d="M164.446 608.871L178.365 732.199C178.365 732.199 254.256 731.935 255.887 719.147C259.767 688.722 214.513 695.422 214.513 695.422L188.498 605.331L164.446 608.871Z" fill="#c9b09a" fill-rule="nonzero" opacity="1" stroke="#150b14" stroke-linecap="butt" stroke-linejoin="round" stroke-width="10" vectornator:layerName="Curve 6"/>
<path d="M100.947 321.238C100.947 248.328 126.619 189.223 158.286 189.223C189.953 189.223 215.625 248.328 215.625 321.238C215.625 394.149 189.953 453.254 158.286 453.254C126.619 453.254 100.947 394.149 100.947 321.238Z" fill="#436557" fill-rule="nonzero" opacity="1" stroke="#150b14" stroke-linecap="butt" stroke-linejoin="round" stroke-width="10" vectornator:layerName="Oval 1"/>
<path d="M130.61 418.425C130.61 418.425 46.0881 525.819 37.8226 578.136C88.5263 620.92 194.77 637.159 231.18 616.523C242.429 559.165 201.741 408.293 201.741 408.293L130.61 418.425Z" fill="#058785" fill-rule="nonzero" opacity="1" stroke="#150b14" stroke-linecap="butt" stroke-linejoin="round" stroke-width="10" vectornator:layerName="Curve 5"/>
<path d="M96.9582 325.483C108.794 249.171 133.177 189.601 151.419 192.43C169.66 195.259 174.853 259.416 163.017 335.729C151.18 412.041 126.798 471.611 108.556 468.781C90.3146 465.952 85.122 401.795 96.9582 325.483Z" fill="#436557" fill-rule="nonzero" opacity="1" stroke="#150b14" stroke-linecap="butt" stroke-linejoin="round" stroke-width="10" vectornator:layerName="Oval 2"/>
<path d="M88.5263 487.345C88.5263 472.842 96.2161 461.086 105.702 461.086C115.188 461.086 122.877 472.842 122.877 487.345C122.877 501.848 115.188 513.605 105.702 513.605C96.2161 513.605 88.5263 501.848 88.5263 487.345Z" fill="#c9b09a" fill-rule="nonzero" opacity="1" stroke="#150b14" stroke-linecap="butt" stroke-linejoin="round" stroke-width="10" vectornator:layerName="Oval 4"/>
<path d="M252.512 455.855C246.993 443.623 247.069 431.653 252.683 429.12C258.298 426.586 267.323 434.448 272.843 446.68C278.363 458.912 278.286 470.882 272.672 473.415C267.058 475.949 258.032 468.086 252.512 455.855Z" fill="#c9b09a" fill-rule="nonzero" opacity="1" stroke="#150b14" stroke-linecap="butt" stroke-linejoin="round" stroke-width="10" vectornator:layerName="Oval 5"/>
<path d="M976.092 507.406C957.961 487.345 907.983 517.338 895.052 539.135C882.12 560.932 903.433 598.104 936.703 587.575C974.757 575.532 986.386 518.796 976.092 507.406Z" fill="#c9b09a" fill-rule="nonzero" opacity="1" stroke="#150b14" stroke-linecap="butt" stroke-linejoin="round" stroke-width="10" vectornator:layerName="Curve 8"/>
<path d="M924.726 517.597C930.266 517.206 935.311 520.486 940.766 521.014C942.477 521.179 947.559 520.028 945.892 520.444C940.377 521.823 936.675 519.671 931.275 518.546C929.33 518.141 923.378 517.692 924.726 517.597Z" fill="none" opacity="1" stroke="#3f2065" stroke-linecap="round" stroke-linejoin="round" stroke-width="10" vectornator:layerName="Curve 14"/>
<path d="M739.537 564.77C744.761 551.907 774.413 551.801 805.765 564.535C837.118 577.269 858.299 598.019 853.075 610.883C847.85 623.746 818.199 623.851 786.846 611.118C755.494 598.384 734.312 577.633 739.537 564.77Z" fill="#c9b09a" fill-rule="nonzero" opacity="1" stroke="#150b14" stroke-linecap="butt" stroke-linejoin="round" stroke-width="10" vectornator:layerName="Oval 7"/>
<path d="M950.229 491.142C950.229 491.142 923.832 498.741 923.299 505.007C922.766 511.273 948.096 516.205 948.096 516.205C948.096 516.205 931.298 533.336 934.764 539.935C938.23 546.534 961.96 542.602 961.96 542.602C961.96 542.602 944.296 563.932 948.096 568.998C951.895 574.064 977.158 562.865 977.158 562.865C977.158 562.865 986.957 588.595 990.756 586.062C994.556 583.529 992.356 552.733 992.356 552.733C992.356 552.733 1015.22 553.933 1014.49 547.934C1013.75 541.935 989.423 528.737 989.423 528.737C989.423 528.737 1011.95 514.805 1009.15 507.673C1006.35 500.541 978.225 500.207 978.225 500.207C978.225 500.207 985.157 477.077 981.424 474.344C977.692 471.611 963.294 489.276 963.294 489.276C963.294 489.276 946.829 471.211 943.563 471.678C940.297 472.145 950.229 491.142 950.229 491.142Z" fill="#6f3a1a" fill-rule="nonzero" opacity="1" stroke="#150b14" stroke-linecap="butt" stroke-linejoin="round" stroke-width="10" vectornator:layerName="Curve 9"/>
<path d="M658.486 643.11C654.692 617.095 705.921 588.087 772.907 578.32C839.894 568.553 897.272 581.724 901.066 607.74C904.859 633.755 853.631 662.763 786.644 672.53C719.657 682.297 662.279 669.126 658.486 643.11Z" fill="#c9b09a" fill-rule="nonzero" opacity="1" stroke="#150b14" stroke-linecap="butt" stroke-linejoin="round" stroke-width="10" vectornator:layerName="Oval 6"/>
<path d="M766.415 636.141C763.755 637.303 766.238 640.038 768.598 640.982C771.007 641.945 774.389 639.829 777.14 640.222C785.272 641.384 790.617 642.88 797.83 646.486C798.475 646.809 798.969 646.975 799.728 646.866C801.55 646.606 804.055 629.356 803.525 626.175C802.243 618.482 796.373 638.493 794.034 639.273C789.703 640.717 784.676 636.258 781.126 635.667C777.503 635.063 768.425 635.263 766.415 636.141Z" fill="none" opacity="1" stroke="#ff3333" stroke-linecap="round" stroke-linejoin="round" stroke-width="10" vectornator:layerName="Curve 18"/>
<path d="M620.775 646.737C578.147 630.751 548.296 605.244 554.101 589.765C559.906 574.287 599.168 574.698 641.796 590.685C684.424 606.671 714.275 632.179 708.47 647.657C702.665 663.135 663.403 662.724 620.775 646.737Z" fill="#c9b09a" fill-rule="nonzero" opacity="1" stroke="#150b14" stroke-linecap="butt" stroke-linejoin="round" stroke-width="10" vectornator:layerName="Oval 13"/>
<path d="M738.693 598.27C732.631 580.108 734.718 563.047 743.355 560.165C751.991 557.283 763.906 569.67 769.967 587.833C776.029 605.996 773.941 623.056 765.305 625.938C756.669 628.821 744.754 616.433 738.693 598.27Z" fill="#c9b09a" fill-rule="nonzero" opacity="1" stroke="#150b14" stroke-linecap="butt" stroke-linejoin="round" stroke-width="10" vectornator:layerName="Oval 8"/>
<path d="M757.085 620.92C757.085 613.063 767.244 606.694 779.776 606.694C792.307 606.694 802.467 613.063 802.467 620.92C802.467 628.777 792.307 635.146 779.776 635.146C767.244 635.146 757.085 628.777 757.085 620.92Z" fill="#c9b09a" fill-rule="nonzero" opacity="1" stroke="#150b14" stroke-linecap="butt" stroke-linejoin="round" stroke-width="10" vectornator:layerName="Oval 9"/>
<path d="M870.198 659.658C855.31 627.826 854.216 596.888 867.756 590.555C881.295 584.222 904.341 604.893 919.23 636.725C934.118 668.556 935.212 699.495 921.672 705.828C908.133 712.161 885.087 691.49 870.198 659.658Z" fill="#c9b09a" fill-rule="nonzero" opacity="1" stroke="#150b14" stroke-linecap="butt" stroke-linejoin="round" stroke-width="10" vectornator:layerName="Oval 10"/>
<path d="M829.506 733.458C824.429 722.037 843.082 702.658 871.167 690.174C899.253 677.691 926.136 676.829 931.213 688.25C936.289 699.672 917.637 719.05 889.551 731.534C861.466 744.018 834.582 744.879 829.506 733.458Z" fill="#c9b09a" fill-rule="nonzero" opacity="1" stroke="#150b14" stroke-linecap="butt" stroke-linejoin="round" stroke-width="10" vectornator:layerName="Oval 11"/>
<path d="M664.182 630.086C664.182 603.742 680.085 582.387 699.703 582.387C719.32 582.387 735.224 603.742 735.224 630.086C735.224 656.429 719.32 677.785 699.703 677.785C680.085 677.785 664.182 656.429 664.182 630.086Z" fill="#ffffff" fill-rule="nonzero" opacity="1" stroke="#150b14" stroke-linecap="butt" stroke-linejoin="round" stroke-width="10" vectornator:layerName="Oval 15"/>
<path d="M796.208 748.817C794.074 741.854 803.295 732.853 816.804 728.714C830.312 724.574 842.993 726.863 845.127 733.826C847.261 740.789 838.039 749.79 824.531 753.929C811.022 758.069 798.341 755.78 796.208 748.817Z" fill="#c9b09a" fill-rule="nonzero" opacity="1" stroke="#150b14" stroke-linecap="butt" stroke-linejoin="round" stroke-width="10" vectornator:layerName="Oval 12"/>
<path d="M653.757 600.846C636.624 557.588 634.131 518.006 648.189 512.438C662.247 506.87 687.534 537.424 704.667 580.682C721.801 623.94 724.294 663.522 710.236 669.09C696.177 674.659 670.891 644.105 653.757 600.846Z" fill="#c9b09a" fill-rule="nonzero" opacity="1" stroke="#150b14" stroke-linecap="butt" stroke-linejoin="round" stroke-width="10" vectornator:layerName="Oval 14"/>
<path d="M582.227 579.383C550.865 563.277 453.61 696.685 453.61 696.685C453.61 696.685 430.941 667.878 412.064 699.422C408.052 706.128 469.68 723.497 469.68 723.497C469.68 723.497 616.723 597.098 582.227 579.383Z" fill="#c9b09a" fill-rule="nonzero" opacity="1" stroke="#150b14" stroke-linecap="butt" stroke-linejoin="round" stroke-width="10" vectornator:layerName="Curve 12"/>
<path d="M651.525 511.804C616.33 513.864 600.332 678.181 600.332 678.181C600.332 678.181 566.172 664.884 565.937 701.644C565.887 709.459 627.795 693.112 627.795 693.112C627.795 693.112 690.237 509.538 651.525 511.804Z" fill="#c9b09a" fill-rule="nonzero" opacity="1" stroke="#150b14" stroke-linecap="butt" stroke-linejoin="round" stroke-width="10" vectornator:layerName="Curve 11"/>
<path d="M916.279 558.409C922.762 556.968 917.552 561.091 920.265 564.483C921.958 566.599 926.008 565.495 928.048 567.331C931.559 570.49 934.363 578.171 936.97 582.516" fill="none" opacity="1" stroke="#ff3333" stroke-linecap="round" stroke-linejoin="round" stroke-width="10" vectornator:layerName="Curve 13"/>
<path d="M886.857 639.463C890.539 638.538 893.714 621.81 887.616 621.81C869.769 621.81 888.586 656.179 896.728 652.561C903.335 649.624 895.25 643.38 892.551 642.121C890.336 641.087 883.482 642.383 885.338 640.792C886.22 640.036 886.332 639.595 886.857 639.463Z" fill="#3f2065" fill-rule="nonzero" opacity="1" stroke="#3f2065" stroke-linecap="round" stroke-linejoin="round" stroke-width="10" vectornator:layerName="Curve 15"/>
<path d="M818.616 589.635C818.578 593.141 830.503 590.817 833.327 595.994C839.607 607.508 831.222 619.754 832.378 630.731C833.03 636.925 843.833 640.491 837.313 642.121C820.9 646.224 813.245 629.202 819.28 615.925C820.918 612.321 824.654 610.255 825.354 606.054C826.006 602.143 822.386 597.978 820.039 595.045C819.215 594.014 818.619 589.284 818.616 589.635Z" fill="#3f2065" fill-rule="nonzero" opacity="1" stroke="#3f2065" stroke-linecap="round" stroke-linejoin="round" stroke-width="10" vectornator:layerName="Curve 16"/>
<path d="M676.619 604.881C675.843 607.371 678.79 597.284 676.92 595.414C673.461 591.955 668.204 598.142 668.204 601.424C668.204 609.993 709.546 638.822 700.361 648.007C692.767 655.602 682.717 621.709 680.526 616.451C679.482 613.947 677.576 611.262 676.92 608.637C676.555 607.179 677.753 602.879 676.92 604.129C676.407 604.898 676.933 603.872 676.619 604.881Z" fill="#3f2065" fill-rule="nonzero" opacity="1" stroke="#3f2065" stroke-linecap="round" stroke-linejoin="round" stroke-width="10" vectornator:layerName="Curve 19"/>
<path d="M633.042 569.718C627.421 566.072 610.191 647.541 627.933 609.839C629.454 606.607 630.369 603.702 631.239 600.222C632.25 596.177 632.798 592.639 633.042 588.502C633.408 582.276 638.128 573.018 633.042 569.718Z" fill="#3f2065" fill-rule="nonzero" opacity="1" stroke="#3f2065" stroke-linecap="round" stroke-linejoin="round" stroke-width="10" vectornator:layerName="Curve 20"/>
<path d="M496.6 664.386C495.728 663.954 494.573 663.63 494.195 662.733C493.974 662.207 502.468 654.202 502.911 653.717C508.264 647.854 521.697 622.762 531.161 622.762C531.354 622.762 527.157 629.978 526.954 630.276C524.725 633.533 522.271 636.634 520.041 639.893C515.559 646.444 501.836 666.981 496.6 664.386Z" fill="#3f2065" fill-rule="nonzero" opacity="1" stroke="#3f2065" stroke-linecap="round" stroke-linejoin="round" stroke-width="10" vectornator:layerName="Curve 21"/>
</g>
</svg>
