<?xml version="1.0" encoding="UTF-8" standalone="no"?>
<!DOCTYPE svg PUBLIC "-//W3C//DTD SVG 1.1//EN" "http://www.w3.org/Graphics/SVG/1.1/DTD/svg11.dtd">
<!-- Created with Vectornator (http://vectornator.io/) -->
<svg height="100%" stroke-miterlimit="10" style="fill-rule:nonzero;clip-rule:evenodd;stroke-linecap:round;stroke-linejoin:round;" version="1.1" viewBox="0 0 1920 1080" width="100%" xml:space="preserve" xmlns="http://www.w3.org/2000/svg" xmlns:vectornator="http://vectornator.io" xmlns:xlink="http://www.w3.org/1999/xlink">
<defs/>
<g id="Sketch" vectornator:layerName="Sketch" visibility="hidden">
<path d="M745.911 330.49C745.911 348.575 758.378 331.697 761.188 323.87C768.027 304.818 782.217 226.127 737.763 244.431C689.767 264.195 671.344 343.66 673.602 389.56C674.327 404.301 678.16 429.679 695.498 434.88C712.887 440.097 722.343 416.925 730.125 406.364C753.701 374.369 752.866 321.367 757.114 283.132" fill="none" opacity="1" stroke="#007aff" stroke-linecap="round" stroke-linejoin="round" stroke-width="10" vectornator:layerName="Curve 1"/>
<path d="M756.095 326.416C753.842 327.543 754.708 326.688 756.605 330.999C762.918 345.347 779.832 362.304 777.992 378.866C776.853 389.115 752.9 381.813 747.439 380.903C744.383 380.394 735.175 379.375 738.273 379.375" fill="none" opacity="1" stroke="#007aff" stroke-linecap="round" stroke-linejoin="round" stroke-width="10" vectornator:layerName="Curve 2"/>
<path d="M745.911 327.944C734.181 334.646 755.759 337.746 761.188 334.054C768.085 329.364 773.478 316.304 774.937 308.593C775.473 305.758 776.008 302.616 774.937 299.937C766.168 278.015 725.27 317.499 747.439 324.888C773.9 333.709 796.304 276.256 760.678 272.439C748.466 271.13 735.441 294.495 748.966 300.446C771.428 310.329 784.529 263.414 766.28 246.468C751.189 232.456 728.989 264.163 743.874 271.929C760.888 280.806 777.067 252.364 767.298 239.339C742.005 205.614 707.144 267.998 735.217 277.022C757.697 284.247 773.209 231.485 738.273 227.118C714.833 224.188 693.319 271.953 715.358 276.512C749.811 283.641 757.068 207.244 729.107 218.97C703.274 229.803 715.052 274.649 742.346 273.966C745.26 273.893 767.17 271.289 765.771 264.291C763.664 253.756 742.389 254.377 739.291 264.291C737.213 270.942 746.17 330.186 749.985 332.017C765.84 339.628 797.113 273.445 772.391 274.475C754.972 275.201 750.978 321.591 774.427 316.232C798.873 310.644 801.853 269.82 786.649 254.616C768.26 236.228 764.36 284.278 788.176 271.929C811.639 259.764 797.417 229.126 779.01 220.498C754.961 209.225 750.83 252.486 763.225 246.977C784.133 237.685 770.855 208.862 750.494 211.841C726.799 215.309 724.333 255.629 742.856 248.505C773.998 236.527 740.112 202.179 720.959 217.952C713.985 223.695 712.036 235.591 710.775 243.413C709.906 248.799 709.049 254.256 709.247 259.708C710.499 294.134 741.943 263.853 730.634 251.56C700.287 218.575 656.686 289.6 685.823 315.722C703.636 331.692 726.33 279.833 686.841 285.169C660.732 288.697 670.385 342.177 694.48 337.619C724.273 331.982 718.663 288.997 689.897 285.678C652.417 281.354 655.82 364.521 679.203 370.209C702.837 375.958 707.494 330.973 690.406 321.833C663.846 307.627 636.202 361.064 660.362 378.866C674.809 389.511 690.002 373.153 697.535 362.571C716.858 335.426 713.127 299.959 699.572 270.911C696.307 263.915 686.128 314.964 702.118 316.741C730.201 319.861 746.916 257.226 715.358 259.199C701.122 260.089 696.673 295.283 721.978 281.605C725.173 279.877 727.749 277.191 730.634 274.985" fill="none" opacity="1" stroke="#007aff" stroke-linecap="round" stroke-linejoin="round" stroke-width="10" vectornator:layerName="Curve 3"/>
<path d="M717.904 467.98C718.096 468.364 717.859 458.769 714.848 455.758C711.281 452.191 701.93 452.233 697.535 454.231C682.488 461.07 671.141 489.079 663.926 502.607C645.36 537.419 641.725 589.383 648.14 627.875C648.972 632.863 650.52 663.861 657.306 664.539C685.385 667.347 710.707 637.308 713.83 613.108C719.444 569.6 717.395 521.555 717.395 477.655C717.395 470.478 712.812 464.01 712.812 456.777" fill="none" opacity="1" stroke="#007aff" stroke-linecap="round" stroke-linejoin="round" stroke-width="10" vectornator:layerName="Curve 4"/>
<path d="M665.454 665.558C665.454 676.573 716.493 663.873 724.014 661.993C739.389 658.149 753.79 650.779 769.335 647.226C791.541 642.15 818.431 642.166 807.527 614.126C788.292 564.665 683.361 595.328 657.816 626.348C647.016 639.461 654.598 674.214 675.129 674.214" fill="none" opacity="1" stroke="#007aff" stroke-linecap="round" stroke-linejoin="round" stroke-width="10" vectornator:layerName="Curve 5"/>
<path d="M810.837 613.617C810.627 612.361 809.629 616.005 808.545 616.672C804.92 618.903 806.281 608.142 803.453 604.96C799.786 600.835 784.081 594.299 780.029 600.377C758.771 632.265 753.806 691.29 781.047 720.044C787.171 726.509 790.046 732.423 799.888 732.775C808.784 733.093 818.645 724.92 826.877 722.081C848.524 714.617 854.79 724.289 851.32 693.056C849.039 672.529 835.662 644.693 822.294 628.894C819.624 625.738 815.915 621.989 814.147 618.2C813.189 616.148 814.323 610.089 812.619 611.58C810.844 613.133 811.186 615.71 810.837 613.617Z" fill="none" opacity="1" stroke="#007aff" stroke-linecap="round" stroke-linejoin="round" stroke-width="10" vectornator:layerName="Curve 6"/>
<path d="M812.11 736.339C814.996 747.883 821.911 758.232 824.84 769.948" fill="none" opacity="1" stroke="#007aff" stroke-linecap="round" stroke-linejoin="round" stroke-width="10" vectornator:layerName="Curve 7"/>
<path d="M833.497 727.173C845.222 734.99 843.664 754.145 852.848 763.328C854.277 764.757 894.149 751.451 887.475 771.476C881.66 788.919 857.964 780.268 845.209 778.605C843.788 778.419 820.817 775.575 825.859 778.096" fill="none" opacity="1" stroke="#007aff" stroke-linecap="round" stroke-linejoin="round" stroke-width="10" vectornator:layerName="Curve 8"/>
<path d="M794.287 587.647C807.492 596.45 838.939 571.987 851.829 589.174C868.755 611.742 872.494 652.974 874.235 680.834C874.506 685.175 878.017 706.684 875.253 710.369C873.531 712.665 855.463 708.768 852.848 708.332" fill="none" opacity="1" stroke="#007aff" stroke-linecap="round" stroke-linejoin="round" stroke-width="10" vectornator:layerName="Curve 10"/>
<path d="M755.332 765.11C759.56 758.543 752.564 751.273 751.003 743.469C744.957 713.24 740.038 700.197 708.229 694.583C696.258 692.471 683.87 693.607 672.583 687.963C656.144 679.744 635.506 662.076 615.55 666.067C588.603 671.456 569.047 698.051 544.768 708.841C534.337 713.478 524.085 704.65 514.215 703.24C501.813 701.468 478.533 709.012 471.441 720.044C465.871 728.709 462.683 743.048 461.765 753.144C461.472 756.365 457.075 794.283 457.182 794.391C462.125 799.334 481.486 795.359 487.226 794.9C507.802 793.254 531.347 793.178 551.898 795.918C570.42 798.388 580.645 811.392 601.801 806.103C626.559 799.913 649.422 783.346 675.129 780.132C706.151 776.255 738.757 790.854 755.332 765.11Z" fill="none" opacity="1" stroke="#007aff" stroke-linecap="round" stroke-linejoin="round" stroke-width="10" vectornator:layerName="Curve 11"/>
<path d="M705.428 459.832C685.333 449.47 669.677 498.711 671.565 513.81C675.124 542.284 704.461 571.576 730.634 582.045C742.602 586.832 800.584 590.408 810.073 584.082C810.81 583.591 810.702 581.749 810.582 581.027C809.145 572.404 804.69 554.929 800.398 547.418C792.562 533.705 771.127 535.855 761.188 525.012C753.634 516.772 750.707 507.063 745.402 497.514C735.746 480.134 719.714 467.199 705.428 459.832Z" fill="none" opacity="1" stroke="#007aff" stroke-linecap="round" stroke-linejoin="round" stroke-width="10" vectornator:layerName="Curve 12"/>
<path d="M809.564 555.566C809.564 563.165 870.124 550.094 860.995 582.045C856.244 598.673 810.582 561.663 810.582 584.082" fill="none" opacity="1" stroke="#007aff" stroke-linecap="round" stroke-linejoin="round" stroke-width="10" vectornator:layerName="Curve 13"/>
<path d="M716.376 455.249C716.376 461.694 766.283 459.152 772.391 457.795C810.825 449.254 834.034 411.2 875.253 408.91C886.284 408.297 909.395 411.707 913.445 425.205C917.61 439.088 903.429 448.26 895.622 456.777C872.721 481.76 826.469 496.04 793.269 494.459C781.752 493.911 756.283 492.046 749.985 504.644" fill="none" opacity="1" stroke="#007aff" stroke-linecap="round" stroke-linejoin="round" stroke-width="10" vectornator:layerName="Curve 14"/>
<path d="M914.973 420.622C923.044 417.932 931.604 410.212 939.415 408.91C953.701 406.529 967.85 406.893 982.19 403.309C989.702 401.43 992.619 392.106 1002.56 392.106C1011.08 392.106 1006.13 409.794 1002.56 412.474C980.989 428.651 958.298 428.756 933.814 436.408C927.81 438.284 914.463 440.727 914.463 449.138" fill="none" opacity="1" stroke="#007aff" stroke-linecap="round" stroke-linejoin="round" stroke-width="10" vectornator:layerName="Curve 15"/>
<path d="M1409.34 499.576C1418.57 471.886 1385.29 462.28 1368.5 481.307C1332.88 521.677 1324.82 616.021 1329.28 667.219C1331.14 688.699 1350.02 721.319 1374.95 723.1C1395.47 724.566 1408.85 684.408 1410.41 668.831C1414.45 628.443 1414.71 589.938 1414.71 549.547C1414.71 524.396 1418.05 497.327 1403.43 475.397" fill="none" opacity="1" stroke="#007aff" stroke-linecap="round" stroke-linejoin="round" stroke-width="10" vectornator:layerName="Curve 16"/>
<path d="M1409.34 682.801C1398.89 675.836 1393.55 664.081 1386.23 654.323C1376.63 641.518 1363.24 631.448 1351.31 621.01C1334.77 606.538 1316.05 591.646 1295.42 583.398C1283.07 578.455 1264.63 589.459 1261.57 601.666C1255.9 624.373 1268.91 653.654 1281.45 672.055C1297.67 695.833 1323.57 728.988 1352.92 736.533C1379.18 743.286 1407.83 720.625 1403.96 693.548C1402.99 686.725 1397.93 668.462 1396.44 662.383C1394.05 652.654 1393.16 641.026 1389.45 631.756" fill="none" opacity="1" stroke="#007aff" stroke-linecap="round" stroke-linejoin="round" stroke-width="10" vectornator:layerName="Curve 17"/>
<path d="M1285.48 588.233C1299.2 580.909 1281.41 585.08 1276.08 589.845C1265.36 599.434 1255.68 610.51 1246.53 621.547C1225.1 647.388 1210.31 676.874 1204.62 710.204C1203.61 716.12 1199.23 754.944 1206.23 757.488C1214.86 760.625 1230.38 749.078 1236.86 744.593C1258.98 729.274 1267.5 704.957 1278.77 681.727C1284.48 669.937 1292.95 659.441 1295.42 646.264C1298.42 630.272 1294.67 620.526 1287.36 607.039C1284.12 601.048 1283.64 599.712 1283.07 593.069C1282.86 590.722 1279.71 585.513 1281.99 586.084C1284.64 586.746 1284.14 588.951 1285.48 588.233Z" fill="none" opacity="1" stroke="#007aff" stroke-linecap="round" stroke-linejoin="round" stroke-width="10" vectornator:layerName="Curve 18"/>
<path d="M1204.62 755.876C1204.62 784.593 1138.6 771.61 1151.42 797.25C1153.4 801.207 1174.27 799.89 1177.21 799.399C1187.87 797.623 1209.92 794.009 1217.51 784.891C1221.39 780.235 1221.23 771.537 1224.5 766.085" fill="none" opacity="1" stroke="#007aff" stroke-linecap="round" stroke-linejoin="round" stroke-width="10" vectornator:layerName="Curve 19"/>
<path d="M1298.65 702.682C1290.67 697.364 1279.49 702.109 1270.17 698.383" fill="none" opacity="1" stroke="#007aff" stroke-linecap="round" stroke-linejoin="round" stroke-width="10" vectornator:layerName="Curve 20"/>
<path d="M1244.38 622.084C1246.87 620.84 1234.07 621.01 1232.56 621.01C1227.89 621.01 1224.25 620.901 1219.66 619.935C1204.61 616.767 1182.53 608.431 1171.84 623.696C1169.2 627.473 1158.96 681.034 1160.02 682.801C1165.32 691.626 1194.05 689.068 1203.01 693.548" fill="none" opacity="1" stroke="#007aff" stroke-linecap="round" stroke-linejoin="round" stroke-width="10" vectornator:layerName="Curve 21"/>
<path d="M1201.39 620.472C1181.29 620.472 1141.97 686.331 1137.45 703.757C1135.14 712.661 1130.03 735.128 1142.83 738.682C1176.86 748.136 1209.61 665.836 1204.62 640.89C1201.32 624.421 1184.06 618.689 1175.6 633.905" fill="none" opacity="1" stroke="#007aff" stroke-linecap="round" stroke-linejoin="round" stroke-width="10" vectornator:layerName="Curve 22"/>
<path d="M1134.23 745.667C1131.46 747.052 1130.49 755.327 1126.71 758.026C1120.5 762.457 1084.85 767.261 1092.86 783.28C1094.7 786.967 1116.07 784.426 1119.72 783.817C1147.43 779.198 1151.96 772.424 1151.96 744.055" fill="none" opacity="1" stroke="#007aff" stroke-linecap="round" stroke-linejoin="round" stroke-width="10" vectornator:layerName="Curve 23"/>
<path d="M1413.63 369.545C1413.63 353.599 1389.03 336.658 1375.48 350.202C1358.22 367.462 1347.7 463.156 1392.68 454.979C1400.74 453.514 1410.85 433.461 1413.63 427.038C1422.4 406.807 1429.51 331.602 1392.68 335.694C1358.48 339.494 1346.13 443.582 1372.26 452.292" fill="none" opacity="1" stroke="#007aff" stroke-linecap="round" stroke-linejoin="round" stroke-width="10" vectornator:layerName="Curve 24"/>
<path d="M1362.05 388.351C1357.5 389.868 1338.62 421.019 1341.63 423.277C1345.42 426.113 1360.32 418.581 1363.66 417.366" fill="none" opacity="1" stroke="#007aff" stroke-linecap="round" stroke-linejoin="round" stroke-width="10" vectornator:layerName="Curve 25"/>
<path d="M1401.28 480.233C1401.48 476.001 1396.12 491.658 1392.68 496.352C1386.3 505.054 1374.17 513.037 1364.2 517.307C1349.07 523.792 1279.3 555.993 1279.3 574.8C1279.3 608.299 1351.75 572.48 1362.59 567.278C1408.09 545.439 1399.44 517.787 1401.28 480.233Z" fill="none" opacity="1" stroke="#007aff" stroke-linecap="round" stroke-linejoin="round" stroke-width="10" vectornator:layerName="Curve 26"/>
<path d="M1277.16 572.651C1270 570.266 1247.48 577.523 1250.29 588.771C1252.15 596.193 1273.27 585.671 1275.54 583.398" fill="none" opacity="1" stroke="#007aff" stroke-linecap="round" stroke-linejoin="round" stroke-width="10" vectornator:layerName="Curve 27"/>
<path d="M1374.95 472.71C1368.4 466.166 1350.55 473.864 1341.1 474.859C1312.02 477.92 1275.05 487.996 1254.59 510.86C1248.58 517.576 1214.95 551.256 1228.26 561.905C1235.47 567.67 1249.41 562.979 1257.81 562.979" fill="none" opacity="1" stroke="#007aff" stroke-linecap="round" stroke-linejoin="round" stroke-width="10" vectornator:layerName="Curve 28"/>
<path d="M1226.38 573.994C1225.48 567.318 1224.35 579.845 1229.33 584.472C1231.81 586.767 1254.05 589.085 1254.05 585.009C1254.05 577.607 1227.24 580.429 1226.38 573.994Z" fill="none" opacity="1" stroke="#007aff" stroke-linecap="round" stroke-linejoin="round" stroke-width="10" vectornator:layerName="Curve 29"/>
<path d="M1356.68 360.411C1356.3 360.219 1373.82 362.934 1377.1 363.097C1391.13 363.799 1408.05 359.46 1417.93 348.59C1418.9 347.521 1421.42 345.365 1420.08 344.829C1406.96 339.578 1375.4 337.254 1362.05 341.067C1359.72 341.734 1346.89 343.948 1348.62 349.127C1352.41 360.49 1398.38 357.961 1407.72 354.5C1416.65 351.195 1413.43 352.607 1419.54 347.515C1420.73 346.529 1424.85 344.829 1423.31 344.829C1406.67 344.829 1389.89 341.88 1372.8 340.53C1368.87 340.22 1359.21 336.465 1360.98 339.993C1361.77 341.571 1364.2 341.426 1365.81 342.142" fill="none" opacity="1" stroke="#007aff" stroke-linecap="round" stroke-linejoin="round" stroke-width="10" vectornator:layerName="Curve 30"/>
<path d="M1362.59 337.306C1354.61 321.357 1415.15 316.053 1421.16 334.082" fill="none" opacity="1" stroke="#007aff" stroke-linecap="round" stroke-linejoin="round" stroke-width="10" vectornator:layerName="Curve 31"/>
<path d="M1430.29 351.814C1430.29 360.137 1440.6 369.896 1441.57 380.292C1445.83 425.657 1452.86 472.162 1443.72 517.845C1439.64 538.279 1433.04 558.195 1431.37 579.099C1431 583.653 1423.31 606.452 1423.31 602.741" fill="none" opacity="1" stroke="#007aff" stroke-linecap="round" stroke-linejoin="round" stroke-width="10" vectornator:layerName="Curve 32"/>
<path d="M1378.17 370.083C1381.72 371.855 1385.35 370.287 1388.92 372.232C1425.64 392.26 1429.38 498.949 1424.38 535.576C1421.24 558.596 1411.74 585.526 1422.77 607.577" fill="none" opacity="1" stroke="#007aff" stroke-linecap="round" stroke-linejoin="round" stroke-width="10" vectornator:layerName="Curve 33"/>
<path d="M1443.72 425.964C1447.69 449.774 1443.89 473.983 1444.8 497.964C1445.88 526.526 1453.82 554.075 1454.47 582.86C1454.52 585.171 1456.01 612.457 1453.4 614.025C1449.26 616.505 1423.74 618.645 1429.75 615.637" fill="none" opacity="1" stroke="#007aff" stroke-linecap="round" stroke-linejoin="round" stroke-width="10" vectornator:layerName="Curve 34"/>
</g>
<g id="Rock" vectornator:layerName="Rock">
<path d="M484.61 769.932L617.425 778.344L796.122 748.533L764.628 664.237C708.505 645.081 661.676 650.967 661.676 650.967C661.676 650.967 619.72 630.785 571.046 642.251C528.8 652.203 493.885 695.528 493.885 695.528L484.61 769.932Z" fill="#9c9ca3" fill-rule="nonzero" opacity="1" stroke="#000002" stroke-linecap="butt" stroke-linejoin="round" stroke-width="10" vectornator:layerName="Curve 1"/>
</g>
<g id="Lawyer" vectornator:layerName="Lawyer">
<path d="M1285.23 496.291C1262.88 462.876 1177.8 553.585 1177.8 553.585C1177.8 553.585 1070.65 604.603 1106.69 623.594C1127.51 634.56 1197.39 583.541 1197.39 583.541C1197.39 583.541 1310.33 533.824 1285.23 496.291Z" fill="#b76f57" fill-rule="nonzero" opacity="1" stroke="#000002" stroke-linecap="butt" stroke-linejoin="round" stroke-width="10" vectornator:layerName="Curve 11"/>
<path d="M1238.23 408.076C1238.23 408.076 1206.59 444.052 1218.96 443.189C1231.33 442.325 1244.1 438.573 1244.1 438.573L1238.23 408.076Z" fill="#c9b09a" fill-rule="nonzero" opacity="1" stroke="#000002" stroke-linecap="butt" stroke-linejoin="round" stroke-width="10" vectornator:layerName="Curve 1"/>
<path d="M1237.21 412.317C1240.81 378.577 1258.53 352.804 1276.79 354.753C1295.06 356.701 1306.94 385.633 1303.34 419.373C1299.74 453.114 1282.02 478.886 1263.76 476.938C1245.49 474.989 1233.61 446.058 1237.21 412.317Z" fill="#c9b09a" fill-rule="nonzero" opacity="1" stroke="#000002" stroke-linecap="butt" stroke-linejoin="round" stroke-width="10" vectornator:layerName="Oval 1"/>
<path d="M1243.05 359.161C1243.05 359.161 1227.09 363.542 1226.17 367.874C1225.26 372.207 1239.4 376.493 1239.4 376.493L1307.84 374.215C1307.84 374.215 1317.94 371.297 1316.48 367.177C1315.02 363.058 1302.02 357.738 1302.02 357.738L1243.05 359.161Z" fill="#9ba61c" fill-rule="nonzero" opacity="1" stroke="#000002" stroke-linecap="butt" stroke-linejoin="round" stroke-width="10" vectornator:layerName="Curve 2"/>
<path d="M1243.76 357.432C1243.76 357.432 1226.1 341.853 1270.99 341.797C1315.88 341.741 1303.06 356.06 1303.06 356.06L1243.76 357.432Z" fill="#dfd8c5" fill-rule="nonzero" opacity="1" stroke="#000002" stroke-linecap="butt" stroke-linejoin="round" stroke-width="10" vectornator:layerName="Curve 3"/>
<path d="M1155.81 720.448L1190.82 720.337L1187.61 678.679L1145.72 689.409L1155.81 720.448Z" fill="#9d521b" fill-rule="nonzero" opacity="1" stroke="#000002" stroke-linecap="butt" stroke-linejoin="round" stroke-width="10" vectornator:layerName="Curve 6"/>
<path d="M1284.85 375.11C1284.85 375.11 1316.4 507.815 1311.67 635.478L1335.99 633.727C1340.38 436.906 1309.08 374.352 1309.08 374.352L1284.85 375.11Z" fill="#dfd8c5" fill-rule="nonzero" opacity="1" stroke="#000002" stroke-linecap="butt" stroke-linejoin="round" stroke-width="10" vectornator:layerName="Curve 4"/>
<path d="M1169.15 603.116C1141.16 602.412 1041.37 764.056 1095.59 776.948C1126.23 784.232 1165.36 696.493 1165.36 696.493C1165.36 696.493 1245.69 779.134 1282.68 742.232C1319.46 705.532 1209.12 604.121 1169.15 603.116Z" fill="#9d521b" fill-rule="nonzero" opacity="1" stroke="#000002" stroke-linecap="butt" stroke-linejoin="round" stroke-width="10" vectornator:layerName="Curve 5"/>
<path d="M1126.68 642.638C1126.68 642.638 1092.49 627.268 1068.21 640.24C1034.51 658.238 1001.56 751.955 1026.38 757.91C1051.26 763.877 1076.42 710.194 1076.42 710.194L1086.43 713.259L1126.68 642.638Z" fill="#9d521b" fill-rule="nonzero" opacity="1" stroke="#000002" stroke-linecap="butt" stroke-linejoin="round" stroke-width="10" vectornator:layerName="Curve 7"/>
<path d="M1270.62 489.008C1328.79 489.045 1313.26 773.759 1272.64 768.327L1237.65 768.438C1194.77 779.684 1224.86 488.979 1270.62 489.008Z" fill="#b76f57" fill-rule="nonzero" opacity="1" stroke="#000002" stroke-linecap="butt" stroke-linejoin="round" stroke-width="10" vectornator:layerName="Curve 8"/>
<path d="M1034.7 757.175L1032.08 800.755L976.244 804.92C973.18 773.212 1009.33 788.553 1009.33 788.553L1019.97 755.687L1034.7 757.175Z" fill="#c9b09a" fill-rule="nonzero" opacity="1" stroke="#000002" stroke-linecap="butt" stroke-linejoin="round" stroke-width="10" vectornator:layerName="Curve 9"/>
<path d="M1107.17 774.744L1093.49 816.21L1045.02 818.511C1041.49 789.801 1079.87 801.949 1079.87 801.949L1088.45 772.655L1107.17 774.744Z" fill="#c9b09a" fill-rule="nonzero" opacity="1" stroke="#000002" stroke-linecap="butt" stroke-linejoin="round" stroke-width="10" vectornator:layerName="Curve 10"/>
<path d="M1093.99 615.658C1101.7 608.176 1110.83 605.074 1114.37 608.73C1117.92 612.386 1114.54 621.415 1106.83 628.898C1099.11 636.38 1089.98 639.482 1086.44 635.826C1082.89 632.17 1086.27 623.14 1093.99 615.658Z" fill="#c9b09a" fill-rule="nonzero" opacity="1" stroke="#000002" stroke-linecap="butt" stroke-linejoin="round" stroke-width="8.74018" vectornator:layerName="Oval 2"/>
<path d="M1164.7 598.149C1174.84 594.418 1184.53 595.362 1186.33 600.258C1188.13 605.154 1181.36 612.147 1171.22 615.878C1161.08 619.609 1151.39 618.665 1149.59 613.769C1147.79 608.874 1154.55 601.88 1164.7 598.149Z" fill="#c9b09a" fill-rule="nonzero" opacity="1" stroke="#000002" stroke-linecap="butt" stroke-linejoin="round" stroke-width="8.74018" vectornator:layerName="Oval 3"/>
<path d="M1279.98 494.511C1248.58 485.719 1241.05 576.055 1241.05 576.055C1241.05 576.055 1177.36 576.256 1174.09 598.495C1168.77 634.748 1267.27 615.134 1267.27 615.134C1267.27 615.134 1317.06 504.894 1279.98 494.511Z" fill="#b76f57" fill-rule="nonzero" opacity="1" stroke="#000002" stroke-linecap="butt" stroke-linejoin="round" stroke-width="8.74018" vectornator:layerName="Curve 12"/>
</g>
<g id="Jesus" vectornator:layerName="Jesus">
<path d="M697.191 338.862C706.849 289.864 729.226 253.011 747.171 256.548C765.116 260.085 771.833 302.673 762.175 351.671C752.517 400.669 730.141 437.523 712.196 433.986C694.251 430.449 687.533 387.86 697.191 338.862Z" fill="#bda27c" fill-rule="nonzero" opacity="1" stroke="#000002" stroke-linecap="butt" stroke-linejoin="round" stroke-width="10" vectornator:layerName="Oval 1"/>
<path d="M766.981 332.353C766.981 332.353 806.102 385.267 791.123 386.513C776.145 387.759 756.952 382.725 756.952 382.725L766.981 332.353Z" fill="#bda27c" fill-rule="nonzero" opacity="1" stroke="#000002" stroke-linecap="butt" stroke-linejoin="round" stroke-width="10" vectornator:layerName="Curve 1"/>
<path d="M908.075 446.077C908.075 446.077 1001.14 430.512 1004.18 399.09C991.461 391.978 982.408 409.786 967.958 409.832L934.98 411.438C934.98 411.438 912.696 412.717 908.955 426.284C921.531 429.811 908.075 446.077 908.075 446.077Z" fill="#bda27c" fill-rule="nonzero" opacity="1" stroke="#000002" stroke-linecap="butt" stroke-linejoin="round" stroke-width="10" vectornator:layerName="Curve 4"/>
<path d="M766.541 293.357C766.541 293.357 785.031 287.305 785.306 279.514C785.581 271.722 771.458 259.181 771.458 259.181C771.458 259.181 781.827 245.29 776.191 239.69C770.555 234.089 748.639 244.571 748.639 244.571C748.639 244.571 737.793 232.394 729.34 236.241C720.887 240.089 720.509 256.389 720.509 256.389C720.509 256.389 696.004 253.501 691.463 262.43C686.921 271.359 696.936 287.883 696.936 287.883C696.936 287.883 679.853 286.738 677.484 295.735C675.115 304.732 692.574 317.262 692.574 317.262C692.574 317.262 676.972 323.423 674.304 332.645C671.637 341.868 692.683 352.006 692.683 352.006C692.683 352.006 709.922 354.137 710.582 339.034L715.296 313.594C715.296 313.594 731.631 315.041 738.36 310.825C745.089 306.609 743.991 291.031 743.991 291.031L766.541 293.357Z" fill="#402217" fill-rule="nonzero" opacity="1" stroke="#000002" stroke-linecap="butt" stroke-linejoin="round" stroke-width="10" vectornator:layerName="Curve 2"/>
<path d="M717.029 452.702C703.518 451.491 658.468 509.742 661.5 574.756C664.532 639.769 665.901 675.261 685.042 668.918C704.184 662.575 729.807 619.774 731.221 570.138C732.635 520.503 763.977 498.415 773.391 495.245C782.805 492.074 842.193 498.169 876.056 478.587C909.92 459.004 929.952 436.325 929.295 427.217C929.295 427.217 922.31 403.68 890.28 406.922C858.25 410.164 812.435 449.598 799.017 453.386C745.167 468.589 745.113 451.36 717.029 452.702Z" fill="#dfd8c5" fill-rule="nonzero" opacity="1" stroke="#000002" stroke-linecap="butt" stroke-linejoin="round" stroke-width="10" vectornator:layerName="Curve 3"/>
<path d="M880.548 707.681L892.34 747.737C892.34 747.737 925.54 730.706 930.366 762.554L870.691 769.594L850.203 709.248L880.548 707.681Z" fill="#bda27c" fill-rule="nonzero" opacity="1" stroke="#000002" stroke-linecap="butt" stroke-linejoin="round" stroke-width="10" vectornator:layerName="Curve 10"/>
<path d="M803.85 591.584C803.85 591.584 829.303 570.422 860.366 583.239C902.386 615.104 890.597 706.907 890.597 706.907L863.837 712.726C871.169 644.539 803.85 591.584 803.85 591.584Z" fill="#dfd8c5" fill-rule="nonzero" opacity="1" stroke="#000002" stroke-linecap="butt" stroke-linejoin="round" stroke-width="10" vectornator:layerName="Curve 8"/>
<path d="M685.358 669.631C685.358 669.631 735.475 669.473 777.639 646.952C767.82 698.952 813.393 729.139 813.393 729.139L863.602 712.961C863.602 712.961 870.935 645.081 800.391 590.338C771.929 578.065 729.412 594.331 729.412 594.331C730.63 645.524 685.358 669.631 685.358 669.631Z" fill="#dfd8c5" fill-rule="nonzero" opacity="1" stroke="#000002" stroke-linecap="butt" stroke-linejoin="round" stroke-width="10" vectornator:layerName="Curve 7"/>
<path d="M819.442 555.097C819.442 555.097 890.273 553.599 872.616 582.886L826.414 574.864L819.442 555.097Z" fill="#bda27c" fill-rule="nonzero" opacity="1" stroke="#000002" stroke-linecap="butt" stroke-linejoin="round" stroke-width="10" vectornator:layerName="Curve 6"/>
<path d="M822.971 578.645C822.971 578.645 828.809 537.162 780.091 527.892C757.331 503.095 751.295 453.944 715.781 455.219C691.971 450.425 684.851 508.717 684.851 508.717C693.349 563.432 731.995 578.191 751.7 582.732C793.173 589.647 822.971 578.645 822.971 578.645Z" fill="#dfd8c5" fill-rule="nonzero" opacity="1" stroke="#000002" stroke-linecap="butt" stroke-linejoin="round" stroke-width="10" vectornator:layerName="Curve 5"/>
<path d="M825.327 728.159L841.808 774.597C841.808 774.597 895.434 771.601 902.098 767.81C902.786 742.05 866.805 751.251 866.805 751.251L855.419 716.681L825.327 728.159Z" fill="#bda27c" fill-rule="nonzero" opacity="1" stroke="#000002" stroke-linecap="butt" stroke-linejoin="round" stroke-width="10" vectornator:layerName="Curve 9"/>
</g>
</svg>
