<?xml version="1.0" encoding="UTF-8" standalone="no"?>
<!DOCTYPE svg PUBLIC "-//W3C//DTD SVG 1.1//EN" "http://www.w3.org/Graphics/SVG/1.1/DTD/svg11.dtd">
<!-- Created with Vectornator (http://vectornator.io/) -->
<svg height="100%" stroke-miterlimit="10" style="fill-rule:nonzero;clip-rule:evenodd;stroke-linecap:round;stroke-linejoin:round;" version="1.1" viewBox="0 0 1920 1080" width="100%" xml:space="preserve" xmlns="http://www.w3.org/2000/svg" xmlns:vectornator="http://vectornator.io" xmlns:xlink="http://www.w3.org/1999/xlink">
<defs/>
<path d="M0 0L1920 0L1920 1080L0 1080L0 0Z" fill="#ffffff" fill-rule="nonzero" opacity="1" stroke="none"/>
<g id="Layer-1" vectornator:layerName="Layer 1" visibility="hidden">
<path d="M1198.67 284.429C1169.79 290.552 1050.51 452.798 1127.95 452.798C1215.54 452.798 1308.01 208.837 1178.96 306.55C1168.94 314.136 1159.49 326.079 1151.14 336.045" fill="none" opacity="1" stroke="#007aff" stroke-linecap="round" stroke-linejoin="round" stroke-width="10" vectornator:layerName="Curve 1"/>
<path d="M1138.38 306.55C1128.79 301.467 1119.7 261.562 1109.4 251.246C1098.76 240.594 1075.72 241.304 1068.82 226.667" fill="none" opacity="1" stroke="#007aff" stroke-linecap="round" stroke-linejoin="round" stroke-width="10" vectornator:layerName="Curve 2"/>
<path d="M1017.81 281.971C1006.32 275.881 1035.86 301.396 1045.63 310.237C1068.5 330.927 1088.97 355.197 1114.04 372.915" fill="none" opacity="1" stroke="#007aff" stroke-linecap="round" stroke-linejoin="round" stroke-width="10" vectornator:layerName="Curve 3"/>
<path d="M1057.23 229.125C1033.81 229.125 1029.88 197.274 1014.33 179.966C1000.54 164.617 981.509 149.214 964.477 138.181C916.205 106.911 864.448 68.5049 810.28 49.6952C720.784 18.6174 615.92 37.0764 528.552 66.9008C504.112 75.2439 429.568 86.6448 414.934 109.915" fill="none" opacity="1" stroke="#007aff" stroke-linecap="round" stroke-linejoin="round" stroke-width="10" vectornator:layerName="Curve 4"/>
<path d="M998.099 295.489C932.744 226.211 860.4 205.387 773.18 175.05C656.444 134.447 536.881 97.5604 414.934 134.494" fill="none" opacity="1" stroke="#007aff" stroke-linecap="round" stroke-linejoin="round" stroke-width="10" vectornator:layerName="Curve 5"/>
<path d="M920.421 86.5643C926.026 89.5353 941.886 75.4002 954.043 79.1905C983.357 88.3299 1051.94 133.956 1020.13 167.676" fill="none" opacity="1" stroke="#007aff" stroke-linecap="round" stroke-linejoin="round" stroke-width="10" vectornator:layerName="Curve 6"/>
<path d="M855.496 221.751C842.975 213.787 824.676 265.84 818.396 275.826C789.312 322.07 750.783 366.782 716.371 408.555C621.147 524.147 523.079 638.91 436.962 762.498C375.152 851.203 327.745 953.301 263.056 1039.02" fill="none" opacity="1" stroke="#007aff" stroke-linecap="round" stroke-linejoin="round" stroke-width="10" vectornator:layerName="Curve 7"/>
<path d="M969.115 264.765C949.4 264.765 929.142 308.948 916.943 322.527C883.64 359.594 846.508 392.989 812.599 429.447C682.657 569.158 562.137 732.879 455.512 892.769C431.102 929.373 331.504 1132.51 271.171 1004.61" fill="none" opacity="1" stroke="#007aff" stroke-linecap="round" stroke-linejoin="round" stroke-width="10" vectornator:layerName="Curve 8"/>
<path d="M752.489 969.532C861.616 940.612 969.207 912.265 1082.43 906.891C1196.27 901.488 1307.14 921.208 1420.57 924.291C1500.8 926.472 1577.48 909.363 1656.94 905.151" fill="none" opacity="1" stroke="#007aff" stroke-linecap="round" stroke-linejoin="round" stroke-width="10" vectornator:layerName="Curve 9"/>
<path d="M1241.65 833.81C1225.41 833.81 1264.72 937.487 1240.01 898.191" fill="none" opacity="1" stroke="#007aff" stroke-linecap="round" stroke-linejoin="round" stroke-width="10" vectornator:layerName="Curve 10"/>
<path d="M1202.25 820.76C1209.68 813.304 1271.76 797.57 1290.89 807.71C1296.37 810.613 1255.29 823.118 1253.14 823.37C1220.57 827.207 1175.85 847.286 1202.25 820.76Z" fill="none" opacity="1" stroke="#007aff" stroke-linecap="round" stroke-linejoin="round" stroke-width="10" vectornator:layerName="Curve 11"/>
</g>
<g id="Layer-2" vectornator:layerName="Layer 2">
<path d="M936.386 102.606C945.88 89.3145 964.35 86.2357 977.642 95.7292L1007.72 117.216C1021.02 126.709 1024.09 145.18 1014.6 158.471L397.679 1022.19C388.185 1035.48 369.715 1038.56 356.424 1029.07L326.341 1007.58C313.05 998.088 309.971 979.618 319.465 966.326L936.386 102.606Z" fill="#9f7257" fill-rule="nonzero" opacity="1" stroke="#150b14" stroke-linecap="butt" stroke-linejoin="round" stroke-width="10" vectornator:layerName="Rectangle 1"/>
<path d="M1138.38 391.672C778.111 14.0703 414.934 119.277 414.934 119.277C414.934 119.277 572.227 4.848 772.455 52.2625C972.683 99.677 1194.26 326.978 1194.26 326.978L1138.38 391.672Z" fill="#757a7e" fill-rule="nonzero" opacity="1" stroke="#150b14" stroke-linecap="butt" stroke-linejoin="round" stroke-width="10" vectornator:layerName="Curve 1"/>
<path d="M1139.42 349.169C1176.78 300.688 1222.06 272.94 1240.55 287.194C1259.05 301.448 1243.76 352.306 1206.4 400.788C1169.04 449.269 1123.76 477.016 1105.26 462.762C1086.77 448.508 1102.06 397.651 1139.42 349.169Z" fill="#757a7e" fill-rule="nonzero" opacity="1" stroke="#150b14" stroke-linecap="butt" stroke-linejoin="round" stroke-width="10" vectornator:layerName="Oval 1"/>
<path d="M796.181 907.083L1700.64 907.083L1700.64 976.587L796.181 976.587L796.181 907.083Z" fill="#9f7257" fill-rule="nonzero" opacity="1" stroke="#150b14" stroke-linecap="butt" stroke-linejoin="round" stroke-width="10" vectornator:layerName="Rectangle 2"/>
<path d="M1184.59 823.807C1183.76 819.769 1209.16 811.15 1241.33 804.556C1273.49 797.962 1300.24 795.89 1301.07 799.928C1301.89 803.967 1276.49 812.586 1244.33 819.18C1212.16 825.774 1185.42 827.846 1184.59 823.807Z" fill="#757a7e" fill-rule="nonzero" opacity="1" stroke="#150b14" stroke-linecap="butt" stroke-linejoin="round" stroke-width="10" vectornator:layerName="Oval 2"/>
<path d="M1245.85 820.074L1260.59 907.203" fill="none" opacity="1" stroke="#150b14" stroke-linecap="butt" stroke-linejoin="round" stroke-width="10" vectornator:layerName="Curve 2"/>
</g>
</svg>
