<?xml version="1.0" encoding="UTF-8" standalone="no" ?>
<!DOCTYPE svg PUBLIC "-//W3C//DTD SVG 1.1//EN" "http://www.w3.org/Graphics/SVG/1.1/DTD/svg11.dtd">
<svg xmlns="http://www.w3.org/2000/svg" xmlns:xlink="http://www.w3.org/1999/xlink" version="1.1" width="3cm" height="3cm" viewBox="0 0 14.17323 14.17323" xml:space="preserve">
<desc>Created with Fabric.js 5.3.0</desc>
<defs>
</defs>
<g transform="matrix(0.9996596823 0 0 0.9996596823 7.0842049547 7.0842049547)" id="O4nxk35ZOlrp8-vmj3WCQ"  >
<path style="stroke: rgb(0,0,0); stroke-width: 0; stroke-dasharray: none; stroke-linecap: butt; stroke-dashoffset: 0; stroke-linejoin: miter; stroke-miterlimit: 4; fill: rgb(255,255,255); fill-rule: nonzero; opacity: 1;"  transform=" translate(0, 0)" d="M -7.07718 -7.07718 L 7.07718 -7.07718 L 7.07718 7.07718 L -7.07718 7.07718 z" stroke-linecap="round" />
</g>
<g transform="matrix(1 0 0 1 3.3719861489 4.6154726067)" id="bdRsaHqDJbQ-XyOAb7KN0"  >
<path style="stroke: rgb(0,0,0); stroke-width: 0; stroke-dasharray: none; stroke-linecap: butt; stroke-dashoffset: 0; stroke-linejoin: miter; stroke-miterlimit: 4; fill: rgb(132,228,204); fill-rule: nonzero; opacity: 1;"  transform=" translate(0, 0)" d="M -1.82555 3.12455 L -1.9123 -3.1245399999999997 L 1.9123099999999997 -0.2559199999999997 L 1.3612799999999998 3.1245600000000002 z" stroke-linecap="round" />
</g>
<g transform="matrix(1 0 0 1 5.4145986953 2.7259866929)" id="dngu6VVi4C47VvjmZSY_8"  >
<path style="stroke: rgb(0,0,0); stroke-width: 0; stroke-dasharray: none; stroke-linecap: butt; stroke-dashoffset: 0; stroke-linejoin: miter; stroke-miterlimit: 4; fill: rgb(179,237,221); fill-rule: nonzero; opacity: 1;"  transform=" translate(0, 0)" d="M -4.05894 -1.49208 L 4.05893 -1.49082 C 4.05893 -1.49082 0.9044000000000003 -0.82892 -0.16256999999999966 1.4920799999999999 z" stroke-linecap="round" />
</g>
<g transform="matrix(1.059025053 0 0 0.9307831556 11.4997519461 11.539828582)" id="VXdbuXmYBBuO3T4NqdLXo"  >
<path style="stroke: rgb(0,0,0); stroke-width: 0; stroke-dasharray: none; stroke-linecap: butt; stroke-dashoffset: 0; stroke-linejoin: miter; stroke-miterlimit: 4; fill: rgb(98,136,57); fill-rule: nonzero; opacity: 1;"  transform=" translate(0, 0)" d="M -1.43431 -1.43431 L 1.43431 -1.43431 L 1.43431 1.43431 L -1.43431 1.43431 z" stroke-linecap="round" />
</g>
<g transform="matrix(1.9593890798 0 0 0.9307831556 7.5436307731 11.6352591869)" id="jVEL_fA1GVeIaxDhSWVF0"  >
<path style="stroke: rgb(0,0,0); stroke-width: 0; stroke-dasharray: none; stroke-linecap: butt; stroke-dashoffset: 0; stroke-linejoin: miter; stroke-miterlimit: 4; fill: rgb(52,113,39); fill-rule: nonzero; opacity: 1;"  transform=" translate(0, 0)" d="M -1.43431 -1.43431 L 1.43431 -1.43431 L 1.43431 1.43431 L -1.43431 1.43431 z" stroke-linecap="round" />
</g>
<g transform="matrix(1.059025053 0 0 0.9307831556 2.9786490463 11.5398281023)" id="y6zuKMy8-3R77e-0t4Jt3"  >
<path style="stroke: rgb(0,0,0); stroke-width: 0; stroke-dasharray: none; stroke-linecap: butt; stroke-dashoffset: 0; stroke-linejoin: miter; stroke-miterlimit: 4; fill: rgb(15,67,29); fill-rule: nonzero; opacity: 1;"  transform=" translate(0, 0)" d="M -1.43431 -1.43431 L 1.43431 -1.43431 L 1.43431 1.43431 L -1.43431 1.43431 z" stroke-linecap="round" />
</g>
<g transform="matrix(1.059025053 0 0 0.9307831556 3.0654021961 8.9651964907)" id="c3ipuXM4CSO85TLK8f2bN"  >
<path style="stroke: rgb(0,0,0); stroke-width: 0; stroke-dasharray: none; stroke-linecap: butt; stroke-dashoffset: 0; stroke-linejoin: miter; stroke-miterlimit: 4; fill: rgb(73,212,187); fill-rule: nonzero; opacity: 1;"  transform=" translate(0, 0)" d="M -1.43431 -1.43431 L 1.43431 -1.43431 L 1.43431 1.43431 L -1.43431 1.43431 z" stroke-linecap="round" />
</g>
<g transform="matrix(0.7301194645 0 0 0.9307831556 5.631590069 8.9651964907)" id="CHdnuH9YtAWFL6FqmddzX"  >
<path style="stroke: rgb(0,0,0); stroke-width: 0; stroke-dasharray: none; stroke-linecap: butt; stroke-dashoffset: 0; stroke-linejoin: miter; stroke-miterlimit: 4; fill: rgb(39,113,105); fill-rule: nonzero; opacity: 1;"  transform=" translate(0, 0)" d="M -1.43431 -1.43431 L 1.43431 -1.43431 L 1.43431 1.43431 L -1.43431 1.43431 z" stroke-linecap="round" />
</g>
<g transform="matrix(0.7932809756 0 0 0.7932809756 7.4185849849 6.8234284289)" id="m40A2BMnFXcmhjbaIvNU0"  >
<path style="stroke: rgb(0,0,0); stroke-width: 1; stroke-dasharray: none; stroke-linecap: butt; stroke-dashoffset: 0; stroke-linejoin: miter; stroke-miterlimit: 4; fill: rgb(203,163,130); fill-rule: nonzero; opacity: 1;"  transform=" translate(0, 0.000005)" d="M 3.49341 -3.09599 L 3.49341 -4.53151 C 3.49341 -4.53151 -2.4508 -4.0282599999999995 -3.49341 1.1464100000000004 L -0.8936600000000001 1.1464100000000004 L -0.8936600000000001 4.5315 L 3.4934099999999995 4.5315 z" stroke-linecap="round" />
</g>
<g transform="matrix(0.7932809756 0 0 0.7932809756 11.4002253609 2.4658424741)" id="ayUHsFIjM4jItnXU5MBj2"  >
<path style="stroke: rgb(0,0,0); stroke-width: 1; stroke-dasharray: none; stroke-linecap: butt; stroke-dashoffset: 0; stroke-linejoin: miter; stroke-miterlimit: 4; fill: rgb(255,255,255); fill-opacity: 0; fill-rule: nonzero; opacity: 1;"  transform=" translate(0, 0.000005)" d="M -1.68828 1.05188 L 1.68828 -1.05189" stroke-linecap="round" />
</g>
<g transform="matrix(0.7932809756 0 0 0.7932809756 2.9786490463 7.7400195543)" id="MakkyX7Wk0o8l3uiXhNOb"  >
<path style="stroke: rgb(0,0,0); stroke-width: 1; stroke-dasharray: none; stroke-linecap: butt; stroke-dashoffset: 0; stroke-linejoin: miter; stroke-miterlimit: 4; fill: rgb(255,255,255); fill-opacity: 0; fill-rule: nonzero; opacity: 1;"  transform=" translate(0.000005, 0)" d="M 2.08546 0 L -2.0854700000000004 0" stroke-linecap="round" />
</g>
<g transform="matrix(0.7932809756 0 0 0.7932809756 4.733259422 10.300227599)" id="KlJf16N_U1ZLqC99ZCM_e"  >
<path style="stroke: rgb(0,0,0); stroke-width: 1; stroke-dasharray: none; stroke-linecap: butt; stroke-dashoffset: 0; stroke-linejoin: miter; stroke-miterlimit: 4; fill: rgb(255,255,255); fill-opacity: 0; fill-rule: nonzero; opacity: 1;"  transform=" translate(0, 0.000005)" d="M 0 -3.22737 L 0 3.2273599999999996" stroke-linecap="round" />
</g>
<g transform="matrix(0.7932809756 0 0 0.7932809756 3.9740097216 10.4181842491)" id="p3VIJ-wHDKcczbwjGrcy2"  >
<path style="stroke: rgb(0,0,0); stroke-width: 1; stroke-dasharray: none; stroke-linecap: butt; stroke-dashoffset: 0; stroke-linejoin: miter; stroke-miterlimit: 4; fill: rgb(255,255,255); fill-opacity: 0; fill-rule: nonzero; opacity: 1;"  transform=" translate(0.000005, 0)" d="M 3.1055 0 L -3.1055099999999998 0" stroke-linecap="round" />
</g>
<g transform="matrix(0.7932809756 0 0 0.7932809756 11.5588900818 10.4181842491)" id="VbkCSD0sVM9ce0hFB7hrn"  >
<path style="stroke: rgb(0,0,0); stroke-width: 1; stroke-dasharray: none; stroke-linecap: butt; stroke-dashoffset: 0; stroke-linejoin: miter; stroke-miterlimit: 4; fill: rgb(255,255,255); fill-opacity: 0; fill-rule: nonzero; opacity: 1;"  transform=" translate(0.000005, 0)" d="M -1.48935 0 L 1.4893399999999999 0" stroke-linecap="round" />
</g>
<g transform="matrix(0.7932809756 0 0 0.7932809756 8.7367592047 4.6852841171)" id="_58SNXaet6AJd2Zn1rd7J"  >
<path style="stroke: rgb(0,0,0); stroke-width: 1; stroke-dasharray: none; stroke-linecap: butt; stroke-dashoffset: 0; stroke-linejoin: miter; stroke-miterlimit: 4; fill: rgb(255,255,255); fill-opacity: 0; fill-rule: nonzero; opacity: 1;"  transform=" translate(-0.0000011256, 0)" d="M 5.04689 -3.85076 C -0.8243799999999997 -3.7854300000000003 -5.07374 -3.6549500000000004 -5.04676 3.85076" stroke-linecap="round" />
</g>
<g transform="matrix(0.7932809756 0 0 0.7932809756 12.740360361 6.0243664644)" id="qdTef3nweaQTwmGLN7IB9"  >
<path style="stroke: rgb(0,0,0); stroke-width: 1; stroke-dasharray: none; stroke-linecap: butt; stroke-dashoffset: 0; stroke-linejoin: miter; stroke-miterlimit: 4; fill: rgb(255,255,255); fill-opacity: 0; fill-rule: nonzero; opacity: 1;"  transform=" translate(0, 0)" d="M 0 -5.53879 L 0 5.53879" stroke-linecap="round" />
</g>
<g transform="matrix(0.7932809756 0 0 0.7932809756 3.364051576 2.9835694545)" id="JG4xyXadjrc6o9ARCF4s6"  >
<path style="stroke: rgb(0,0,0); stroke-width: 1; stroke-dasharray: none; stroke-linecap: butt; stroke-dashoffset: 0; stroke-linejoin: miter; stroke-miterlimit: 4; fill: rgb(255,255,255); fill-opacity: 0; fill-rule: nonzero; opacity: 1;"  transform=" translate(0.000005, 0)" d="M -2.33609 -1.70401 L 2.3360800000000004 1.70401" stroke-linecap="round" />
</g>
<g transform="matrix(0.7932809756 0 0 0.7932809756 10.2111714217 11.639107087)" id="ee-BfXOmUjHUW88wbicHE"  >
<path style="stroke: rgb(0,0,0); stroke-width: 1; stroke-dasharray: none; stroke-linecap: butt; stroke-dashoffset: 0; stroke-linejoin: miter; stroke-miterlimit: 4; fill: rgb(255,255,255); fill-opacity: 0; fill-rule: nonzero; opacity: 1;"  transform=" translate(0, 0)" d="M 0 -1.53908 L 0 1.53908" stroke-linecap="round" />
</g>
<g transform="matrix(0.9304719536 0 0 0.9304719536 7.1604773216 7.001258487)" id="0Vnn3Uzk7jqrDPJ79Frut"  >
<path style="stroke: rgb(0,0,0); stroke-width: 0.73701; stroke-dasharray: none; stroke-linecap: butt; stroke-dashoffset: 0; stroke-linejoin: miter; stroke-miterlimit: 4; fill: none; fill-rule: nonzero; opacity: 1;"  transform=" translate(0, 0)" d="M -6.1713 -6.1713 L 6.1713 -6.1713 L 6.1713 6.1713 L -6.1713 6.1713 z" stroke-linecap="round" />
</g>
<g transform="matrix(1 0 0 1 10.8540021242 2.9835694545)" id="5c1gNKIo6nOqUdwvjrGnx"  >
<path style="stroke: rgb(0,0,0); stroke-width: 1; stroke-dasharray: none; stroke-linecap: butt; stroke-dashoffset: 0; stroke-linejoin: miter; stroke-miterlimit: 4; fill: rgb(255,255,255); fill-opacity: 0; fill-rule: nonzero; opacity: 1;"  transform=" translate(0, 0)" d="M 0 0" stroke-linecap="round" />
</g>
</svg>