<?xml version="1.0" encoding="UTF-8" standalone="no"?>
<!DOCTYPE svg PUBLIC "-//W3C//DTD SVG 1.1//EN" "http://www.w3.org/Graphics/SVG/1.1/DTD/svg11.dtd">
<!-- Created with Vectornator (http://vectornator.io/) -->
<svg height="100%" stroke-miterlimit="10" style="fill-rule:nonzero;clip-rule:evenodd;stroke-linecap:round;stroke-linejoin:round;" version="1.1" viewBox="0 0 1650 800" width="100%" xml:space="preserve" xmlns="http://www.w3.org/2000/svg" xmlns:vectornator="http://vectornator.io" xmlns:xlink="http://www.w3.org/1999/xlink">
<defs/>
<clipPath id="ArtboardFrame">
<rect height="800" width="1650" x="0" y="0"/>
</clipPath>
<g clip-path="url(#ArtboardFrame)" id="Sketch" vectornator:layerName="Sketch" visibility="hidden">
<path d="M258.285 271.558C252.483 284.613 244.532 302.742 255.031 315.49C267.509 330.642 308.42 342.657 318.489 318.745C335.365 278.664 276.296 249.747 258.285 290.27" fill="none" opacity="1" stroke="#007aff" stroke-linecap="round" stroke-linejoin="round" stroke-width="10" vectornator:layerName="Curve 1"/>
<path d="M328.252 342.338C351.204 339.059 378.294 333.389 401.472 333.389" fill="none" opacity="1" stroke="#007aff" stroke-linecap="round" stroke-linejoin="round" stroke-width="10" vectornator:layerName="Curve 2"/>
<path d="M286.76 264.236C286.76 256.747 322.437 258.111 328.252 258.541C354.793 260.507 384.132 279.489 390.896 306.541C417.945 414.74 331.303 518.402 393.336 620.575C410.419 648.711 431.772 694.813 473.065 688.914" fill="none" opacity="1" stroke="#007aff" stroke-linecap="round" stroke-linejoin="round" stroke-width="10" vectornator:layerName="Curve 3"/>
<path d="M297.336 256.101C294.967 248.994 319.948 250.669 323.37 250.406C354.27 248.029 385.215 246.238 416.116 243.897C486.802 238.542 558.327 226.813 629.268 226.813" fill="none" opacity="1" stroke="#007aff" stroke-linecap="round" stroke-linejoin="round" stroke-width="10" vectornator:layerName="Curve 4"/>
<path d="M626.014 229.253C613.461 216.7 663.094 238.837 669.946 244.711C694.327 265.609 706.615 307.714 708.184 339.084C711.511 405.63 665.976 470.61 678.082 538.406C683.109 566.557 701.445 586.861 716.319 609.999C725.725 624.629 730.186 641.898 749.675 645.796" fill="none" opacity="1" stroke="#007aff" stroke-linecap="round" stroke-linejoin="round" stroke-width="10" vectornator:layerName="Curve 5"/>
<path d="M438.082 706.813C440.824 704.589 446.138 727.886 452.726 734.474C465.135 746.883 490.441 753.457 503.167 736.914C522.08 712.327 481.086 681.539 458.421 685.66C449.419 687.297 435.429 708.964 438.082 706.813Z" fill="none" opacity="1" stroke="#007aff" stroke-linecap="round" stroke-linejoin="round" stroke-width="10" vectornator:layerName="Curve 6"/>
<path d="M508.048 758.88C504.699 757.206 505.183 753.23 508.862 751.558C518.916 746.988 534.232 749.118 544.658 749.118C564.596 749.118 565.465 749.658 585.336 747.49C630.05 742.613 674.517 734.488 718.76 726.338C733.655 723.594 748.184 723.161 762.692 719.016C765.302 718.27 785.745 712.846 777.336 714.948" fill="none" opacity="1" stroke="#007aff" stroke-linecap="round" stroke-linejoin="round" stroke-width="10" vectornator:layerName="Curve 7"/>
<path d="M762.692 651.49C776.14 657.819 789.408 663.541 799.302 675.084C819.195 698.291 802.959 722.27 775.709 722.27" fill="none" opacity="1" stroke="#007aff" stroke-linecap="round" stroke-linejoin="round" stroke-width="10" vectornator:layerName="Curve 8"/>
<path d="M281.879 295.965C281.879 285.52 293.746 315.349 298.963 304.914C308.712 285.416 262.937 279.023 264.794 297.592C266.138 311.037 295.025 301.618 289.201 294.338C279.57 282.3 214.489 299.008 203.777 302.474C200.58 303.508 160.565 318.078 162.285 320.372C167.545 327.385 238.884 315.721 247.709 313.863C248.48 313.701 276.567 306.495 272.93 299.219C261.893 277.145 136.399 318.171 177.743 328.507" fill="none" opacity="1" stroke="#007aff" stroke-linecap="round" stroke-linejoin="round" stroke-width="10" vectornator:layerName="Curve 9"/>
<path d="M460.048 712.507C455.87 704.151 452.544 703.41 442.963 707.626C416.487 719.276 391.313 734.03 364.862 745.863C355.89 749.877 347.28 752.538 338.014 755.626C334.927 756.655 344.564 756.144 347.777 755.626C358.698 753.865 369.454 751.198 380.319 749.118C387.371 747.767 394.416 746.381 401.472 745.05C414.855 742.525 428.205 739.712 441.336 736.101C453.321 732.805 478.58 729.138 485.268 715.762C487.387 711.526 476.169 712.722 471.438 712.507C462.227 712.089 452.952 711.59 443.777 712.507C419.293 714.956 391.608 720.686 368.93 730.406C358.524 734.865 339.858 751.482 358.353 758.88" fill="none" opacity="1" stroke="#007aff" stroke-linecap="round" stroke-linejoin="round" stroke-width="10" vectornator:layerName="Curve 10"/>
<path d="M793.607 675.084C779.675 661.152 873.446 662.925 871.709 675.084C869.638 689.583 829.735 689.57 820.455 691.355C815.023 692.399 799.237 692.136 804.184 694.609C814.444 699.739 855.398 671.016 871.709 671.016C872.437 671.016 891.041 671.501 889.607 675.084C887.68 679.902 861.582 680.779 856.252 680.779" fill="none" opacity="1" stroke="#007aff" stroke-linecap="round" stroke-linejoin="round" stroke-width="10" vectornator:layerName="Curve 11"/>
<path d="M683.777 250.406C664.966 231.595 747.581 243.539 756.184 245.524C757.876 245.915 761.215 247.334 760.252 248.779C752.546 260.337 724.382 257.247 712.252 261.796C707.123 263.719 702.145 266.153 696.794 267.49C694.934 267.956 689.181 268.304 691.099 268.304" fill="none" opacity="1" stroke="#007aff" stroke-linecap="round" stroke-linejoin="round" stroke-width="10" vectornator:layerName="Curve 12"/>
<path d="M450.285 313.863C446.681 321.072 456.348 345.554 468.184 338.27C483.975 328.552 492.407 297.032 513.743 295.965C530.435 295.13 537.353 323.69 558.489 321.999C580.377 320.248 581.399 294.732 601.607 292.711C614.124 291.459 623.006 309.877 634.963 313.863" fill="none" opacity="1" stroke="#007aff" stroke-linecap="round" stroke-linejoin="round" stroke-width="10" vectornator:layerName="Curve 13"/>
<path d="M460.048 391.965C452.693 391.965 473.572 439.096 500.726 426.948C522.723 417.107 537.034 392.378 561.743 387.084C580.219 383.125 589.921 404.082 608.116 397.66C613.625 395.716 625.82 372.431 630.896 375.694C642.635 383.241 639.391 417.241 639.845 428.575" fill="none" opacity="1" stroke="#007aff" stroke-linecap="round" stroke-linejoin="round" stroke-width="10" vectornator:layerName="Curve 14"/>
<path d="M431.574 496.101C468.184 569.322 481.026 507.967 517.811 483.084C539.997 468.075 549.564 498.859 569.065 502.609C587.079 506.073 601.55 483.3 617.879 487.965C624.808 489.945 630.093 506.293 632.523 511.558" fill="none" opacity="1" stroke="#007aff" stroke-linecap="round" stroke-linejoin="round" stroke-width="10" vectornator:layerName="Curve 15"/>
<path d="M475.506 605.931C475.506 614.303 497.084 618.962 500.726 619.762C542.393 628.908 549.395 587.108 583.709 577.457C611.832 569.547 608.423 592.901 624.387 604.304C632.662 610.214 643.851 605.118 652.862 605.118" fill="none" opacity="1" stroke="#007aff" stroke-linecap="round" stroke-linejoin="round" stroke-width="10" vectornator:layerName="Curve 16"/>
<path d="M850.319 405.501C902.99 387.945 953.703 364.608 1005.48 344.637C1066.26 321.193 1128.92 299.204 1187.22 270.057" fill="none" opacity="1" stroke="#007aff" stroke-linecap="round" stroke-linejoin="round" stroke-width="10" vectornator:layerName="Curve 59"/>
<path d="M851.798 426.593C902.155 449.974 955.054 467.809 1006.42 488.821C1066.71 513.488 1127.38 540.501 1189.78 559.313" fill="none" opacity="1" stroke="#007aff" stroke-linecap="round" stroke-linejoin="round" stroke-width="10" vectornator:layerName="Curve 17"/>
<path d="M1162.36 258.056C1180.55 258.056 1200.12 256.505 1218.08 259.77C1218.97 259.932 1220.43 259.751 1220.65 260.627C1221.35 263.436 1192.3 278.688 1188.93 282.058" fill="none" opacity="1" stroke="#007aff" stroke-linecap="round" stroke-linejoin="round" stroke-width="10" vectornator:layerName="Curve 60"/>
<path d="M1179.93 533.522C1193.17 546.011 1208.46 558.31 1219.28 573.012C1219.82 573.74 1221.01 574.613 1220.56 575.401C1219.15 577.925 1187.55 569.08 1182.79 569.218" fill="none" opacity="1" stroke="#007aff" stroke-linecap="round" stroke-linejoin="round" stroke-width="10" vectornator:layerName="Curve 18"/>
<path d="M845.893 426.51C879.572 426.51 911.064 443.857 943.619 451.37C985.449 461.023 1024.97 463.748 1064.49 482.231C1103.35 500.407 1137.02 529.554 1177.65 543.095" fill="none" opacity="1" stroke="#007aff" stroke-linecap="round" stroke-linejoin="round" stroke-width="10" vectornator:layerName="Curve 19"/>
<path d="M1172.5 522.521C1168.75 524.399 1186.53 530.994 1187.93 531.951C1192.27 534.909 1214.6 551.399 1211.94 559.383C1210.59 563.431 1170.79 559.432 1170.79 552.525" fill="none" opacity="1" stroke="#007aff" stroke-linecap="round" stroke-linejoin="round" stroke-width="10" vectornator:layerName="Curve 20"/>
<path d="M1373.24 252.912C1417.28 219.881 1313.46 182.144 1305.52 235.767C1300.33 270.778 1328.39 297.372 1351.81 318.92C1359.94 326.401 1371.62 335.971 1373.24 334.35C1375.44 332.146 1371.7 323.56 1370.67 321.492" fill="none" opacity="1" stroke="#007aff" stroke-linecap="round" stroke-linejoin="round" stroke-width="10" vectornator:layerName="Curve 21"/>
<path d="M1383.52 244.34C1376.62 230.539 1411.66 219.541 1420.39 218.622C1439.47 216.614 1451.78 241.064 1453.82 256.341C1458.73 293.178 1427.01 308.801 1399.81 324.921C1396.52 326.871 1373.5 340.421 1374.95 336.065" fill="none" opacity="1" stroke="#007aff" stroke-linecap="round" stroke-linejoin="round" stroke-width="10" vectornator:layerName="Curve 22"/>
<path d="M1568.03 106.894C1562.09 97.9848 1569.69 109.964 1570.79 112.857C1574.25 122.009 1575.17 136.506 1582.25 143.592" fill="none" opacity="1" stroke="#007aff" stroke-linecap="round" stroke-linejoin="round" stroke-width="10" vectornator:layerName="Curve 23"/>
<path d="M1650.6 104.142C1650.6 99.6265 1645.71 111.819 1644.18 116.068C1641.41 123.79 1636.82 135.256 1639.59 143.592" fill="none" opacity="1" stroke="#007aff" stroke-linecap="round" stroke-linejoin="round" stroke-width="10" vectornator:layerName="Curve 24"/>
<path d="M1693.72 166.986C1701.35 155.546 1718.55 154.607 1730.88 155.977" fill="none" opacity="1" stroke="#007aff" stroke-linecap="round" stroke-linejoin="round" stroke-width="10" vectornator:layerName="Curve 25"/>
<path d="M1682.25 212.858C1689.04 224.171 1717.04 231.099 1728.13 245.886" fill="none" opacity="1" stroke="#007aff" stroke-linecap="round" stroke-linejoin="round" stroke-width="10" vectornator:layerName="Curve 26"/>
<path d="M1628.13 266.069C1618.79 282.407 1622.51 291.784 1630.88 306.436" fill="none" opacity="1" stroke="#007aff" stroke-linecap="round" stroke-linejoin="round" stroke-width="10" vectornator:layerName="Curve 27"/>
<path d="M1560.69 269.28C1552.8 277.831 1544.09 284.964 1535.92 293.134" fill="none" opacity="1" stroke="#007aff" stroke-linecap="round" stroke-linejoin="round" stroke-width="10" vectornator:layerName="Curve 28"/>
<path d="M1532.71 208.729C1523.97 207.418 1514.33 200.931 1506.11 200.931" fill="none" opacity="1" stroke="#007aff" stroke-linecap="round" stroke-linejoin="round" stroke-width="10" vectornator:layerName="Curve 29"/>
<path d="M1526.29 157.812C1516.75 151.448 1504.87 142.987 1497.85 133.958" fill="none" opacity="1" stroke="#007aff" stroke-linecap="round" stroke-linejoin="round" stroke-width="10" vectornator:layerName="Curve 30"/>
<path d="M1596.02 185.335C1582.85 189.285 1583.47 204.983 1588.22 215.61C1599.11 239.993 1643.64 251.712 1654.73 220.656C1669.63 178.948 1607.17 164.821 1590.97 200.473" fill="none" opacity="1" stroke="#007aff" stroke-linecap="round" stroke-linejoin="round" stroke-width="10" vectornator:layerName="Curve 31"/>
<path d="M1595.1 289.923C1583.28 313.567 1582.78 341.102 1574 366.07C1571.92 371.96 1565.75 379.763 1566.66 386.712C1569.91 411.684 1661.61 433.689 1679.5 416.987C1699.28 398.529 1655.57 336.412 1667.12 313.317" fill="none" opacity="1" stroke="#007aff" stroke-linecap="round" stroke-linejoin="round" stroke-width="10" vectornator:layerName="Curve 32"/>
<path d="M1592.8 286.253C1582.54 296.52 1575.22 309.908 1563.91 319.28C1556.53 325.391 1549.39 331.564 1542.35 338.088C1514.2 364.145 1524.3 347.22 1536.84 324.785C1548.46 304.001 1568.18 288.263 1578.58 267.445" fill="none" opacity="1" stroke="#007aff" stroke-linecap="round" stroke-linejoin="round" stroke-width="10" vectornator:layerName="Curve 33"/>
<path d="M1671.7 308.271C1668.86 313.959 1679.71 320.031 1682.71 322.492C1691.12 329.386 1725.74 366.049 1737.76 356.437C1745.89 349.928 1736.97 328.227 1734.09 322.033C1728.08 309.089 1720.88 295.74 1714.36 283.042C1710.32 275.15 1701.91 272.141 1698.77 263.776" fill="none" opacity="1" stroke="#007aff" stroke-linecap="round" stroke-linejoin="round" stroke-width="10" vectornator:layerName="Curve 34"/>
<path d="M1514.13 365.84C1502.17 387.676 1532.74 379.136 1538.22 364.694C1543.21 351.53 1534.1 334.671 1519.87 347.721C1514.29 352.832 1516.58 361.373 1514.13 365.84Z" fill="none" opacity="1" stroke="#007aff" stroke-linecap="round" stroke-linejoin="round" stroke-width="10" vectornator:layerName="Curve 35"/>
<path d="M1725.83 361.253C1707.74 361.875 1728.87 398.316 1740.97 396.804C1756.78 394.827 1744.25 370.417 1738.68 365.152C1734.87 361.562 1730.18 361.104 1725.83 361.253Z" fill="none" opacity="1" stroke="#007aff" stroke-linecap="round" stroke-linejoin="round" stroke-width="10" vectornator:layerName="Curve 36"/>
<path d="M1590.05 411.942C1586.19 419.663 1595.07 446.93 1591.89 459.648C1588.65 472.587 1561.48 454.299 1557.02 474.327C1553.47 490.324 1581.12 487.749 1588.22 481.667" fill="none" opacity="1" stroke="#007aff" stroke-linecap="round" stroke-linejoin="round" stroke-width="10" vectornator:layerName="Curve 37"/>
<path d="M1644.64 422.951C1644.64 436.375 1658.35 451.152 1652.9 464.235C1651.07 468.63 1626.05 459.031 1623.08 473.868C1621.45 482.019 1653.71 478.311 1658.4 475.703" fill="none" opacity="1" stroke="#007aff" stroke-linecap="round" stroke-linejoin="round" stroke-width="10" vectornator:layerName="Curve 38"/>
<path d="M1364.45 581.207C1360.03 573.851 1358.19 561.749 1349.57 558.002C1326.69 548.053 1317.79 571.272 1322.2 590.132C1327.48 612.695 1341.1 628.489 1358.5 642.493C1367.09 649.408 1378.24 656.513 1385.27 665.103C1385.83 665.789 1387.2 666.991 1386.46 667.483C1384.92 668.509 1380.65 663.454 1380.51 663.318" fill="none" opacity="1" stroke="#007aff" stroke-linecap="round" stroke-linejoin="round" stroke-width="10" vectornator:layerName="Curve 39"/>
<path d="M1376.35 586.562C1369.71 569.978 1432.19 550.377 1438.23 584.182C1442.09 605.796 1416.1 629.472 1404.91 645.468C1404.68 645.796 1375.78 679.635 1385.87 664.508" fill="none" opacity="1" stroke="#007aff" stroke-linecap="round" stroke-linejoin="round" stroke-width="10" vectornator:layerName="Curve 40"/>
<path d="M1521.82 551.16C1508.61 549.453 1520.39 570.794 1525.1 574.662C1539.98 586.883 1583.34 590.393 1584.6 561.572C1585.33 544.743 1553.41 535.971 1541.16 537.772C1532.33 539.071 1528.64 552.04 1521.82 551.16Z" fill="none" opacity="1" stroke="#007aff" stroke-linecap="round" stroke-linejoin="round" stroke-width="10" vectornator:layerName="Curve 41"/>
<path d="M1547.11 612.148C1527.6 634.098 1522.21 725.166 1560.8 719.843C1574.47 717.958 1583.39 693.504 1586.98 682.953C1593.52 663.703 1594.49 638.969 1586.38 619.883C1571.77 585.495 1543.31 576.388 1536.4 621.668C1535.41 628.164 1534.99 634.741 1534.62 641.303C1534.2 648.632 1534.12 655.978 1534.02 663.318C1533.77 681.391 1534.04 701.427 1542.35 718.058" fill="none" opacity="1" stroke="#007aff" stroke-linecap="round" stroke-linejoin="round" stroke-width="10" vectornator:layerName="Curve 42"/>
<path d="M1541.46 593.107C1542.55 592.314 1543.87 591.764 1544.73 590.727C1546.53 588.573 1538.91 590.663 1536.4 591.917C1533.22 593.507 1532.15 594.746 1529.26 597.272C1523.23 602.551 1518.57 607.656 1514.39 614.528C1506.23 627.922 1475.04 681.014 1483.45 697.828C1486.26 703.454 1505.35 677.881 1506.06 677.003C1524.99 653.331 1524.4 605.524 1541.46 593.107Z" fill="none" opacity="1" stroke="#007aff" stroke-linecap="round" stroke-linejoin="round" stroke-width="10" vectornator:layerName="Curve 43"/>
<path d="M1486.42 698.721C1471.71 709.81 1482.12 735.929 1486.42 730.553C1491.78 723.858 1502.7 686.452 1486.42 698.721Z" fill="none" opacity="1" stroke="#007aff" stroke-linecap="round" stroke-linejoin="round" stroke-width="10" vectornator:layerName="Curve 44"/>
<path d="M1562.58 595.487C1562.58 608.361 1583.41 606.02 1591.74 606.197C1605.07 606.481 1618.48 606.442 1631.6 603.817C1645.83 600.971 1668.12 584.19 1676.23 602.032C1691.37 635.345 1608.77 620.585 1595.9 616.908" fill="none" opacity="1" stroke="#007aff" stroke-linecap="round" stroke-linejoin="round" stroke-width="10" vectornator:layerName="Curve 45"/>
<path d="M1684.56 601.14C1685.68 592.984 1696.49 597.805 1703 600.247C1703.67 600.496 1711.65 602.308 1709.55 604.412C1700.37 613.59 1683.61 608.032 1684.56 601.14Z" fill="none" opacity="1" stroke="#007aff" stroke-linecap="round" stroke-linejoin="round" stroke-width="10" vectornator:layerName="Curve 46"/>
<path d="M1664.33 584.182C1657.94 590.573 1660.99 606.293 1658.97 614.528C1652.14 642.483 1644.23 669.139 1646.48 698.423C1647.44 710.921 1652.93 728.841 1669.68 725.198C1702.28 718.111 1709.08 621.216 1691.1 600.842C1680.33 588.638 1655.42 584.834 1645.88 598.462" fill="none" opacity="1" stroke="#007aff" stroke-linecap="round" stroke-linejoin="round" stroke-width="10" vectornator:layerName="Curve 47"/>
<path d="M1666.11 573.472C1658.36 612.25 1740.8 578.882 1712.52 542.532C1687.98 510.98 1636.47 555.258 1661.95 585.372" fill="none" opacity="1" stroke="#007aff" stroke-linecap="round" stroke-linejoin="round" stroke-width="10" vectornator:layerName="Curve 48"/>
<path d="M1704.19 599.057C1699.28 608.874 1706.89 622.45 1708.36 632.973C1711.43 655.004 1709.66 677.464 1710.74 699.613C1711.13 707.653 1708.5 724.564 1721.45 721.033C1750.25 713.177 1731.61 674.532 1727.99 659.153C1724.89 645.969 1724.21 632.486 1721.45 619.288C1720.28 613.71 1710.14 573.56 1710.14 582.992" fill="none" opacity="1" stroke="#007aff" stroke-linecap="round" stroke-linejoin="round" stroke-width="10" vectornator:layerName="Curve 49"/>
<path d="M1719.66 726.983C1730.82 738.14 1737.48 733.644 1733.94 715.083C1731.01 699.7 1717.26 713.893 1719.07 713.893" fill="none" opacity="1" stroke="#007aff" stroke-linecap="round" stroke-linejoin="round" stroke-width="10" vectornator:layerName="Curve 50"/>
<path d="M1659.57 590.43C1656.41 596.068 1651.38 591.677 1647.67 597.867C1631.17 625.369 1624.97 660.514 1615.54 690.688C1613.68 696.63 1602.52 710.65 1606.61 717.463C1613.4 728.768 1639.2 683.927 1639.93 682.358C1649.46 661.88 1653.97 634.389 1657.78 612.148C1658.58 607.523 1658.38 600.143 1658.38 595.487C1658.38 592.506 1658.15 583.695 1658.97 586.562C1659.57 588.669 1659.83 589.964 1659.57 590.43Z" fill="none" opacity="1" stroke="#007aff" stroke-linecap="round" stroke-linejoin="round" stroke-width="10" vectornator:layerName="Curve 51"/>
<path d="M1603.64 728.768C1598.87 740.695 1608.82 749.086 1616.73 735.908C1621.02 728.756 1622.51 701.136 1614.35 717.463" fill="none" opacity="1" stroke="#007aff" stroke-linecap="round" stroke-linejoin="round" stroke-width="10" vectornator:layerName="Curve 52"/>
<path d="M1538.78 712.108C1538.78 731.615 1528.06 779.721 1535.21 794.814C1543.35 811.984 1571.27 823.198 1576.86 798.979C1582.46 774.714 1564.39 747.726 1570.91 721.628" fill="none" opacity="1" stroke="#007aff" stroke-linecap="round" stroke-linejoin="round" stroke-width="10" vectornator:layerName="Curve 53"/>
<path d="M1534.02 813.854C1528.75 824.394 1537.89 831.668 1539.38 842.414C1539.6 844.056 1536.87 858.504 1538.19 860.264C1543.3 867.076 1561.79 859.681 1559.01 851.339C1555.31 840.238 1545.33 838.248 1545.33 822.779" fill="none" opacity="1" stroke="#007aff" stroke-linecap="round" stroke-linejoin="round" stroke-width="10" vectornator:layerName="Curve 54"/>
<path d="M1565.56 816.234C1565.56 827.493 1565.13 854.167 1573.89 862.049C1577.09 864.936 1595.61 866.547 1594.12 859.074C1592.71 852.054 1575.08 853.839 1575.08 845.389" fill="none" opacity="1" stroke="#007aff" stroke-linecap="round" stroke-linejoin="round" stroke-width="10" vectornator:layerName="Curve 55"/>
<path d="M1650.05 721.033C1645.75 733.923 1641.44 795.916 1647.07 804.929C1654.79 817.282 1692.22 824.576 1697.65 806.119C1702.16 790.775 1694.69 769.304 1691.7 754.354C1689.42 742.971 1686.43 732.004 1682.77 721.033" fill="none" opacity="1" stroke="#007aff" stroke-linecap="round" stroke-linejoin="round" stroke-width="10" vectornator:layerName="Curve 56"/>
<path d="M1667.6 817.127C1663.41 821.476 1668.48 841.321 1664.92 845.389C1663.84 846.626 1643.77 851.03 1653.62 855.504C1684.7 869.633 1678.25 806.06 1667.6 817.127Z" fill="none" opacity="1" stroke="#007aff" stroke-linecap="round" stroke-linejoin="round" stroke-width="10" vectornator:layerName="Curve 57"/>
<path d="M1692.29 819.209C1696.73 825.225 1684.04 854.729 1699.43 852.529C1719.45 849.67 1689.65 815.629 1692.29 819.209Z" fill="none" opacity="1" stroke="#007aff" stroke-linecap="round" stroke-linejoin="round" stroke-width="10" vectornator:layerName="Curve 58"/>
</g>
<g id="Scroll" vectornator:layerName="Scroll">
<path d="M598.869 593.307L685.47 569.919C685.47 569.919 699.495 570.385 700.859 574.738C702.223 579.091 690.926 587.332 690.926 587.332L600.8 608.342L598.869 593.307Z" fill="#402217" fill-rule="nonzero" opacity="1" stroke="#150b14" stroke-linecap="butt" stroke-linejoin="round" stroke-width="10" vectornator:layerName="Curve 64"/>
<path d="M128.26 260.767L260.735 239.551L237.648 182.688L118.428 188.838L128.26 260.767Z" fill="#b1935d" fill-rule="nonzero" opacity="1" stroke="#150b14" stroke-linecap="butt" stroke-linejoin="round" stroke-width="10" vectornator:layerName="Curve 59"/>
<path d="M91.7647 223.094C91.7647 203.529 106.517 187.668 124.714 187.668C142.911 187.668 157.663 203.529 157.663 223.094C157.663 242.66 142.911 258.521 124.714 258.521C106.517 258.521 91.7647 242.66 91.7647 223.094Z" fill="#b1935d" fill-rule="nonzero" opacity="1" stroke="#150b14" stroke-linecap="round" stroke-linejoin="round" stroke-width="10" vectornator:layerName="Oval 1"/>
<path d="M471.14 171.798L557.741 148.409C557.741 148.409 571.766 148.875 573.13 153.228C574.495 157.582 563.198 165.823 563.198 165.823L473.072 186.833L471.14 171.798Z" fill="#402217" fill-rule="nonzero" opacity="1" stroke="#150b14" stroke-linecap="butt" stroke-linejoin="round" stroke-width="10" vectornator:layerName="Curve 63"/>
<path d="M117.437 187.568C117.437 187.568 288.723 137.372 212.653 384.21C136.584 631.048 302.695 606.726 302.695 606.726L320.289 665.719L612.665 629.495C612.665 629.495 625.127 612.258 620.599 597.381C616.072 582.503 594.553 569.985 594.553 569.985C594.553 569.985 463.113 517.72 527.281 355.749C591.448 193.778 461.561 143.582 461.561 143.582L117.437 187.568Z" fill="#bda27c" fill-rule="nonzero" opacity="1" stroke="#150b14" stroke-linecap="butt" stroke-linejoin="round" stroke-width="10" vectornator:layerName="Curve 60"/>
<path d="M277.447 640.424C277.447 622.106 292.775 607.256 311.682 607.256C330.59 607.256 345.918 622.106 345.918 640.424C345.918 658.742 330.59 673.592 311.682 673.592C292.775 673.592 277.447 658.742 277.447 640.424Z" fill="#b1935d" fill-rule="nonzero" opacity="1" stroke="#150b14" stroke-linecap="round" stroke-linejoin="round" stroke-width="10" vectornator:layerName="Oval 2"/>
<path d="M311.682 607.256L596.599 569.919" fill="#3395ff" fill-rule="nonzero" opacity="1" stroke="#150b14" stroke-linecap="butt" stroke-linejoin="round" stroke-width="10" vectornator:layerName="Curve 61"/>
<path d="M120.498 218.334L38.2186 232.823C38.2186 232.823 26.527 239.043 27.0445 243.571C27.5619 248.099 40.2885 250.935 40.2885 250.935L124.638 232.823L120.498 218.334Z" fill="#402217" fill-rule="nonzero" opacity="1" stroke="#150b14" stroke-linecap="butt" stroke-linejoin="round" stroke-width="10" vectornator:layerName="Curve 62"/>
<path d="M309.559 633.885L227.28 648.375C227.28 648.375 215.588 654.595 216.106 659.123C216.623 663.651 229.35 666.487 229.35 666.487L313.699 648.375L309.559 633.885Z" fill="#402217" fill-rule="nonzero" opacity="1" stroke="#150b14" stroke-linecap="butt" stroke-linejoin="round" stroke-width="10" vectornator:layerName="Curve 65"/>
<path d="M267.28 269.235C259.058 267.591 271.208 247.879 272.498 245.38C279.149 232.494 288.038 213.231 306.045 217.051C322.092 220.455 333.564 245.752 350.029 245.752C364.714 245.752 358.02 197.311 382.457 199.532C407.224 201.784 421.57 262.432 441.351 218.915C443.977 213.137 446.201 207.183 448.805 201.396C451.745 194.864 457.81 188.92 459.988 182.386" fill="none" opacity="1" stroke="#150b14" stroke-linecap="round" stroke-linejoin="round" stroke-width="10" vectornator:layerName="Curve 66"/>
<path d="M266.534 333.719C263.249 331.529 267.637 341.624 269.144 345.274C271.117 350.056 272.819 355.003 275.48 359.439C280.13 367.188 288.967 379.61 300.081 377.33C326.121 371.989 322.407 323.44 347.42 318.437C352.792 317.363 368.922 351.875 386.185 353.848C404.394 355.929 410.56 313.556 421.222 302.409C436 286.96 450.265 314.044 465.952 313.219C473.796 312.806 492.332 292.081 494.28 295.7C495.924 298.752 496.019 310.838 496.144 313.964" fill="none" opacity="1" stroke="#150b14" stroke-linecap="round" stroke-linejoin="round" stroke-width="10" vectornator:layerName="Curve 67"/>
<path d="M244.17 455.233C242.171 461.229 244.461 489.335 256.098 484.68C275.294 477.001 272.367 447.198 290.763 438.46C309.219 429.693 320.314 462.584 345.183 437.715" fill="none" opacity="1" stroke="#150b14" stroke-linecap="round" stroke-linejoin="round" stroke-width="10" vectornator:layerName="Curve 68"/>
<path d="M410.413 411.25C411.708 416 412.675 420.34 415.631 424.669C419.965 431.014 424.04 432.286 431.659 432.123C455.77 431.61 450.308 402.521 465.579 393.358C477.212 386.378 485.715 407.145 499.126 398.204" fill="none" opacity="1" stroke="#150b14" stroke-linecap="round" stroke-linejoin="round" stroke-width="10" vectornator:layerName="Curve 69"/>
<path d="M302.69 510.027C286.857 510.027 308.559 536.304 323.191 536.491C359.847 536.961 363.222 490.815 392.521 482.444C416.382 475.626 438.378 514.427 464.833 483.562" fill="none" opacity="1" stroke="#150b14" stroke-linecap="round" stroke-linejoin="round" stroke-width="10" vectornator:layerName="Curve 70"/>
<path d="M364.938 574.511C376.159 574.511 388.515 581.089 399.603 577.493C409.857 574.167 411.569 559.888 420.85 555.128C433.111 548.841 447.814 553.886 460.733 553.637C475.792 553.348 488.065 542.72 502.853 543.573C513.967 544.215 522.468 549.914 532.3 554.383" fill="none" opacity="1" stroke="#150b14" stroke-linecap="round" stroke-linejoin="round" stroke-width="10" vectornator:layerName="Curve 71"/>
<path d="M279.953 586.439C278.79 586.439 285.464 589.451 286.663 589.793C289.832 590.699 297.246 592.292 299.336 588.302C302.022 583.174 298.369 573.694 303.063 569.293C310.865 561.978 318.018 589.61 331.019 572.275" fill="none" opacity="1" stroke="#150b14" stroke-linecap="round" stroke-linejoin="round" stroke-width="10" vectornator:layerName="Curve 72"/>
<path d="M686.818 323.995L1039.4 182.557" fill="none" opacity="1" stroke="#150b14" stroke-linecap="butt" stroke-linejoin="round" stroke-width="10" vectornator:layerName="Curve 75"/>
<path d="M689.132 345.733L1042.63 484.858" fill="none" opacity="1" stroke="#150b14" stroke-linecap="butt" stroke-linejoin="round" stroke-width="10" vectornator:layerName="Curve 73"/>
<path d="M998.011 178.034L1054.77 178.144L1019.22 215.227L998.011 178.034Z" fill="#757a7e" fill-rule="nonzero" opacity="1" stroke="#150b14" stroke-linecap="butt" stroke-linejoin="round" stroke-width="10" vectornator:layerName="Curve 76"/>
<path d="M1015.63 453.162L1056.84 492.196L1005.53 494.767L1015.63 453.162Z" fill="#757a7e" fill-rule="nonzero" opacity="1" stroke="#150b14" stroke-linecap="butt" stroke-linejoin="round" stroke-width="10" vectornator:layerName="Curve 74"/>
</g>
<g id="Items" vectornator:layerName="Items">
<path d="M1219.92 155.039C1290.5 99.0693 1323.09 196.631 1214.24 258.213C1113.25 184.982 1157.28 99.0693 1219.92 155.039Z" fill="#ff3333" fill-rule="nonzero" opacity="1" stroke="#150b14" stroke-linecap="butt" stroke-linejoin="round" stroke-width="10" vectornator:layerName="Curve 2"/>
<path d="M1413.63 183.085C1413.63 183.085 1353.8 259.483 1367.91 269.812C1382.02 280.142 1432.54 208.225 1432.54 208.225C1432.54 208.225 1396.56 261.979 1418.43 295.276L1507.41 305.356C1528.69 280.172 1505.09 227.277 1505.09 227.277C1505.09 227.277 1560.52 283.138 1575.38 276.658C1590.24 270.179 1529.15 192.051 1529.15 192.051L1496.02 152.095L1424.08 148.008L1413.63 183.085Z" fill="#ffffff" fill-rule="nonzero" opacity="1" stroke="#150b14" stroke-linecap="butt" stroke-linejoin="round" stroke-width="10" vectornator:layerName="Curve 4"/>
<path d="M1349.27 273.443C1353.68 263.469 1362.14 257.545 1368.17 260.211C1374.19 262.877 1375.49 273.124 1371.08 283.098C1366.66 293.071 1358.2 298.995 1352.18 296.329C1346.16 293.663 1344.85 283.417 1349.27 273.443Z" fill="#dfd8c5" fill-rule="nonzero" opacity="1" stroke="#150b14" stroke-linecap="round" stroke-linejoin="round" stroke-width="10" vectornator:layerName="Oval 1"/>
<path d="M1566.66 287.918C1564.16 277.024 1566.88 267.101 1572.74 265.754C1578.6 264.407 1585.38 272.146 1587.88 283.04C1590.39 293.933 1587.67 303.857 1581.81 305.204C1575.95 306.551 1569.17 298.811 1566.66 287.918Z" fill="#dfd8c5" fill-rule="nonzero" opacity="1" stroke="#150b14" stroke-linecap="round" stroke-linejoin="round" stroke-width="10" vectornator:layerName="Oval 2"/>
<path d="M1222.85 483.358C1293.43 427.389 1326.01 524.951 1217.17 586.533C1116.18 513.301 1160.21 427.389 1222.85 483.358Z" fill="#ff3333" fill-rule="nonzero" opacity="1" stroke="#150b14" stroke-linecap="butt" stroke-linejoin="round" stroke-width="10" vectornator:layerName="Curve 1"/>
<path d="M1381.24 199.631L1432.83 172.963L1465.18 222.364L1492.28 171.651L1545.18 199.194L1509.33 154.164L1555.67 154.164L1517.64 111.321L1549.12 80.2808L1498.4 68.4769L1472.17 28.2563L1443.32 67.1654L1399.6 32.6281L1397.42 82.0295L1355.45 98.6424L1396.54 127.933L1357.19 166.843L1402.66 157.662L1381.24 199.631Z" fill="#fff394" fill-rule="nonzero" opacity="1" stroke="#150b14" stroke-linecap="butt" stroke-linejoin="round" stroke-width="10" vectornator:layerName="Curve 3"/>
<path d="M1419.86 296.286L1507.46 305.888L1509.13 381.604L1395.06 374.77L1419.86 296.286Z" fill="#ffffff" fill-rule="nonzero" opacity="1" stroke="#150b14" stroke-linecap="butt" stroke-linejoin="round" stroke-width="10" vectornator:layerName="Curve 5"/>
<path d="M1429.59 379.536L1428.96 407.277C1428.96 407.277 1371.87 414.083 1372.28 406.926C1373.7 381.604 1404.09 393 1404.09 393L1405.07 377.383L1429.59 379.536Z" fill="#dfd8c5" fill-rule="nonzero" opacity="1" stroke="#150b14" stroke-linecap="butt" stroke-linejoin="round" stroke-width="10" vectornator:layerName="Curve 7"/>
<path d="M1503.57 384.63L1502.93 412.372C1502.93 412.372 1445.85 419.178 1446.25 412.021C1447.67 386.698 1478.07 398.094 1478.07 398.094L1479.05 382.477L1503.57 384.63Z" fill="#dfd8c5" fill-rule="nonzero" opacity="1" stroke="#150b14" stroke-linecap="butt" stroke-linejoin="round" stroke-width="10" vectornator:layerName="Curve 6"/>
<path d="M1544.25 583.615C1540.75 546.545 1542.56 516.055 1548.29 515.513C1554.02 514.971 1561.51 544.584 1565.01 581.654C1568.51 618.724 1566.7 649.214 1560.97 649.756C1555.24 650.297 1547.75 620.685 1544.25 583.615Z" fill="#dfd8c5" fill-rule="nonzero" opacity="1" stroke="#150b14" stroke-linecap="round" stroke-linejoin="round" stroke-width="10" vectornator:layerName="Oval 9"/>
<path d="M1400.93 525.492C1401.02 519.5 1429.24 515.046 1463.96 515.544C1498.69 516.042 1526.76 521.303 1526.68 527.295C1526.59 533.287 1498.37 537.741 1463.65 537.243C1428.93 536.746 1400.85 531.484 1400.93 525.492Z" fill="#dfd8c5" fill-rule="nonzero" opacity="1" stroke="#150b14" stroke-linecap="round" stroke-linejoin="round" stroke-width="10" vectornator:layerName="Oval 8"/>
<path d="M1346.49 575.638C1353.9 537.274 1366.69 507.486 1375.08 509.105C1383.46 510.723 1384.25 543.134 1376.84 581.498C1369.44 619.862 1356.64 649.65 1348.25 648.032C1339.87 646.413 1339.08 614.002 1346.49 575.638Z" fill="#dfd8c5" fill-rule="nonzero" opacity="1" stroke="#150b14" stroke-linecap="round" stroke-linejoin="round" stroke-width="10" vectornator:layerName="Oval 7"/>
<path d="M1488.46 584.481C1495.07 547.838 1505.52 519.052 1511.8 520.185C1518.08 521.318 1517.81 551.942 1511.19 588.585C1504.58 625.228 1494.13 654.014 1487.85 652.881C1481.57 651.748 1481.84 621.124 1488.46 584.481Z" fill="#dfd8c5" fill-rule="nonzero" opacity="1" stroke="#150b14" stroke-linecap="round" stroke-linejoin="round" stroke-width="10" vectornator:layerName="Oval 10"/>
<path d="M1410.96 718.242L1411.88 771.18C1411.88 771.18 1434.28 762.197 1439.77 780C1441.14 784.438 1397.74 783.225 1397.74 783.225L1394.13 717.733L1372.37 768.964C1372.37 768.964 1385.93 760.243 1388.39 779.412C1389.1 784.967 1351.14 776.137 1351.14 776.137L1374.04 719.584L1391.5 694.836L1410.96 718.242Z" fill="#c9b09a" fill-rule="nonzero" opacity="1" stroke="#150b14" stroke-linecap="butt" stroke-linejoin="round" stroke-width="10" vectornator:layerName="Curve 11"/>
<path d="M1501.97 718.242L1500.99 771.18C1500.99 771.18 1477.19 762.197 1471.36 780C1469.91 784.438 1516.02 783.225 1516.02 783.225L1519.86 717.733L1542.98 768.964C1542.98 768.964 1528.57 760.243 1525.96 779.412C1525.2 784.967 1565.53 776.137 1565.53 776.137L1541.2 719.584L1522.65 694.836L1501.97 718.242Z" fill="#c9b09a" fill-rule="nonzero" opacity="1" stroke="#150b14" stroke-linecap="butt" stroke-linejoin="round" stroke-width="10" vectornator:layerName="Curve 10"/>
<path d="M1368.21 572.533C1368.21 532.737 1379.98 500.476 1394.5 500.476C1409.02 500.476 1420.79 532.737 1420.79 572.533C1420.79 612.329 1409.02 644.59 1394.5 644.59C1379.98 644.59 1368.21 612.329 1368.21 572.533Z" fill="#dfd8c5" fill-rule="nonzero" opacity="1" stroke="#150b14" stroke-linecap="round" stroke-linejoin="round" stroke-width="10" vectornator:layerName="Oval 5"/>
<path d="M1363.73 479.207C1363.73 460.63 1378.19 445.57 1396.04 445.57C1413.88 445.57 1428.35 460.63 1428.35 479.207C1428.35 497.784 1413.88 512.844 1396.04 512.844C1378.19 512.844 1363.73 497.784 1363.73 479.207Z" fill="#c9b09a" fill-rule="nonzero" opacity="1" stroke="#150b14" stroke-linecap="round" stroke-linejoin="round" stroke-width="10" vectornator:layerName="Oval 3"/>
<path d="M1381.18 632.683C1381.18 632.683 1358.95 695.956 1366.73 715.453L1418.3 714.774C1427.1 694.938 1410.2 632.683 1410.2 632.683L1381.18 632.683Z" fill="#dfd8c5" fill-rule="nonzero" opacity="1" stroke="#150b14" stroke-linecap="butt" stroke-linejoin="round" stroke-width="10" vectornator:layerName="Curve 9"/>
<path d="M1503.15 578.568C1503.15 538.272 1514.91 505.605 1529.41 505.605C1543.92 505.605 1555.67 538.272 1555.67 578.568C1555.67 618.864 1543.92 651.531 1529.41 651.531C1514.91 651.531 1503.15 618.864 1503.15 578.568Z" fill="#dfd8c5" fill-rule="nonzero" opacity="1" stroke="#150b14" stroke-linecap="round" stroke-linejoin="round" stroke-width="10" vectornator:layerName="Oval 6"/>
<path d="M1494.58 483.571C1494.58 464.905 1509.63 449.772 1528.19 449.772C1546.76 449.772 1561.81 464.905 1561.81 483.571C1561.81 502.238 1546.76 517.37 1528.19 517.37C1509.63 517.37 1494.58 502.238 1494.58 483.571Z" fill="#c9b09a" fill-rule="nonzero" opacity="1" stroke="#150b14" stroke-linecap="round" stroke-linejoin="round" stroke-width="10" vectornator:layerName="Oval 4"/>
<path d="M1516.23 639.946C1516.23 639.946 1489.25 701.343 1495.52 721.376L1546.99 724.624C1557.28 705.515 1545.16 642.154 1545.16 642.154L1516.23 639.946Z" fill="#dfd8c5" fill-rule="nonzero" opacity="1" stroke="#150b14" stroke-linecap="butt" stroke-linejoin="round" stroke-width="10" vectornator:layerName="Curve 8"/>
<path d="M1341.41 652.733C1341.41 645.137 1345.61 638.98 1350.79 638.98C1355.97 638.98 1360.17 645.137 1360.17 652.733C1360.17 660.329 1355.97 666.487 1350.79 666.487C1345.61 666.487 1341.41 660.329 1341.41 652.733Z" fill="#c9b09a" fill-rule="nonzero" opacity="1" stroke="#150b14" stroke-linecap="round" stroke-linejoin="round" stroke-width="10" vectornator:layerName="Oval 11"/>
<path d="M1483.31 653.835C1483.31 646.847 1487.01 641.183 1491.57 641.183C1496.13 641.183 1499.83 646.847 1499.83 653.835C1499.83 660.822 1496.13 666.487 1491.57 666.487C1487.01 666.487 1483.31 660.822 1483.31 653.835Z" fill="#c9b09a" fill-rule="nonzero" opacity="1" stroke="#150b14" stroke-linecap="round" stroke-linejoin="round" stroke-width="10" vectornator:layerName="Oval 12"/>
<path d="M1558.84 655.586C1558.84 647.775 1562.4 641.443 1566.79 641.443C1571.18 641.443 1574.74 647.775 1574.74 655.586C1574.74 663.397 1571.18 669.729 1566.79 669.729C1562.4 669.729 1558.84 663.397 1558.84 655.586Z" fill="#c9b09a" fill-rule="nonzero" opacity="1" stroke="#150b14" stroke-linecap="round" stroke-linejoin="round" stroke-width="10" vectornator:layerName="Oval 13"/>
</g>
</svg>
