<?xml version="1.0" encoding="UTF-8" standalone="no"?>
<!DOCTYPE svg PUBLIC "-//W3C//DTD SVG 1.1//EN" "http://www.w3.org/Graphics/SVG/1.1/DTD/svg11.dtd">
<!-- Created with Vectornator (http://vectornator.io/) -->
<svg height="100%" stroke-miterlimit="10" style="fill-rule:nonzero;clip-rule:evenodd;stroke-linecap:round;stroke-linejoin:round;" version="1.1" viewBox="0 0 925 825" width="100%" xml:space="preserve" xmlns="http://www.w3.org/2000/svg" xmlns:vectornator="http://vectornator.io" xmlns:xlink="http://www.w3.org/1999/xlink">
<defs/>
<clipPath id="ArtboardFrame">
<rect height="825" width="925" x="0" y="0"/>
</clipPath>
<g clip-path="url(#ArtboardFrame)" id="Sketch" vectornator:layerName="Sketch" visibility="hidden">
<path d="M668.142 443.414C655.961 423.113 630.889 488.125 628.58 496.398C611.276 558.404 594.694 617.973 617.277 681.489C626.731 708.077 633.064 726.973 663.903 728.115C695.653 729.291 704.357 694.477 714.768 670.186C740.767 609.52 753.81 532.347 734.548 468.14C718.191 413.614 675.468 421.121 648.361 461.782" fill="none" opacity="1" stroke="#007aff" stroke-linecap="round" stroke-linejoin="round" stroke-width="10" vectornator:layerName="Curve 18"/>
<path d="M707.703 297.178C696.508 297.178 687.935 322.572 685.097 331.088C673.72 365.217 673.582 411.303 725.364 397.494C768.656 385.95 803.951 314.23 754.329 285.875C733.619 274.041 696.007 292.078 691.455 314.839" fill="none" opacity="1" stroke="#007aff" stroke-linecap="round" stroke-linejoin="round" stroke-width="10" vectornator:layerName="Curve 2"/>
<path d="M668.142 319.078C655.696 323.227 656.052 355.164 670.968 356.52C685.984 357.885 703.565 345.759 711.235 333.207C711.328 333.056 716.254 321.216 713.355 320.491C710.051 319.665 708.208 346.006 726.777 332.501C728.265 331.419 732.087 327.084 733.135 325.436C741.352 312.524 724.148 331.924 741.613 336.033C749.884 337.979 755.313 335.787 761.394 330.381C762.768 329.159 763.625 324.842 764.926 326.143C770.923 332.14 763.872 347.6 781.881 343.097C791.604 340.667 796.031 322.695 793.891 314.133C792.392 308.14 786.91 319.962 792.478 318.372C799.173 316.459 801.354 302.264 800.249 297.178C798.693 290.023 791.888 280.391 785.413 276.691C781.388 274.391 764.372 281.082 767.045 283.755C768.519 285.229 768.345 275.332 766.339 273.159C761.512 267.93 753.252 261.147 745.852 260.442C737.431 259.64 729.908 268.526 731.723 276.691C732.827 281.661 756.617 269.968 723.245 256.91C714.747 253.585 694.689 268.621 702.052 275.984C702.146 276.079 705.676 269.06 702.052 266.094C695.712 260.907 685.314 259.753 678.032 263.268C667.544 268.331 657.991 282.527 663.903 294.352C673.481 313.508 673.862 282.961 663.903 295.765C659.387 301.572 664.543 319.95 667.435 312.72C668.118 311.012 664.981 309.634 663.197 309.188C648.065 305.405 632.869 330.691 655.426 333.914" fill="none" opacity="1" stroke="#007aff" stroke-linecap="round" stroke-linejoin="round" stroke-width="10" vectornator:layerName="Curve 3"/>
<path d="M636.846 665.99C638.03 668.678 639.493 671.07 641.296 673.012C650.876 683.328 671.617 676.957 682.271 673.012C704.135 664.914 781.972 605.99 748.677 572.695" fill="none" opacity="1" stroke="#007aff" stroke-linecap="round" stroke-linejoin="round" stroke-width="10" vectornator:layerName="Curve 22"/>
<path d="M694.39 506.527C691.537 538.058 685.995 570.128 683.684 583.998C680.193 604.945 684.638 632.54 713.355 615.789C726.172 608.312 727.201 593.065 738.081 583.998" fill="none" opacity="1" stroke="#007aff" stroke-linecap="round" stroke-linejoin="round" stroke-width="10" vectornator:layerName="Curve 20"/>
<path d="M650.127 744.364C648.005 745.834 646.948 734.717 646.948 737.299C646.948 748.573 654.679 763.513 656.838 774.741C659.636 789.29 659.916 803.834 661.077 818.541C664.864 866.513 670.208 916.566 684.39 962.658C688.463 975.896 692.926 997.789 711.942 993.035C733.825 987.565 720.343 941.908 718.3 930.161C712.868 898.927 700.455 870.384 693.574 839.735C688.444 816.883 691.233 791.104 682.977 769.089C679.251 759.153 671.666 754.247 663.903 747.896C661.029 745.544 658.273 743.204 655.426 740.831C654.121 739.744 652.6 734.894 652.6 736.593C652.6 741.317 655.333 740.756 650.127 744.364Z" fill="none" opacity="1" stroke="#007aff" stroke-linecap="round" stroke-linejoin="round" stroke-width="10" vectornator:layerName="Curve 6"/>
<path d="M716.534 998.334C711.85 1002.57 772.504 1003.83 773.403 1002.93C778.281 998.048 753.816 962.726 743.732 964.071C728.355 966.121 724.24 991.363 716.534 998.334Z" fill="none" opacity="1" stroke="#007aff" stroke-linecap="round" stroke-linejoin="round" stroke-width="10" vectornator:layerName="Curve 7"/>
<path d="M638.471 729.528C630.131 721.188 607.809 776.857 604.561 785.338C585.659 834.694 557.016 929.4 567.119 982.439C569.579 995.357 579.904 989.23 586.193 982.439C601.619 965.778 609.882 941.247 619.396 920.977C630.668 896.964 634.362 871.699 640.59 846.093C649.119 811.028 658.958 777.129 658.958 742.244" fill="none" opacity="1" stroke="#007aff" stroke-linecap="round" stroke-linejoin="round" stroke-width="10" vectornator:layerName="Curve 8"/>
<path d="M572.064 999.04C576.33 1005.94 591.8 1000.35 600.322 1001.51C660.248 1009.68 637.162 948.887 607.387 960.539C597.859 964.267 593.809 973.017 586.899 979.613C576.776 989.276 565.628 988.634 572.064 999.04Z" fill="none" opacity="1" stroke="#007aff" stroke-linecap="round" stroke-linejoin="round" stroke-width="10" vectornator:layerName="Curve 9"/>
<path d="M690.748 534.547C690.082 535.879 687.846 538.785 689.335 538.785C695.395 538.785 700.188 507.061 701.345 503.463C705.732 489.815 741.28 416.051 695.693 424.34C671.543 428.731 663.498 449.338 654.719 468.846C635.463 511.638 626.267 551.577 625.775 598.377" fill="none" opacity="1" stroke="#007aff" stroke-linecap="round" stroke-linejoin="round" stroke-width="10" vectornator:layerName="Curve 23"/>
<path d="M626.461 600.247C626.461 622.678 627.849 649.624 634.938 670.892" fill="none" opacity="1" stroke="#007aff" stroke-linecap="round" stroke-linejoin="round" stroke-width="10" vectornator:layerName="Curve 24"/>
<path d="M513.428 441.295C500.895 428.761 476.147 485.612 473.867 492.866C453.244 558.484 435.122 625.148 463.27 691.379C470.685 708.827 474.813 733.853 497.18 735.886C531.829 739.036 538.511 689.992 544.512 666.654C556.777 618.956 564.553 569.485 568.532 520.418C570.419 497.142 573.517 473.639 564.999 451.185C558.561 434.211 533.821 417.9 514.135 426.459C499.551 432.8 491.054 457.909 487.996 471.672" fill="none" opacity="1" stroke="#007aff" stroke-linecap="round" stroke-linejoin="round" stroke-width="10" vectornator:layerName="Curve 25"/>
<path d="M462.564 709.747C469.529 706.869 526.643 702.375 533.209 707.628C542.427 715.003 540.434 735.76 541.686 745.776C545.582 776.942 556.517 807.222 566.412 836.909C574.074 859.895 591.296 876.237 598.909 899.077C599.733 901.55 604.767 914.246 601.029 916.738C591.117 923.346 526.786 914.774 515.548 913.206C501.453 911.239 487.345 909.477 473.16 908.261C415.551 903.323 418.52 916.917 430.773 858.103C431.998 852.225 433.231 846.348 434.305 840.441C436.604 827.796 437.75 815.043 439.251 802.293C441.487 783.283 448.394 715.602 462.564 709.747Z" fill="none" opacity="1" stroke="#007aff" stroke-linecap="round" stroke-linejoin="round" stroke-width="10" vectornator:layerName="Curve 26"/>
<path d="M526.144 913.206C523.469 926.585 523.571 989.36 533.915 997.981C541.303 1004.14 557.498 1001.4 566.412 1003.63C574.638 1005.69 586.389 1012.17 595.377 1008.58C602.121 1005.88 588.384 972.591 581.248 968.31C573.155 963.454 566.855 966.232 562.174 973.255C560.696 975.471 558 981.123 556.522 978.906C550.668 970.125 556.093 943.811 555.109 932.987C554.887 930.546 550.63 910.846 556.522 916.738" fill="none" opacity="1" stroke="#007aff" stroke-linecap="round" stroke-linejoin="round" stroke-width="10" vectornator:layerName="Curve 27"/>
<path d="M444.196 904.729C439.125 907.264 440.492 921.283 439.957 925.922C438.533 938.261 417.402 1002.93 432.892 1004.34C439.834 1004.97 495.071 997.908 495.767 993.035C497.137 983.443 490.823 967.251 482.344 961.951C476.62 958.374 461.936 971.974 461.857 971.842C456.347 962.658 466.751 940.005 467.509 930.161C467.856 925.641 465.674 909.816 471.041 912.5" fill="none" opacity="1" stroke="#007aff" stroke-linecap="round" stroke-linejoin="round" stroke-width="10" vectornator:layerName="Curve 28"/>
<path d="M537.094 442.354C567.406 440.931 595.47 451.124 626.461 450.479C643.496 450.124 662.662 440.729 679.445 443.414C686.283 444.508 710.868 450.164 716.181 454.717C728.262 465.073 724.056 503.366 710.529 510.527C683.695 524.734 660.877 515.158 633.525 520.418C612.208 524.517 591.985 522.096 570.651 524.656C563.352 525.532 559.419 528.736 551.577 526.776C528.859 521.096 496.647 478.47 514.841 455.424C520.047 448.83 529.534 442.709 537.094 442.354Z" fill="none" opacity="1" stroke="#007aff" stroke-linecap="round" stroke-linejoin="round" stroke-width="10" vectornator:layerName="Curve 29"/>
<path d="M729.25 470.612C719.525 483.581 738.084 512.24 754.329 500.637C766.105 492.226 766.779 461.826 750.09 458.25C740.859 456.271 732.85 465.812 729.25 470.612Z" fill="none" opacity="1" stroke="#007aff" stroke-linecap="round" stroke-linejoin="round" stroke-width="10" vectornator:layerName="Curve 30"/>
<path d="M512.722 311.307C493.648 322.752 499.109 382.42 513.428 395.375C524.195 405.116 555.658 399.771 565.706 389.723C585.594 369.835 586.819 320.318 557.228 308.481C533.66 299.054 500.712 305.829 500.712 336.739" fill="none" opacity="1" stroke="#007aff" stroke-linecap="round" stroke-linejoin="round" stroke-width="10" vectornator:layerName="Curve 31"/>
<path d="M541.333 333.56C550.283 331.33 558.369 335.826 566.412 329.675C571.483 325.797 580.741 306.362 587.606 306.362C592.301 306.362 595.074 318.584 602.441 313.426C614.923 304.689 611.834 272.117 603.148 262.562C599.547 258.601 588.312 267.575 588.312 271.039C588.312 272.547 591.112 269.531 591.845 268.213C595.31 261.975 593.807 255.183 586.899 252.671C579.581 250.01 560.015 245.685 555.109 255.497C553.841 258.033 557.567 249.249 555.815 247.02C551.31 241.286 542.135 235.716 534.622 235.716C524.874 235.716 523.168 256.204 518.373 256.204C506.351 256.204 491.703 246.951 479.518 258.323C471.6 265.714 479.18 283.556 472.454 293.646C467.066 301.727 453.958 332.79 467.509 339.565C470.668 341.145 473.867 327.555 473.867 331.088C473.867 336.955 469.493 351.36 477.399 354.401C484.146 356.996 496.268 348.835 501.418 345.923C505.488 343.623 507.341 336.739 512.015 336.739C525.34 336.739 528.313 336.806 541.333 333.56Z" fill="none" opacity="1" stroke="#007aff" stroke-linecap="round" stroke-linejoin="round" stroke-width="10" vectornator:layerName="Curve 32"/>
<path d="M508.483 430.698C505.117 420.6 490.311 444.633 487.996 447.653C475.608 463.811 468.218 483.368 459.031 501.343C435.508 547.368 416.252 599.508 411.699 651.112C410.896 660.212 408.362 683.899 418.763 689.967C438.732 701.615 454.461 662.131 461.151 651.818C488.554 609.571 509.873 556.563 519.786 506.995C521.429 498.781 518.691 425.968 515.548 444.827" fill="none" opacity="1" stroke="#007aff" stroke-linecap="round" stroke-linejoin="round" stroke-width="10" vectornator:layerName="Curve 33"/>
<path d="M415.584 701.976C410.984 723.45 421.977 768.961 434.305 723.17C439.295 704.637 420.934 677.007 415.584 701.976Z" fill="none" opacity="1" stroke="#007aff" stroke-linecap="round" stroke-linejoin="round" stroke-width="10" vectornator:layerName="Curve 34"/>
<path d="M1102.61 326.849C1081.66 326.849 1093.98 383.193 1106.85 392.549C1143 418.839 1181.83 363.759 1178.2 331.088C1174.52 297.967 1093.92 296.657 1089.89 340.978" fill="none" opacity="1" stroke="#007aff" stroke-linecap="round" stroke-linejoin="round" stroke-width="10" vectornator:layerName="Curve 35"/>
<path d="M1118.86 321.197C1115.9 319.716 1113.22 338.413 1120.27 340.978C1124.16 342.39 1141.8 331.053 1142.17 331.794C1144.55 336.55 1133.83 346.863 1136.52 354.401C1141.33 367.87 1155.48 357.919 1160.54 364.998C1167.79 375.144 1157 393.067 1160.54 404.559C1163.74 414.966 1179.05 410.684 1181.03 417.275C1184.77 429.742 1174.92 442.961 1185.97 454.011C1199.07 467.113 1211.45 443.365 1218.47 436.349C1219.3 435.517 1217.42 439.355 1218.47 439.882C1219.89 440.591 1223.47 438.871 1224.12 438.469C1227.18 436.584 1236.04 429.192 1237.54 427.166C1243 419.796 1252.53 397.311 1243.2 389.017C1241.37 387.394 1236.48 389.362 1235.42 386.191C1232.02 375.985 1239.39 363.73 1235.42 352.281C1232.29 343.232 1220.33 342.087 1218.47 337.446C1214.36 327.183 1229.5 315.402 1217.76 302.83C1213.1 297.836 1195.33 301.469 1194.45 300.004C1184.38 283.215 1188.52 267.013 1160.54 264.681C1151.91 263.962 1132.85 277.061 1126.63 274.571C1124.12 273.568 1128.48 266.281 1123.8 266.8C1120.06 267.217 1114.67 273.577 1113.21 275.278C1107.11 282.388 1102.37 289.886 1101.2 299.297C1100.12 307.898 1106.78 302.195 1103.32 300.71C1089.48 294.78 1092.81 316.311 1101.2 321.904" fill="none" opacity="1" stroke="#007aff" stroke-linecap="round" stroke-linejoin="round" stroke-width="10" vectornator:layerName="Curve 36"/>
<path d="M1144.29 463.195C1155.58 446.268 1139.04 430.944 1120.98 433.524C1110.69 434.993 1102.47 450.047 1098.37 458.25C1075.12 504.751 1093.81 567.146 1091.31 617.202C1087.59 691.637 1026.7 801.975 1088.48 863.754C1102.18 877.45 1113.12 885.508 1132.99 889.187C1144.62 891.341 1157.87 891.446 1169.72 890.6C1240.69 885.531 1229.25 836.231 1220.59 782.512C1207.62 702.116 1198.25 620.483 1177.5 541.611C1170.44 514.819 1165.27 463.208 1139.35 447.653" fill="none" opacity="1" stroke="#007aff" stroke-linecap="round" stroke-linejoin="round" stroke-width="10" vectornator:layerName="Curve 37"/>
<path d="M1101.2 880.003C1101.2 892.675 1110.29 943.056 1105.44 952.768C1101.92 959.804 1061.66 950.071 1066.58 984.558C1069.28 1003.42 1129.29 993.645 1134.4 985.971C1143.34 972.564 1121.1 914.268 1128.04 893.425" fill="none" opacity="1" stroke="#007aff" stroke-linecap="round" stroke-linejoin="round" stroke-width="10" vectornator:layerName="Curve 38"/>
<path d="M1181.03 886.361C1181.03 905.859 1195 926.177 1191.62 946.409C1191.6 946.552 1182.89 941.961 1180.32 942.877C1170.82 946.269 1160.25 957.476 1162.66 968.31C1167.45 989.876 1198.62 995.413 1216.35 992.329C1270.23 982.959 1233.4 962.454 1222 925.216C1218.38 913.38 1217.24 908.54 1216.35 896.958C1216.18 894.793 1215.91 888.658 1214.94 890.6" fill="none" opacity="1" stroke="#007aff" stroke-linecap="round" stroke-linejoin="round" stroke-width="10" vectornator:layerName="Curve 39"/>
<path d="M1138.56 451.084C1110.52 415.981 1085.83 533.162 1079.31 547.281C1075.8 554.878 1070.59 562.585 1064.68 568.495C1054.78 578.396 1018.58 610.877 1023.71 626.287C1030.52 646.712 1075.15 616.62 1080.77 610.193C1108.87 578.079 1164.58 483.648 1138.56 451.084Z" fill="none" opacity="1" stroke="#007aff" stroke-linecap="round" stroke-linejoin="round" stroke-width="10" vectornator:layerName="Curve 40"/>
<path d="M1017.86 628.847C999.793 624.52 985.914 654.511 992.988 656.28C1001.87 658.499 1039.28 633.977 1017.86 628.847Z" fill="none" opacity="1" stroke="#007aff" stroke-linecap="round" stroke-linejoin="round" stroke-width="10" vectornator:layerName="Curve 41"/>
<path d="M1118.81 437.55C1112.44 418.446 1074.37 442.937 1065.41 447.792C1038.35 462.449 1028.84 493.998 1004.69 511.435C989.746 522.23 948.188 532.87 939.586 543.623C935.655 548.537 936.134 566.434 938.854 571.421C949.045 590.104 981.653 567.029 990.793 560.448C1017.28 541.381 1042.17 522.079 1066.87 500.462C1082.36 486.908 1096.41 467.404 1115.15 458.033" fill="none" opacity="1" stroke="#007aff" stroke-linecap="round" stroke-linejoin="round" stroke-width="10" vectornator:layerName="Curve 42"/>
<path d="M925.686 573.25C921.509 577.483 876.091 591.092 894.962 607.267C906.204 616.903 948.24 592.263 943.243 577.274C940.321 568.507 929.942 568.938 925.686 573.25Z" fill="none" opacity="1" stroke="#007aff" stroke-linecap="round" stroke-linejoin="round" stroke-width="10" vectornator:layerName="Curve 43"/>
</g>
<g id="Layer-1" vectornator:layerName="Layer 1">
<path d="M113.584 133.06C113.584 104.743 132.426 81.7875 155.668 81.7875C178.911 81.7875 197.752 89.9957 197.752 118.313C197.752 146.63 183.79 184.332 160.548 184.332C137.305 184.332 113.584 161.377 113.584 133.06Z" fill="#9f7257" fill-rule="nonzero" opacity="1" stroke="#150b14" stroke-linecap="butt" stroke-linejoin="round" stroke-width="10" vectornator:layerName="Oval 1"/>
<path d="M303.242 134.239C303.242 106.574 323.037 84.1461 347.456 84.1461C371.874 84.1461 391.669 106.574 391.669 134.239C391.669 161.905 384.828 184.332 360.41 184.332C335.991 184.332 303.242 161.905 303.242 134.239Z" fill="#c9b09a" fill-rule="nonzero" opacity="1" stroke="#150b14" stroke-linecap="butt" stroke-linejoin="round" stroke-width="10" vectornator:layerName="Oval 2"/>
<path d="M130.583 133.869C135.851 128.91 136.136 98.7989 136.136 98.7989C136.136 98.7989 155.164 113.798 165.887 110.203C176.609 106.608 179.027 84.4193 179.027 84.4193C179.027 84.4193 200.348 107.6 211.009 105.245C221.669 102.89 221.669 74.9982 221.669 74.9982C221.669 74.9982 243.301 84.0474 243.734 79.2129C244.168 74.3784 223.405 55.6602 223.405 55.6602C223.405 55.6602 245.346 42.4583 239.024 40.289C232.702 38.1197 198.117 46.9829 198.117 46.9829C198.117 46.9829 195.699 17.9139 187.704 17.728C179.708 17.542 166.135 46.2392 166.135 46.2392C166.135 46.2392 151.135 19.3395 143.326 20.951C135.516 22.5625 134.896 52.6852 134.896 52.6852C134.896 52.6852 108.926 32.1695 100.931 37.5618C92.9352 42.9542 102.914 74.2545 102.914 74.2545C102.914 74.2545 76.4483 76.5478 77.378 83.4276C78.3077 90.3075 102.17 101.03 102.17 101.03C102.17 101.03 87.6668 129.789 89.7742 134.004C91.8815 138.219 115.062 118.633 115.062 118.633C115.062 118.633 125.314 138.827 130.583 133.869Z" fill="#402217" fill-rule="nonzero" opacity="1" stroke="#150b14" stroke-linecap="butt" stroke-linejoin="round" stroke-width="10" vectornator:layerName="Curve 1"/>
<path d="M339.688 113.552C339.688 119.029 355.601 123.95 360.41 125.152C363.156 125.839 372.186 118.313 374.475 118.313" fill="none" opacity="1" stroke="#a55e85" stroke-linecap="round" stroke-linejoin="round" stroke-width="10" vectornator:layerName="Curve 14"/>
<path d="M65.9735 314.155C92.2852 251.717 124.041 205.494 136.902 210.913C149.764 216.333 138.86 271.343 112.548 333.782C86.2364 396.22 54.4804 442.443 41.6192 437.023C28.758 431.604 39.6618 376.594 65.9735 314.155Z" fill="#757a7e" fill-rule="nonzero" opacity="1" stroke="#150b14" stroke-linecap="butt" stroke-linejoin="round" stroke-width="10" vectornator:layerName="Oval 5"/>
<path d="M328.276 128.55C335.218 123.219 338.193 103.509 338.193 103.509C338.193 103.509 352.635 120.678 364.721 120.616C376.807 120.554 386.538 103.261 386.538 103.261C386.538 103.261 406.682 118.137 408.356 112.435C410.029 106.732 393.232 80.4526 393.232 80.4526C393.232 80.4526 395.711 59.565 388.274 58.1395C380.836 56.7139 363.481 74.7503 363.481 74.7503C363.481 74.7503 363.915 47.5408 355.052 46.2392C346.189 44.9376 328.028 69.5439 328.028 69.5439C328.028 69.5439 316.252 53.181 309.434 58.1395C302.616 63.0979 300.757 89.3778 300.757 89.3778C300.757 89.3778 278.075 90.1216 276.588 98.551C275.1 106.98 289.856 118.313 289.856 118.313C289.856 118.313 277.762 143.239 281.667 143.673C285.572 144.107 310.426 124.831 310.426 124.831C310.426 124.831 321.334 133.88 328.276 128.55Z" fill="#6f3a1a" fill-rule="nonzero" opacity="1" stroke="#150b14" stroke-linecap="butt" stroke-linejoin="round" stroke-width="10" vectornator:layerName="Curve 2"/>
<path d="M62.3965 679.976L46.0652 782.934C46.0652 782.934 118.424 787.172 120.976 773.703C127.121 741.277 89.0235 748.851 89.0235 748.851L91.1537 686.366L62.3965 679.976Z" fill="#9f7257" fill-rule="nonzero" opacity="1" stroke="#150b14" stroke-linecap="butt" stroke-linejoin="round" stroke-width="10" vectornator:layerName="Curve 5"/>
<path d="M139.982 695.977L146.989 786.413C146.989 786.413 217.504 788.824 217.137 775.119C216.252 742.128 180.634 757.623 180.634 757.623L169.44 696.112L139.982 695.977Z" fill="#9f7257" fill-rule="nonzero" opacity="1" stroke="#150b14" stroke-linecap="butt" stroke-linejoin="round" stroke-width="10" vectornator:layerName="Curve 4"/>
<path d="M79.298 357.332C83.6611 272.676 110.319 205.242 138.84 206.711C167.361 208.181 186.944 278 182.581 362.655C178.218 447.31 151.561 514.745 123.04 513.275C94.5187 511.805 74.935 441.987 79.298 357.332Z" fill="#757a7e" fill-rule="nonzero" opacity="1" stroke="#150b14" stroke-linecap="butt" stroke-linejoin="round" stroke-width="10" vectornator:layerName="Oval 3"/>
<path d="M91.9952 475.942C91.9952 475.942 41.1409 642.21 42.9095 679.631C66.4414 707.377 187.792 716.983 220.553 693.99C220.024 642.21 157.777 481.952 157.777 481.952L91.9952 475.942Z" fill="#a5a4a2" fill-rule="nonzero" opacity="1" stroke="#150b14" stroke-linecap="butt" stroke-linejoin="round" stroke-width="10" vectornator:layerName="Curve 3"/>
<path d="M259.459 458.863C209.796 455.765 249.041 625.862 249.041 625.862C249.041 625.862 214.158 737.464 227.696 775.126C227.696 775.126 302.441 788.77 303.19 776.509C304.746 751.036 270.744 747.8 270.744 747.8C270.744 747.8 322.728 462.811 259.459 458.863Z" fill="#c9b09a" fill-rule="nonzero" opacity="1" stroke="#150b14" stroke-linecap="butt" stroke-linejoin="round" stroke-width="10" vectornator:layerName="Curve 7"/>
<path d="M26.3654 444.976C30.2896 432.735 37.8831 424.226 43.3258 425.971C48.7686 427.716 49.9996 439.054 46.0754 451.295C42.1512 463.536 34.5577 472.045 29.115 470.3C23.6722 468.555 22.4412 457.217 26.3654 444.976Z" fill="#9f7257" fill-rule="nonzero" opacity="1" stroke="#150b14" stroke-linecap="butt" stroke-linejoin="round" stroke-width="10" vectornator:layerName="Oval 7"/>
<path d="M329.264 461.31C326.078 447.716 328.247 435.581 334.109 434.207C339.971 432.833 347.307 442.739 350.494 456.333C353.68 469.928 351.511 482.062 345.649 483.436C339.786 484.81 332.451 474.904 329.264 461.31Z" fill="#c9b09a" fill-rule="nonzero" opacity="1" stroke="#150b14" stroke-linecap="butt" stroke-linejoin="round" stroke-width="10" vectornator:layerName="Oval 12"/>
<path d="M233.806 346.646C246.279 261.246 284.5 196.121 319.175 201.185C353.85 206.249 371.849 279.586 359.376 364.986C346.903 450.386 308.682 515.511 274.006 510.447C239.331 505.383 221.333 432.046 233.806 346.646Z" fill="#c9b09a" fill-rule="nonzero" opacity="1" stroke="#150b14" stroke-linecap="butt" stroke-linejoin="round" stroke-width="10" vectornator:layerName="Oval 8"/>
<path d="M234.973 473.569C238.188 455.678 259.427 444.523 282.411 448.655C305.394 452.786 321.419 470.638 318.203 488.529C314.987 506.42 293.749 517.574 270.765 513.443C247.782 509.312 231.757 491.459 234.973 473.569Z" fill="#ffffff" fill-rule="nonzero" opacity="1" stroke="#150b14" stroke-linecap="butt" stroke-linejoin="round" stroke-width="10" vectornator:layerName="Oval 9"/>
<path d="M287.595 481.181C238.158 486.835 306.609 647.42 306.609 647.42C306.609 647.42 291.828 763.409 311.757 798.115C311.757 798.115 387.736 798.446 386.325 786.244C383.392 760.893 349.348 763.667 349.348 763.667C349.348 763.667 350.576 473.977 287.595 481.181Z" fill="#c9b09a" fill-rule="nonzero" opacity="1" stroke="#150b14" stroke-linecap="butt" stroke-linejoin="round" stroke-width="10" vectornator:layerName="Curve 6"/>
<path d="M328.897 331.32C311.234 265.375 308.28 208.872 322.298 205.117C336.316 201.363 361.998 251.778 379.661 317.724C397.324 383.669 400.279 440.172 386.261 443.927C372.243 447.681 346.56 397.266 328.897 331.32Z" fill="#c9b09a" fill-rule="nonzero" opacity="1" stroke="#150b14" stroke-linecap="butt" stroke-linejoin="round" stroke-width="10" vectornator:layerName="Oval 10"/>
<path d="M384.874 454.486C379.439 443.314 379.398 432.134 384.782 429.515C390.165 426.897 398.935 433.831 404.37 445.003C409.804 456.175 409.845 467.355 404.462 469.974C399.078 472.593 390.308 465.659 384.874 454.486Z" fill="#c9b09a" fill-rule="nonzero" opacity="1" stroke="#150b14" stroke-linecap="butt" stroke-linejoin="round" stroke-width="10" vectornator:layerName="Oval 11"/>
<path d="M261.541 256.965L328.897 331.657L244.091 304.643L261.541 256.965Z" fill="#ffffff" fill-rule="nonzero" opacity="1" stroke="#150b14" stroke-linecap="butt" stroke-linejoin="round" stroke-width="10" vectornator:layerName="Curve 8"/>
<path d="M244.091 304.643L326.509 329.774L347.456 398.194L244.091 304.643Z" fill="#ffffff" fill-rule="nonzero" opacity="1" stroke="#150b14" stroke-linecap="butt" stroke-linejoin="round" stroke-width="10" vectornator:layerName="Curve 9"/>
<path d="M318.614 375.62L230.662 382.205L232.232 418.035L347.456 398.467L318.614 375.62Z" fill="#ffffff" fill-rule="nonzero" opacity="1" stroke="#150b14" stroke-linecap="butt" stroke-linejoin="round" stroke-width="10" vectornator:layerName="Curve 10"/>
<path d="M334.013 682.436C329.542 682.574 331.943 694.089 331.822 697.964C331.418 710.882 330.975 723.392 332.584 736.26C332.697 737.163 333.889 749.284 335.442 749.026C338.951 748.441 336.224 734.482 336.013 732.64C334.573 720.041 335.632 707.009 335.632 694.344C335.632 693.208 336.084 683.886 335.442 683.484C334.578 682.945 335.113 682.403 334.013 682.436Z" fill="none" opacity="1" stroke="#a55e85" stroke-linecap="round" stroke-linejoin="round" stroke-width="10" vectornator:layerName="Curve 11"/>
<path d="M232.696 265.487C169.81 258.342 120.108 241.309 121.683 227.441C123.259 213.574 175.515 208.124 238.401 215.269C301.287 222.414 350.989 239.447 349.413 253.315C347.838 267.182 295.582 272.632 232.696 265.487Z" fill="#757a7e" fill-rule="nonzero" opacity="1" stroke="#150b14" stroke-linecap="butt" stroke-linejoin="round" stroke-width="10" vectornator:layerName="Oval 4"/>
<path d="M267.138 671.576C264.631 686.845 256.571 702.781 253.705 718.541C253.264 720.97 250.613 732.779 253.705 734.546C256.276 736.015 258.153 724.182 258.278 723.304C260.072 710.749 264.318 698.088 264.756 685.389C264.817 683.621 267.576 668.903 267.138 671.576Z" fill="none" opacity="1" stroke="#a55e85" stroke-linecap="round" stroke-linejoin="round" stroke-width="10" vectornator:layerName="Curve 12"/>
<path d="M287.259 545.827C281.468 556.3 296.944 576.535 300.323 585.998C301.093 588.153 304.874 598.128 308.138 597.475C311.119 596.879 310.253 585.768 309.359 583.8C305.389 575.067 295.562 567.887 292.02 559.624C290.083 555.103 294.355 546.568 288.846 543.263C287.503 542.457 287.327 545.702 287.259 545.827Z" fill="none" opacity="1" stroke="#a55e85" stroke-linecap="round" stroke-linejoin="round" stroke-width="10" vectornator:layerName="Curve 13"/>
<path d="M643.488 265.608C692.191 226.434 738.187 202.778 746.224 212.77C754.261 222.762 721.295 262.619 672.593 301.792C623.89 340.965 577.894 364.622 569.857 354.63C561.82 344.638 594.786 304.781 643.488 265.608Z" fill="#b76f57" fill-rule="nonzero" opacity="1" stroke="#150b14" stroke-linecap="butt" stroke-linejoin="round" stroke-width="10" vectornator:layerName="Oval 14"/>
<path d="M347.233 265.528C337.818 256.776 333.34 246.288 337.231 242.102C341.123 237.915 351.91 241.616 361.325 250.368C370.741 259.12 375.219 269.609 371.327 273.795C367.436 277.981 356.649 274.28 347.233 265.528Z" fill="#9f7257" fill-rule="nonzero" opacity="1" stroke="#150b14" stroke-linecap="butt" stroke-linejoin="round" stroke-width="10" vectornator:layerName="Oval 6"/>
<path d="M735.002 650.463C753.443 645.13 756.847 765.948 756.847 765.948C756.847 765.948 683.395 790.815 679.137 780.1C670.373 758.046 728.182 741.277 728.182 741.277C728.182 741.277 711.547 657.246 735.002 650.463Z" fill="#9f7257" fill-rule="nonzero" opacity="1" stroke="#150b14" stroke-linecap="butt" stroke-linejoin="round" stroke-width="10" vectornator:layerName="Curve 18"/>
<path d="M810.639 634.499C829.08 629.167 851.666 752.963 851.666 752.963C851.666 752.963 785.315 775.023 781.057 764.308C772.293 742.254 818.102 726.688 818.102 726.688C818.102 726.688 787.184 641.282 810.639 634.499Z" fill="#9f7257" fill-rule="nonzero" opacity="1" stroke="#150b14" stroke-linecap="butt" stroke-linejoin="round" stroke-width="10" vectornator:layerName="Curve 17"/>
<path d="M711.484 149.123C711.484 124.436 729.533 104.424 751.797 104.424C774.06 104.424 792.109 124.436 792.109 149.123C792.109 173.809 762.665 193.821 740.402 193.821C718.138 193.821 711.484 173.809 711.484 149.123Z" fill="#9f7257" fill-rule="nonzero" opacity="1" stroke="#150b14" stroke-linecap="butt" stroke-linejoin="round" stroke-width="10" vectornator:layerName="Oval 13"/>
<path d="M728.139 76.5264C728.139 76.5264 700.858 89.0119 704.916 102.746C708.974 116.48 726.766 128.654 744.37 131.463C761.975 134.272 775.335 113.983 775.335 113.983C775.335 113.983 777.849 134.878 788.15 143.68C798.45 152.483 816.537 149.192 816.537 149.192C816.537 149.192 799.369 171.472 805.55 184.332C811.73 197.193 821.236 204.92 821.236 204.92C821.236 204.92 814.414 235.78 827.274 240.836C840.135 245.893 862.529 243.084 862.529 243.084C862.529 243.084 880.849 237.965 888.703 226.79C896.558 215.616 893.947 198.385 893.947 198.385C893.947 198.385 896.944 182.654 890.451 171.916C883.959 161.178 867.977 155.435 867.977 155.435C867.977 155.435 881.961 130.651 873.471 114.233C864.981 97.8142 834.017 89.761 834.017 89.761C834.017 89.761 839.51 63.1044 826.276 55.8003C813.041 48.4963 781.078 60.5449 781.078 60.5449C781.078 60.5449 757.106 34.5749 743.871 38.5703C730.636 42.5657 728.139 76.5264 728.139 76.5264Z" fill="#402217" fill-rule="nonzero" opacity="1" stroke="#150b14" stroke-linecap="butt" stroke-linejoin="round" stroke-width="10" vectornator:layerName="Curve 15"/>
<path d="M739.213 211.065C788.234 209.148 796.799 321.413 818.819 432.634C840.839 543.854 859.573 610.809 827.292 655.948C795.012 701.087 703.034 682.694 689.697 613.19C678.56 555.154 718.989 412.813 718.989 412.813C718.989 412.813 683.795 213.232 739.213 211.065Z" fill="#b76f57" fill-rule="nonzero" opacity="1" stroke="#150b14" stroke-linecap="butt" stroke-linejoin="round" stroke-width="10" vectornator:layerName="Curve 16"/>
<path d="M680.363 309.68C712.068 252.1 746.876 210.437 758.109 216.623C769.342 222.808 752.746 274.499 721.04 332.078C689.335 389.658 654.527 431.321 643.294 425.136C632.061 418.95 648.657 367.259 680.363 309.68Z" fill="#b76f57" fill-rule="nonzero" opacity="1" stroke="#150b14" stroke-linecap="butt" stroke-linejoin="round" stroke-width="10" vectornator:layerName="Oval 15"/>
<path d="M535.077 365.844C532.575 359.785 541.417 350.384 554.826 344.845C568.235 339.307 581.134 339.73 583.637 345.788C586.139 351.847 577.297 361.248 563.888 366.786C550.478 372.325 537.579 371.902 535.077 365.844Z" fill="#9f7257" fill-rule="nonzero" opacity="1" stroke="#150b14" stroke-linecap="butt" stroke-linejoin="round" stroke-width="10" vectornator:layerName="Oval 17"/>
<path d="M600.082 432.833C598.313 426.521 608.204 418.23 622.173 414.315C636.143 410.4 648.902 412.343 650.671 418.655C652.44 424.967 642.549 433.258 628.58 437.173C614.61 441.088 601.851 439.145 600.082 432.833Z" fill="#9f7257" fill-rule="nonzero" opacity="1" stroke="#150b14" stroke-linecap="butt" stroke-linejoin="round" stroke-width="10" vectornator:layerName="Oval 16"/>
</g>
</svg>
