<?xml version="1.0" encoding="UTF-8" standalone="no"?>
<!DOCTYPE svg PUBLIC "-//W3C//DTD SVG 1.1//EN" "http://www.w3.org/Graphics/SVG/1.1/DTD/svg11.dtd">
<!-- Created with Vectornator (http://vectornator.io/) -->
<svg height="100%" stroke-miterlimit="10" style="fill-rule:nonzero;clip-rule:evenodd;stroke-linecap:round;stroke-linejoin:round;" version="1.1" viewBox="0 0 900 625" width="100%" xml:space="preserve" xmlns="http://www.w3.org/2000/svg" xmlns:vectornator="http://vectornator.io" xmlns:xlink="http://www.w3.org/1999/xlink">
<defs/>
<clipPath id="ArtboardFrame">
<rect height="625" width="900" x="0" y="0"/>
</clipPath>
<g clip-path="url(#ArtboardFrame)" id="Sketch" vectornator:layerName="Sketch" visibility="hidden">
<path d="M745.911 330.49C745.911 348.575 758.378 331.697 761.188 323.87C768.027 304.818 782.217 226.127 737.763 244.431C689.767 264.195 671.344 343.66 673.602 389.56C674.327 404.301 678.16 429.679 695.498 434.88C712.887 440.097 722.343 416.925 730.125 406.364C753.701 374.369 752.866 321.367 757.114 283.132" fill="none" opacity="1" stroke="#007aff" stroke-linecap="round" stroke-linejoin="round" stroke-width="10" vectornator:layerName="Curve 1"/>
<path d="M756.095 326.416C753.842 327.543 754.708 326.688 756.605 330.999C762.918 345.347 779.832 362.304 777.992 378.866C776.853 389.115 752.9 381.813 747.439 380.903C744.383 380.394 735.175 379.375 738.273 379.375" fill="none" opacity="1" stroke="#007aff" stroke-linecap="round" stroke-linejoin="round" stroke-width="10" vectornator:layerName="Curve 2"/>
<path d="M745.911 327.944C734.181 334.646 755.759 337.746 761.188 334.054C768.085 329.364 773.478 316.304 774.937 308.593C775.473 305.758 776.008 302.616 774.937 299.937C766.168 278.015 725.27 317.499 747.439 324.888C773.9 333.709 796.304 276.256 760.678 272.439C748.466 271.13 735.441 294.495 748.966 300.446C771.428 310.329 784.529 263.414 766.28 246.468C751.189 232.456 728.989 264.163 743.874 271.929C760.888 280.806 777.067 252.364 767.298 239.339C742.005 205.614 707.144 267.998 735.217 277.022C757.697 284.247 773.209 231.485 738.273 227.118C714.833 224.188 693.319 271.953 715.358 276.512C749.811 283.641 757.068 207.244 729.107 218.97C703.274 229.803 715.052 274.649 742.346 273.966C745.26 273.893 767.17 271.289 765.771 264.291C763.664 253.756 742.389 254.377 739.291 264.291C737.213 270.942 746.17 330.186 749.985 332.017C765.84 339.628 797.113 273.445 772.391 274.475C754.972 275.201 750.978 321.591 774.427 316.232C798.873 310.644 801.853 269.82 786.649 254.616C768.26 236.228 764.36 284.278 788.176 271.929C811.639 259.764 797.417 229.126 779.01 220.498C754.961 209.225 750.83 252.486 763.225 246.977C784.133 237.685 770.855 208.862 750.494 211.841C726.799 215.309 724.333 255.629 742.856 248.505C773.998 236.527 740.112 202.179 720.959 217.952C713.985 223.695 712.036 235.591 710.775 243.413C709.906 248.799 709.049 254.256 709.247 259.708C710.499 294.134 741.943 263.853 730.634 251.56C700.287 218.575 656.686 289.6 685.823 315.722C703.636 331.692 726.33 279.833 686.841 285.169C660.732 288.697 670.385 342.177 694.48 337.619C724.273 331.982 718.663 288.997 689.897 285.678C652.417 281.354 655.82 364.521 679.203 370.209C702.837 375.958 707.494 330.973 690.406 321.833C663.846 307.627 636.202 361.064 660.362 378.866C674.809 389.511 690.002 373.153 697.535 362.571C716.858 335.426 713.127 299.959 699.572 270.911C696.307 263.915 686.128 314.964 702.118 316.741C730.201 319.861 746.916 257.226 715.358 259.199C701.122 260.089 696.673 295.283 721.978 281.605C725.173 279.877 727.749 277.191 730.634 274.985" fill="none" opacity="1" stroke="#007aff" stroke-linecap="round" stroke-linejoin="round" stroke-width="10" vectornator:layerName="Curve 3"/>
<path d="M717.904 467.98C718.096 468.364 717.859 458.769 714.848 455.758C711.281 452.191 701.93 452.233 697.535 454.231C682.488 461.07 671.141 489.079 663.926 502.607C645.36 537.419 641.725 589.383 648.14 627.875C648.972 632.863 650.52 663.861 657.306 664.539C685.385 667.347 710.707 637.308 713.83 613.108C719.444 569.6 717.395 521.555 717.395 477.655C717.395 470.478 712.812 464.01 712.812 456.777" fill="none" opacity="1" stroke="#007aff" stroke-linecap="round" stroke-linejoin="round" stroke-width="10" vectornator:layerName="Curve 4"/>
<path d="M665.454 665.558C665.454 676.573 716.493 663.873 724.014 661.993C739.389 658.149 753.79 650.779 769.335 647.226C791.541 642.15 818.431 642.166 807.527 614.126C788.292 564.665 683.361 595.328 657.816 626.348C647.016 639.461 654.598 674.214 675.129 674.214" fill="none" opacity="1" stroke="#007aff" stroke-linecap="round" stroke-linejoin="round" stroke-width="10" vectornator:layerName="Curve 5"/>
<path d="M810.837 613.617C810.627 612.361 809.629 616.005 808.545 616.672C804.92 618.903 806.281 608.142 803.453 604.96C799.786 600.835 784.081 594.299 780.029 600.377C758.771 632.265 753.806 691.29 781.047 720.044C787.171 726.509 790.046 732.423 799.888 732.775C808.784 733.093 818.645 724.92 826.877 722.081C848.524 714.617 854.79 724.289 851.32 693.056C849.039 672.529 835.662 644.693 822.294 628.894C819.624 625.738 815.915 621.989 814.147 618.2C813.189 616.148 814.323 610.089 812.619 611.58C810.844 613.133 811.186 615.71 810.837 613.617Z" fill="none" opacity="1" stroke="#007aff" stroke-linecap="round" stroke-linejoin="round" stroke-width="10" vectornator:layerName="Curve 6"/>
<path d="M812.11 736.339C814.996 747.883 821.911 758.232 824.84 769.948" fill="none" opacity="1" stroke="#007aff" stroke-linecap="round" stroke-linejoin="round" stroke-width="10" vectornator:layerName="Curve 7"/>
<path d="M833.497 727.173C845.222 734.99 843.664 754.145 852.848 763.328C854.277 764.757 894.149 751.451 887.475 771.476C881.66 788.919 857.964 780.268 845.209 778.605C843.788 778.419 820.817 775.575 825.859 778.096" fill="none" opacity="1" stroke="#007aff" stroke-linecap="round" stroke-linejoin="round" stroke-width="10" vectornator:layerName="Curve 8"/>
<path d="M794.287 587.647C807.492 596.45 838.939 571.987 851.829 589.174C868.755 611.742 872.494 652.974 874.235 680.834C874.506 685.175 878.017 706.684 875.253 710.369C873.531 712.665 855.463 708.768 852.848 708.332" fill="none" opacity="1" stroke="#007aff" stroke-linecap="round" stroke-linejoin="round" stroke-width="10" vectornator:layerName="Curve 10"/>
<path d="M755.332 765.11C759.56 758.543 752.564 751.273 751.003 743.469C744.957 713.24 740.038 700.197 708.229 694.583C696.258 692.471 683.87 693.607 672.583 687.963C656.144 679.744 635.506 662.076 615.55 666.067C588.603 671.456 569.047 698.051 544.768 708.841C534.337 713.478 524.085 704.65 514.215 703.24C501.813 701.468 478.533 709.012 471.441 720.044C465.871 728.709 462.683 743.048 461.765 753.144C461.472 756.365 457.075 794.283 457.182 794.391C462.125 799.334 481.486 795.359 487.226 794.9C507.802 793.254 531.347 793.178 551.898 795.918C570.42 798.388 580.645 811.392 601.801 806.103C626.559 799.913 649.422 783.346 675.129 780.132C706.151 776.255 738.757 790.854 755.332 765.11Z" fill="none" opacity="1" stroke="#007aff" stroke-linecap="round" stroke-linejoin="round" stroke-width="10" vectornator:layerName="Curve 11"/>
<path d="M705.428 459.832C685.333 449.47 669.677 498.711 671.565 513.81C675.124 542.284 704.461 571.576 730.634 582.045C742.602 586.832 800.584 590.408 810.073 584.082C810.81 583.591 810.702 581.749 810.582 581.027C809.145 572.404 804.69 554.929 800.398 547.418C792.562 533.705 771.127 535.855 761.188 525.012C753.634 516.772 750.707 507.063 745.402 497.514C735.746 480.134 719.714 467.199 705.428 459.832Z" fill="none" opacity="1" stroke="#007aff" stroke-linecap="round" stroke-linejoin="round" stroke-width="10" vectornator:layerName="Curve 12"/>
<path d="M809.564 555.566C809.564 563.165 870.124 550.094 860.995 582.045C856.244 598.673 810.582 561.663 810.582 584.082" fill="none" opacity="1" stroke="#007aff" stroke-linecap="round" stroke-linejoin="round" stroke-width="10" vectornator:layerName="Curve 13"/>
<path d="M716.376 455.249C716.376 461.694 766.283 459.152 772.391 457.795C810.825 449.254 834.034 411.2 875.253 408.91C886.284 408.297 909.395 411.707 913.445 425.205C917.61 439.088 903.429 448.26 895.622 456.777C872.721 481.76 826.469 496.04 793.269 494.459C781.752 493.911 756.283 492.046 749.985 504.644" fill="none" opacity="1" stroke="#007aff" stroke-linecap="round" stroke-linejoin="round" stroke-width="10" vectornator:layerName="Curve 14"/>
<path d="M914.973 420.622C923.044 417.932 931.604 410.212 939.415 408.91C953.701 406.529 967.85 406.893 982.19 403.309C989.702 401.43 992.619 392.106 1002.56 392.106C1011.08 392.106 1006.13 409.794 1002.56 412.474C980.989 428.651 958.298 428.756 933.814 436.408C927.81 438.284 914.463 440.727 914.463 449.138" fill="none" opacity="1" stroke="#007aff" stroke-linecap="round" stroke-linejoin="round" stroke-width="10" vectornator:layerName="Curve 15"/>
<path d="M1409.34 499.576C1418.57 471.886 1385.29 462.28 1368.5 481.307C1332.88 521.677 1324.82 616.021 1329.28 667.219C1331.14 688.699 1350.02 721.319 1374.95 723.1C1395.47 724.566 1408.85 684.408 1410.41 668.831C1414.45 628.443 1414.71 589.938 1414.71 549.547C1414.71 524.396 1418.05 497.327 1403.43 475.397" fill="none" opacity="1" stroke="#007aff" stroke-linecap="round" stroke-linejoin="round" stroke-width="10" vectornator:layerName="Curve 16"/>
<path d="M1409.34 682.801C1398.89 675.836 1393.55 664.081 1386.23 654.323C1376.63 641.518 1363.24 631.448 1351.31 621.01C1334.77 606.538 1316.05 591.646 1295.42 583.398C1283.07 578.455 1264.63 589.459 1261.57 601.666C1255.9 624.373 1268.91 653.654 1281.45 672.055C1297.67 695.833 1323.57 728.988 1352.92 736.533C1379.18 743.286 1407.83 720.625 1403.96 693.548C1402.99 686.725 1397.93 668.462 1396.44 662.383C1394.05 652.654 1393.16 641.026 1389.45 631.756" fill="none" opacity="1" stroke="#007aff" stroke-linecap="round" stroke-linejoin="round" stroke-width="10" vectornator:layerName="Curve 17"/>
<path d="M1285.48 588.233C1299.2 580.909 1281.41 585.08 1276.08 589.845C1265.36 599.434 1255.68 610.51 1246.53 621.547C1225.1 647.388 1210.31 676.874 1204.62 710.204C1203.61 716.12 1199.23 754.944 1206.23 757.488C1214.86 760.625 1230.38 749.078 1236.86 744.593C1258.98 729.274 1267.5 704.957 1278.77 681.727C1284.48 669.937 1292.95 659.441 1295.42 646.264C1298.42 630.272 1294.67 620.526 1287.36 607.039C1284.12 601.048 1283.64 599.712 1283.07 593.069C1282.86 590.722 1279.71 585.513 1281.99 586.084C1284.64 586.746 1284.14 588.951 1285.48 588.233Z" fill="none" opacity="1" stroke="#007aff" stroke-linecap="round" stroke-linejoin="round" stroke-width="10" vectornator:layerName="Curve 18"/>
<path d="M1204.62 755.876C1204.62 784.593 1138.6 771.61 1151.42 797.25C1153.4 801.207 1174.27 799.89 1177.21 799.399C1187.87 797.623 1209.92 794.009 1217.51 784.891C1221.39 780.235 1221.23 771.537 1224.5 766.085" fill="none" opacity="1" stroke="#007aff" stroke-linecap="round" stroke-linejoin="round" stroke-width="10" vectornator:layerName="Curve 19"/>
<path d="M1298.65 702.682C1290.67 697.364 1279.49 702.109 1270.17 698.383" fill="none" opacity="1" stroke="#007aff" stroke-linecap="round" stroke-linejoin="round" stroke-width="10" vectornator:layerName="Curve 20"/>
<path d="M1244.38 622.084C1246.87 620.84 1234.07 621.01 1232.56 621.01C1227.89 621.01 1224.25 620.901 1219.66 619.935C1204.61 616.767 1182.53 608.431 1171.84 623.696C1169.2 627.473 1158.96 681.034 1160.02 682.801C1165.32 691.626 1194.05 689.068 1203.01 693.548" fill="none" opacity="1" stroke="#007aff" stroke-linecap="round" stroke-linejoin="round" stroke-width="10" vectornator:layerName="Curve 21"/>
<path d="M1201.39 620.472C1181.29 620.472 1141.97 686.331 1137.45 703.757C1135.14 712.661 1130.03 735.128 1142.83 738.682C1176.86 748.136 1209.61 665.836 1204.62 640.89C1201.32 624.421 1184.06 618.689 1175.6 633.905" fill="none" opacity="1" stroke="#007aff" stroke-linecap="round" stroke-linejoin="round" stroke-width="10" vectornator:layerName="Curve 22"/>
<path d="M1134.23 745.667C1131.46 747.052 1130.49 755.327 1126.71 758.026C1120.5 762.457 1084.85 767.261 1092.86 783.28C1094.7 786.967 1116.07 784.426 1119.72 783.817C1147.43 779.198 1151.96 772.424 1151.96 744.055" fill="none" opacity="1" stroke="#007aff" stroke-linecap="round" stroke-linejoin="round" stroke-width="10" vectornator:layerName="Curve 23"/>
<path d="M1413.63 369.545C1413.63 353.599 1389.03 336.658 1375.48 350.202C1358.22 367.462 1347.7 463.156 1392.68 454.979C1400.74 453.514 1410.85 433.461 1413.63 427.038C1422.4 406.807 1429.51 331.602 1392.68 335.694C1358.48 339.494 1346.13 443.582 1372.26 452.292" fill="none" opacity="1" stroke="#007aff" stroke-linecap="round" stroke-linejoin="round" stroke-width="10" vectornator:layerName="Curve 24"/>
<path d="M1362.05 388.351C1357.5 389.868 1338.62 421.019 1341.63 423.277C1345.42 426.113 1360.32 418.581 1363.66 417.366" fill="none" opacity="1" stroke="#007aff" stroke-linecap="round" stroke-linejoin="round" stroke-width="10" vectornator:layerName="Curve 25"/>
<path d="M1401.28 480.233C1401.48 476.001 1396.12 491.658 1392.68 496.352C1386.3 505.054 1374.17 513.037 1364.2 517.307C1349.07 523.792 1279.3 555.993 1279.3 574.8C1279.3 608.299 1351.75 572.48 1362.59 567.278C1408.09 545.439 1399.44 517.787 1401.28 480.233Z" fill="none" opacity="1" stroke="#007aff" stroke-linecap="round" stroke-linejoin="round" stroke-width="10" vectornator:layerName="Curve 26"/>
<path d="M1277.16 572.651C1270 570.266 1247.48 577.523 1250.29 588.771C1252.15 596.193 1273.27 585.671 1275.54 583.398" fill="none" opacity="1" stroke="#007aff" stroke-linecap="round" stroke-linejoin="round" stroke-width="10" vectornator:layerName="Curve 27"/>
<path d="M1374.95 472.71C1368.4 466.166 1350.55 473.864 1341.1 474.859C1312.02 477.92 1275.05 487.996 1254.59 510.86C1248.58 517.576 1214.95 551.256 1228.26 561.905C1235.47 567.67 1249.41 562.979 1257.81 562.979" fill="none" opacity="1" stroke="#007aff" stroke-linecap="round" stroke-linejoin="round" stroke-width="10" vectornator:layerName="Curve 28"/>
<path d="M1226.38 573.994C1225.48 567.318 1224.35 579.845 1229.33 584.472C1231.81 586.767 1254.05 589.085 1254.05 585.009C1254.05 577.607 1227.24 580.429 1226.38 573.994Z" fill="none" opacity="1" stroke="#007aff" stroke-linecap="round" stroke-linejoin="round" stroke-width="10" vectornator:layerName="Curve 29"/>
<path d="M1356.68 360.411C1356.3 360.219 1373.82 362.934 1377.1 363.097C1391.13 363.799 1408.05 359.46 1417.93 348.59C1418.9 347.521 1421.42 345.365 1420.08 344.829C1406.96 339.578 1375.4 337.254 1362.05 341.067C1359.72 341.734 1346.89 343.948 1348.62 349.127C1352.41 360.49 1398.38 357.961 1407.72 354.5C1416.65 351.195 1413.43 352.607 1419.54 347.515C1420.73 346.529 1424.85 344.829 1423.31 344.829C1406.67 344.829 1389.89 341.88 1372.8 340.53C1368.87 340.22 1359.21 336.465 1360.98 339.993C1361.77 341.571 1364.2 341.426 1365.81 342.142" fill="none" opacity="1" stroke="#007aff" stroke-linecap="round" stroke-linejoin="round" stroke-width="10" vectornator:layerName="Curve 30"/>
<path d="M1362.59 337.306C1354.61 321.357 1415.15 316.053 1421.16 334.082" fill="none" opacity="1" stroke="#007aff" stroke-linecap="round" stroke-linejoin="round" stroke-width="10" vectornator:layerName="Curve 31"/>
<path d="M1430.29 351.814C1430.29 360.137 1440.6 369.896 1441.57 380.292C1445.83 425.657 1452.86 472.162 1443.72 517.845C1439.64 538.279 1433.04 558.195 1431.37 579.099C1431 583.653 1423.31 606.452 1423.31 602.741" fill="none" opacity="1" stroke="#007aff" stroke-linecap="round" stroke-linejoin="round" stroke-width="10" vectornator:layerName="Curve 32"/>
<path d="M1378.17 370.083C1381.72 371.855 1385.35 370.287 1388.92 372.232C1425.64 392.26 1429.38 498.949 1424.38 535.576C1421.24 558.596 1411.74 585.526 1422.77 607.577" fill="none" opacity="1" stroke="#007aff" stroke-linecap="round" stroke-linejoin="round" stroke-width="10" vectornator:layerName="Curve 33"/>
<path d="M1443.72 425.964C1447.69 449.774 1443.89 473.983 1444.8 497.964C1445.88 526.526 1453.82 554.075 1454.47 582.86C1454.52 585.171 1456.01 612.457 1453.4 614.025C1449.26 616.505 1423.74 618.645 1429.75 615.637" fill="none" opacity="1" stroke="#007aff" stroke-linecap="round" stroke-linejoin="round" stroke-width="10" vectornator:layerName="Curve 34"/>
</g>
<g id="Rock" vectornator:layerName="Rock">
<path d="M22.4312 556.716L155.246 565.127L333.943 535.316L302.449 451.021C246.326 431.864 199.497 437.751 199.497 437.751C199.497 437.751 157.541 417.568 108.867 429.035C66.6211 438.987 31.7058 482.312 31.7058 482.312L22.4312 556.716Z" fill="#9c9ca3" fill-rule="nonzero" opacity="1" stroke="#000002" stroke-linecap="butt" stroke-linejoin="round" stroke-width="10" vectornator:layerName="Curve 1"/>
</g>
<g id="Lawyer" vectornator:layerName="Lawyer">
<path d="M823.049 283.074C800.699 249.66 715.618 340.369 715.618 340.369C715.618 340.369 608.469 391.387 644.514 410.377C665.329 421.344 735.211 370.325 735.211 370.325C735.211 370.325 848.153 320.607 823.049 283.074Z" fill="#b76f57" fill-rule="nonzero" opacity="1" stroke="#000002" stroke-linecap="butt" stroke-linejoin="round" stroke-width="10" vectornator:layerName="Curve 11"/>
<path d="M775.027 199.101C778.627 165.36 796.35 139.588 814.613 141.536C832.876 143.485 844.763 172.416 841.164 206.157C837.564 239.897 819.84 265.67 801.577 263.721C783.314 261.773 771.427 232.841 775.027 199.101Z" fill="#c9b09a" fill-rule="nonzero" opacity="1" stroke="#000002" stroke-linecap="butt" stroke-linejoin="round" stroke-width="10" vectornator:layerName="Oval 1"/>
<path d="M780.873 145.945C780.873 145.945 764.908 150.325 763.994 154.658C763.079 158.991 777.217 163.276 777.217 163.276L845.663 160.999C845.663 160.999 855.757 158.08 854.301 153.961C852.845 149.842 839.838 144.522 839.838 144.522L780.873 145.945Z" fill="#9ba61c" fill-rule="nonzero" opacity="1" stroke="#000002" stroke-linecap="butt" stroke-linejoin="round" stroke-width="10" vectornator:layerName="Curve 2"/>
<path d="M781.584 144.216C781.584 144.216 763.924 128.637 808.813 128.581C853.701 128.524 840.879 142.843 840.879 142.843L781.584 144.216Z" fill="#dfd8c5" fill-rule="nonzero" opacity="1" stroke="#000002" stroke-linecap="butt" stroke-linejoin="round" stroke-width="10" vectornator:layerName="Curve 3"/>
<path d="M693.629 507.231L728.64 507.121L725.427 465.463L683.536 476.193L693.629 507.231Z" fill="#9d521b" fill-rule="nonzero" opacity="1" stroke="#000002" stroke-linecap="butt" stroke-linejoin="round" stroke-width="10" vectornator:layerName="Curve 6"/>
<path d="M822.667 161.894C822.667 161.894 854.224 294.599 849.488 422.261L873.812 420.511C878.201 223.69 846.897 161.136 846.897 161.136L822.667 161.894Z" fill="#dfd8c5" fill-rule="nonzero" opacity="1" stroke="#000002" stroke-linecap="butt" stroke-linejoin="round" stroke-width="10" vectornator:layerName="Curve 4"/>
<path d="M706.972 389.9C678.978 389.196 579.191 550.839 633.412 563.732C664.046 571.016 703.182 483.277 703.182 483.277C703.182 483.277 783.507 565.918 820.497 529.015C857.284 492.315 746.94 390.905 706.972 389.9Z" fill="#9d521b" fill-rule="nonzero" opacity="1" stroke="#000002" stroke-linecap="butt" stroke-linejoin="round" stroke-width="10" vectornator:layerName="Curve 5"/>
<path d="M664.499 429.422C664.499 429.422 630.314 414.052 606.028 427.024C572.334 445.021 539.379 538.738 564.204 544.693C589.082 550.661 614.237 496.978 614.237 496.978L624.247 500.042L664.499 429.422Z" fill="#9d521b" fill-rule="nonzero" opacity="1" stroke="#000002" stroke-linecap="butt" stroke-linejoin="round" stroke-width="10" vectornator:layerName="Curve 7"/>
<path d="M808.438 275.792C866.607 275.829 851.08 560.542 810.459 555.111L775.468 555.221C732.587 566.467 762.685 275.763 808.438 275.792Z" fill="#b76f57" fill-rule="nonzero" opacity="1" stroke="#000002" stroke-linecap="butt" stroke-linejoin="round" stroke-width="10" vectornator:layerName="Curve 8"/>
<path d="M572.521 543.959L569.897 587.538L514.065 591.703C511.001 559.996 547.152 575.337 547.152 575.337L557.788 542.471L572.521 543.959Z" fill="#c9b09a" fill-rule="nonzero" opacity="1" stroke="#000002" stroke-linecap="butt" stroke-linejoin="round" stroke-width="10" vectornator:layerName="Curve 9"/>
<path d="M644.991 561.527L631.314 602.994L582.84 605.294C579.308 576.585 617.691 588.732 617.691 588.732L626.267 559.438L644.991 561.527Z" fill="#c9b09a" fill-rule="nonzero" opacity="1" stroke="#000002" stroke-linecap="butt" stroke-linejoin="round" stroke-width="10" vectornator:layerName="Curve 10"/>
<path d="M631.807 402.442C639.521 394.96 648.649 391.858 652.195 395.514C655.741 399.17 652.362 408.199 644.648 415.681C636.934 423.163 627.806 426.265 624.26 422.609C620.714 418.953 624.093 409.924 631.807 402.442Z" fill="#c9b09a" fill-rule="nonzero" opacity="1" stroke="#000002" stroke-linecap="butt" stroke-linejoin="round" stroke-width="8.74018" vectornator:layerName="Oval 2"/>
<path d="M702.52 384.933C712.664 381.202 722.347 382.146 724.147 387.042C725.948 391.937 719.184 398.931 709.04 402.662C698.896 406.393 689.213 405.449 687.412 400.553C685.612 395.657 692.376 388.664 702.52 384.933Z" fill="#c9b09a" fill-rule="nonzero" opacity="1" stroke="#000002" stroke-linecap="butt" stroke-linejoin="round" stroke-width="8.74018" vectornator:layerName="Oval 3"/>
<path d="M817.799 281.295C786.4 272.502 778.869 362.839 778.869 362.839C778.869 362.839 715.177 363.04 711.911 385.279C706.589 421.532 805.095 401.918 805.095 401.918C805.095 401.918 854.876 291.678 817.799 281.295Z" fill="#b76f57" fill-rule="nonzero" opacity="1" stroke="#000002" stroke-linecap="butt" stroke-linejoin="round" stroke-width="8.74018" vectornator:layerName="Curve 12"/>
</g>
<g id="Jesus" vectornator:layerName="Jesus">
<path d="M247.959 127.957C256.002 87.1506 277.07 56.9381 295.015 60.4752C312.96 64.0123 320.986 99.9596 312.943 140.766C304.9 181.572 283.832 211.784 265.887 208.247C247.943 204.71 239.916 168.763 247.959 127.957Z" fill="#bda27c" fill-rule="nonzero" opacity="1" stroke="#000002" stroke-linecap="butt" stroke-linejoin="round" stroke-width="10" vectornator:layerName="Oval 1"/>
<path d="M445.896 232.86C445.896 232.86 538.961 217.296 542.003 185.874C529.282 178.762 520.229 196.57 505.779 196.616L472.802 198.222C472.802 198.222 450.517 199.501 446.776 213.068C459.352 216.595 445.896 232.86 445.896 232.86Z" fill="#bda27c" fill-rule="nonzero" opacity="1" stroke="#000002" stroke-linecap="butt" stroke-linejoin="round" stroke-width="10" vectornator:layerName="Curve 4"/>
<path d="M314.385 97.284C314.385 97.284 332.875 91.2328 333.15 83.4411C333.425 75.6495 319.302 63.1088 319.302 63.1088C319.302 63.1088 329.671 49.2175 324.035 43.6169C318.399 38.0163 296.483 48.4981 296.483 48.4981C296.483 48.4981 285.637 36.3217 277.184 40.1688C268.731 44.0159 268.353 60.3168 268.353 60.3168C268.353 60.3168 243.848 57.4286 239.306 66.3574C234.765 75.2862 244.78 91.8101 244.78 91.8101C244.78 91.8101 227.697 90.6653 225.328 99.6622C222.959 108.659 240.417 121.189 240.417 121.189C240.417 121.189 224.816 127.35 222.148 136.573C219.481 145.795 240.527 155.933 240.527 155.933C240.527 155.933 257.766 158.064 258.426 142.962L263.14 117.522C263.14 117.522 279.475 118.969 286.204 114.752C292.933 110.536 291.835 94.9579 291.835 94.9579L314.385 97.284Z" fill="#402217" fill-rule="nonzero" opacity="1" stroke="#000002" stroke-linecap="butt" stroke-linejoin="round" stroke-width="10" vectornator:layerName="Curve 2"/>
<path d="M254.85 239.485C241.339 238.274 196.289 296.526 199.321 361.539C202.353 426.553 203.722 462.044 222.863 455.702C242.005 449.359 267.628 406.558 269.042 356.922C270.456 307.286 301.799 285.199 311.212 282.028C320.626 278.857 380.014 284.953 413.877 265.37C447.741 245.788 467.773 223.108 467.116 214.001C467.116 214.001 460.131 190.464 428.101 193.706C396.071 196.948 350.256 236.381 336.838 240.169C282.988 255.372 282.934 238.143 254.85 239.485Z" fill="#dfd8c5" fill-rule="nonzero" opacity="1" stroke="#000002" stroke-linecap="butt" stroke-linejoin="round" stroke-width="10" vectornator:layerName="Curve 3"/>
<path d="M418.369 494.465L430.161 534.521C430.161 534.521 463.361 517.49 468.187 549.337L408.512 556.378L388.024 496.032L418.369 494.465Z" fill="#bda27c" fill-rule="nonzero" opacity="1" stroke="#000002" stroke-linecap="butt" stroke-linejoin="round" stroke-width="10" vectornator:layerName="Curve 10"/>
<path d="M341.671 378.368C341.671 378.368 367.124 357.206 398.187 370.022C440.207 401.888 428.418 493.691 428.418 493.691L401.658 499.51C408.99 431.322 341.671 378.368 341.671 378.368Z" fill="#dfd8c5" fill-rule="nonzero" opacity="1" stroke="#000002" stroke-linecap="butt" stroke-linejoin="round" stroke-width="10" vectornator:layerName="Curve 8"/>
<path d="M223.18 456.415C223.18 456.415 273.296 456.257 315.46 433.736C305.641 485.736 351.215 515.923 351.215 515.923L401.423 499.744C401.423 499.744 408.756 431.865 338.212 377.122C309.75 364.848 267.233 381.115 267.233 381.115C268.451 432.307 223.18 456.415 223.18 456.415Z" fill="#dfd8c5" fill-rule="nonzero" opacity="1" stroke="#000002" stroke-linecap="butt" stroke-linejoin="round" stroke-width="10" vectornator:layerName="Curve 7"/>
<path d="M357.263 341.88C357.263 341.88 428.094 340.382 410.437 369.67L364.236 361.648L357.263 341.88Z" fill="#bda27c" fill-rule="nonzero" opacity="1" stroke="#000002" stroke-linecap="butt" stroke-linejoin="round" stroke-width="10" vectornator:layerName="Curve 6"/>
<path d="M360.792 365.428C360.792 365.428 366.63 323.946 317.912 314.676C295.152 289.879 289.116 240.727 253.602 242.002C229.792 237.208 222.672 295.5 222.672 295.5C231.17 350.216 269.816 364.974 289.521 369.516C330.994 376.43 360.792 365.428 360.792 365.428Z" fill="#dfd8c5" fill-rule="nonzero" opacity="1" stroke="#000002" stroke-linecap="butt" stroke-linejoin="round" stroke-width="10" vectornator:layerName="Curve 5"/>
<path d="M363.148 514.943L379.629 561.381C379.629 561.381 433.255 558.385 439.919 554.594C440.607 528.833 404.626 538.035 404.626 538.035L393.24 503.465L363.148 514.943Z" fill="#bda27c" fill-rule="nonzero" opacity="1" stroke="#000002" stroke-linecap="butt" stroke-linejoin="round" stroke-width="10" vectornator:layerName="Curve 9"/>
</g>
</svg>
